Blinker-Headline_15.ufo
<glyph name="exclam" format="1">
  <advance width="227.0"/>
  <unicode hex="0021"/>
  <outline>
    <contour>
      <point x="8" y="625" type="line"/>
      <point x="220" y="625" type="line"/>
      <point x="197" y="200" type="line"/>
      <point x="31" y="200" type="line"/>
    </contour>
    <contour>
      <point x="207" y="166" type="line"/>
      <point x="207" y="0" type="line"/>
      <point x="17" y="0" type="line"/>
      <point x="17" y="166" type="line"/>
    </contour>
  </outline>
</glyph>
<glyph name="quotedbl" format="1">
  <advance width="276.0"/>
  <unicode hex="0022"/>
  <outline>
    <contour>
      <point x="10" y="625" type="line"/>
      <point x="121" y="625" type="line"/>
      <point x="121" y="397" type="line"/>
      <point x="10" y="397" type="line"/>
    </contour>
    <contour>
      <point x="155" y="625" type="line"/>
      <point x="266" y="625" type="line"/>
      <point x="266" y="397" type="line"/>
      <point x="155" y="397" type="line"/>
    </contour>
  </outline>
</glyph>
<glyph name="numbersign" format="1">
  <advance width="453.0"/>
  <unicode hex="0023"/>
  <outline>
    <contour>
      <point x="446" y="491" type="line"/>
      <point x="446" y="371" type="line"/>
      <point x="387" y="371" type="line"/>
      <point x="372" y="265" type="line"/>
      <point x="417" y="265" type="line"/>
      <point x="417" y="145" type="line"/>
      <point x="355" y="145" type="line"/>
      <point x="335" y="0" type="line"/>
      <point x="208" y="0" type="line"/>
      <point x="228" y="145" type="line"/>
      <point x="181" y="145" type="line"/>
      <point x="161" y="0" type="line"/>
      <point x="34" y="0" type="line"/>
      <point x="54" y="145" type="line"/>
      <point x="7" y="145" type="line"/>
      <point x="7" y="265" type="line"/>
      <point x="71" y="265" type="line"/>
      <point x="86" y="371" type="line"/>
      <point x="36" y="371" type="line"/>
      <point x="36" y="491" type="line"/>
      <point x="102" y="491" type="line"/>
      <point x="120" y="625" type="line"/>
      <point x="247" y="625" type="line"/>
      <point x="229" y="491" type="line"/>
      <point x="276" y="491" type="line"/>
      <point x="294" y="625" type="line"/>
      <point x="421" y="625" type="line"/>
      <point x="403" y="491" type="line"/>
    </contour>
    <contour>
      <point x="245" y="265" type="line"/>
      <point x="260" y="371" type="line"/>
      <point x="213" y="371" type="line"/>
      <point x="198" y="265" type="line"/>
    </contour>
  </outline>
</glyph>
<glyph name="dollar" format="1">
  <advance width="401.0"/>
  <unicode hex="0024"/>
  <outline>
    <contour>
      <point x="261" y="-3" type="qcurve"/>
      <point x="261" y="-87" type="line"/>
      <point x="151" y="-87" type="line"/>
      <point x="151" y="-10" type="line"/>
      <point x="110" y="-8"/>
      <point x="33" y="5"/>
      <point x="15" y="13" type="qcurve"/>
      <point x="15" y="197" type="line"/>
      <point x="45" y="185"/>
      <point x="138" y="170"/>
      <point x="182" y="170" type="qcurve"/>
      <point x="201" y="170"/>
      <point x="219" y="184"/>
      <point x="219" y="199" type="qcurve" smooth="yes"/>
      <point x="219" y="213"/>
      <point x="210" y="225"/>
      <point x="195" y="229" type="qcurve"/>
      <point x="134" y="248" type="line" smooth="yes"/>
      <point x="64" y="269"/>
      <point x="11" y="351"/>
      <point x="11" y="423" type="qcurve" smooth="yes"/>
      <point x="11" y="517"/>
      <point x="79" y="619"/>
      <point x="151" y="632" type="qcurve"/>
      <point x="151" y="714" type="line"/>
      <point x="261" y="714" type="line"/>
      <point x="261" y="635" type="line"/>
      <point x="291" y="633"/>
      <point x="339" y="625"/>
      <point x="355" y="619" type="qcurve"/>
      <point x="355" y="446" type="line"/>
      <point x="322" y="454"/>
      <point x="254" y="462"/>
      <point x="223" y="462" type="qcurve" smooth="yes"/>
      <point x="207" y="462"/>
      <point x="192" y="448"/>
      <point x="192" y="433" type="qcurve"/>
      <point x="192" y="421"/>
      <point x="200" y="411"/>
      <point x="213" y="407" type="qcurve"/>
      <point x="268" y="389" type="line" smooth="yes"/>
      <point x="318" y="372"/>
      <point x="359" y="346"/>
      <point x="371" y="326" type="qcurve" smooth="yes"/>
      <point x="383" y="306"/>
      <point x="394" y="248"/>
      <point x="394" y="205" type="qcurve" smooth="yes"/>
      <point x="394" y="112"/>
      <point x="329" y="13"/>
    </contour>
  </outline>
</glyph>
<glyph name="ampersand" format="1">
  <advance width="537.0"/>
  <unicode hex="0026"/>
  <outline>
    <contour>
      <point x="477" y="230" type="line"/>
      <point x="477" y="58" type="line"/>
      <point x="458" y="31"/>
      <point x="331" y="-12"/>
      <point x="266" y="-12" type="qcurve" smooth="yes"/>
      <point x="132" y="-12"/>
      <point x="8" y="151"/>
      <point x="8" y="324" type="qcurve"/>
      <point x="8" y="475"/>
      <point x="130" y="635"/>
      <point x="245" y="635" type="qcurve" smooth="yes"/>
      <point x="336" y="635"/>
      <point x="432" y="539"/>
      <point x="432" y="449" type="qcurve"/>
      <point x="432" y="432"/>
      <point x="426" y="400"/>
      <point x="421" y="385" type="qcurve"/>
      <point x="536" y="385" type="line"/>
      <point x="536" y="230" type="line"/>
    </contour>
    <contour>
      <point x="264" y="437" type="qcurve"/>
      <point x="264" y="457"/>
      <point x="250" y="475"/>
      <point x="236" y="475" type="qcurve"/>
      <point x="217" y="475"/>
      <point x="201" y="433"/>
      <point x="200" y="372" type="qcurve"/>
      <point x="233" y="378"/>
      <point x="264" y="409"/>
    </contour>
    <contour>
      <point x="277" y="161" type="qcurve"/>
      <point x="288" y="161"/>
      <point x="307" y="165"/>
      <point x="311" y="168" type="qcurve"/>
      <point x="311" y="273" type="line"/>
      <point x="288" y="263"/>
      <point x="233" y="249"/>
      <point x="204" y="246" type="qcurve"/>
      <point x="210" y="199"/>
      <point x="242" y="161"/>
    </contour>
  </outline>
</glyph>
<glyph name="parenleft" format="1">
  <advance width="172.0"/>
  <unicode hex="0028"/>
  <outline>
    <contour>
      <point x="120" y="312" type="qcurve"/>
      <point x="120" y="204"/>
      <point x="146" y="11"/>
      <point x="170" y="-50" type="qcurve"/>
      <point x="84" y="-80" type="line"/>
      <point x="47" y="0"/>
      <point x="8" y="199"/>
      <point x="8" y="312" type="qcurve"/>
      <point x="8" y="428"/>
      <point x="47" y="628"/>
      <point x="84" y="705" type="qcurve"/>
      <point x="167" y="675" type="line"/>
      <point x="144" y="616"/>
      <point x="120" y="424"/>
    </contour>
  </outline>
</glyph>
<glyph name="asterisk" format="1">
  <advance width="247.0"/>
  <unicode hex="002A"/>
  <outline>
    <contour>
      <point x="228" y="426" type="line"/>
      <point x="157" y="388" type="line"/>
      <point x="124" y="446" type="line"/>
      <point x="89" y="387" type="line"/>
      <point x="19" y="428" type="line"/>
      <point x="58" y="482" type="line"/>
      <point x="6" y="496" type="line"/>
      <point x="33" y="581" type="line"/>
      <point x="84" y="557" type="line"/>
      <point x="78" y="625" type="line"/>
      <point x="168" y="625" type="line"/>
      <point x="162" y="558" type="line"/>
      <point x="213" y="579" type="line"/>
      <point x="241" y="496" type="line"/>
      <point x="189" y="483" type="line"/>
    </contour>
  </outline>
</glyph>
<glyph name="comma" format="1">
  <advance width="181.0"/>
  <unicode hex="002C"/>
  <outline>
    <contour>
      <point x="181" y="171" type="line"/>
      <point x="152" y="-23" type="line" smooth="yes"/>
      <point x="148" y="-50"/>
      <point x="107" y="-84"/>
      <point x="78" y="-84" type="qcurve"/>
      <point x="9" y="-84" type="line"/>
      <point x="9" y="171" type="line"/>
    </contour>
  </outline>
</glyph>
<glyph name="period" format="1">
  <advance width="197.0"/>
  <unicode hex="002E"/>
  <outline>
    <contour>
      <point x="188" y="0" type="line"/>
      <point x="9" y="0" type="line"/>
      <point x="9" y="171" type="line"/>
      <point x="188" y="171" type="line"/>
    </contour>
  </outline>
</glyph>
<glyph name="slash" format="1">
  <advance width="265.0"/>
  <unicode hex="002F"/>
  <outline>
    <contour>
      <point x="260" y="705" type="line"/>
      <point x="112" y="-80" type="line"/>
      <point x="5" y="-80" type="line"/>
      <point x="153" y="705" type="line"/>
    </contour>
  </outline>
</glyph>
<glyph name="zero" format="1">
  <advance width="475.0"/>
  <unicode hex="0030"/>
  <outline>
    <contour>
      <point x="461" y="312" type="qcurve"/>
      <point x="461" y="135"/>
      <point x="364" y="-12"/>
      <point x="238" y="-12" type="qcurve"/>
      <point x="156" y="-12"/>
      <point x="67" y="32"/>
      <point x="45" y="83" type="qcurve" smooth="yes"/>
      <point x="29" y="119"/>
      <point x="14" y="229"/>
      <point x="14" y="312" type="qcurve"/>
      <point x="14" y="489"/>
      <point x="112" y="637"/>
      <point x="238" y="637" type="qcurve"/>
      <point x="320" y="637"/>
      <point x="409" y="592"/>
      <point x="431" y="541" type="qcurve" smooth="yes"/>
      <point x="447" y="505"/>
      <point x="461" y="395"/>
    </contour>
    <contour>
      <point x="266" y="312" type="qcurve"/>
      <point x="266" y="407"/>
      <point x="256" y="460"/>
      <point x="238" y="460" type="qcurve"/>
      <point x="219" y="460"/>
      <point x="209" y="411"/>
      <point x="209" y="312" type="qcurve"/>
      <point x="209" y="218"/>
      <point x="219" y="171"/>
      <point x="238" y="171" type="qcurve"/>
      <point x="256" y="171"/>
      <point x="266" y="221"/>
    </contour>
  </outline>
</glyph>
<glyph name="one" format="1">
  <advance width="312.0"/>
  <unicode hex="0031"/>
  <outline>
    <contour>
      <point x="290" y="0" type="line"/>
      <point x="97" y="0" type="line"/>
      <point x="97" y="442" type="line"/>
      <point x="6" y="428" type="line"/>
      <point x="6" y="601" type="line"/>
      <point x="290" y="637" type="line"/>
    </contour>
  </outline>
</glyph>
<glyph name="two" format="1">
  <advance width="386.0"/>
  <unicode hex="0032"/>
  <outline>
    <contour>
      <point x="365" y="183" type="line"/>
      <point x="365" y="0" type="line"/>
      <point x="9" y="0" type="line"/>
      <point x="9" y="183" type="line"/>
      <point x="168" y="378" type="line" smooth="yes"/>
      <point x="180" y="393"/>
      <point x="189" y="413"/>
      <point x="189" y="428" type="qcurve" smooth="yes"/>
      <point x="189" y="442"/>
      <point x="175" y="455"/>
      <point x="160" y="455" type="qcurve" smooth="yes"/>
      <point x="139" y="455"/>
      <point x="86" y="448"/>
      <point x="31" y="437" type="qcurve"/>
      <point x="31" y="612" type="line"/>
      <point x="63" y="623"/>
      <point x="166" y="637"/>
      <point x="215" y="637" type="qcurve" smooth="yes"/>
      <point x="289" y="637"/>
      <point x="373" y="549"/>
      <point x="373" y="472" type="qcurve" smooth="yes"/>
      <point x="373" y="419"/>
      <point x="349" y="342"/>
      <point x="319" y="304" type="qcurve"/>
      <point x="225" y="183" type="line"/>
    </contour>
  </outline>
</glyph>
<glyph name="three" format="1">
  <advance width="380.0"/>
  <unicode hex="0033"/>
  <outline>
    <contour>
      <point x="353" y="476" type="qcurve" smooth="yes"/>
      <point x="353" y="415"/>
      <point x="317" y="344"/>
      <point x="278" y="330" type="qcurve"/>
      <point x="278" y="328" type="line"/>
      <point x="324" y="322"/>
      <point x="369" y="250"/>
      <point x="369" y="181" type="qcurve"/>
      <point x="369" y="90"/>
      <point x="265" y="-12"/>
      <point x="175" y="-12" type="qcurve"/>
      <point x="125" y="-12"/>
      <point x="34" y="0"/>
      <point x="14" y="9" type="qcurve"/>
      <point x="14" y="180" type="line"/>
      <point x="43" y="174"/>
      <point x="111" y="168"/>
      <point x="148" y="168" type="qcurve"/>
      <point x="170" y="168"/>
      <point x="189" y="185"/>
      <point x="189" y="207" type="qcurve" smooth="yes"/>
      <point x="189" y="224"/>
      <point x="177" y="239"/>
      <point x="162" y="239" type="qcurve"/>
      <point x="58" y="239" type="line"/>
      <point x="58" y="398" type="line"/>
      <point x="141" y="398" type="line"/>
      <point x="158" y="398"/>
      <point x="173" y="412"/>
      <point x="173" y="431" type="qcurve" smooth="yes"/>
      <point x="173" y="451"/>
      <point x="156" y="463"/>
      <point x="134" y="463" type="qcurve" smooth="yes"/>
      <point x="116" y="463"/>
      <point x="50" y="454"/>
      <point x="19" y="448" type="qcurve"/>
      <point x="19" y="611" type="line"/>
      <point x="47" y="622"/>
      <point x="150" y="637"/>
      <point x="195" y="637" type="qcurve"/>
      <point x="275" y="637"/>
      <point x="353" y="557"/>
    </contour>
  </outline>
</glyph>
<glyph name="four" format="1">
  <advance width="440.0"/>
  <unicode hex="0034"/>
  <outline>
    <contour>
      <point x="433" y="299" type="line"/>
      <point x="433" y="128" type="line"/>
      <point x="393" y="128" type="line"/>
      <point x="393" y="0" type="line"/>
      <point x="200" y="0" type="line"/>
      <point x="200" y="128" type="line"/>
      <point x="11" y="128" type="line"/>
      <point x="11" y="299" type="line"/>
      <point x="65" y="625" type="line"/>
      <point x="243" y="625" type="line"/>
      <point x="197" y="299" type="line"/>
      <point x="218" y="299" type="line"/>
      <point x="248" y="517" type="line"/>
      <point x="393" y="517" type="line"/>
      <point x="393" y="299" type="line"/>
    </contour>
  </outline>
</glyph>
<glyph name="five" format="1">
  <advance width="380.0"/>
  <unicode hex="0035"/>
  <outline>
    <contour>
      <point x="369" y="201" type="qcurve"/>
      <point x="369" y="98"/>
      <point x="268" y="-12"/>
      <point x="177" y="-12" type="qcurve"/>
      <point x="124" y="-12"/>
      <point x="34" y="0"/>
      <point x="15" y="9" type="qcurve"/>
      <point x="15" y="178" type="line"/>
      <point x="45" y="172"/>
      <point x="104" y="167"/>
      <point x="138" y="167" type="qcurve"/>
      <point x="160" y="167"/>
      <point x="177" y="184"/>
      <point x="177" y="208" type="qcurve" smooth="yes"/>
      <point x="177" y="228"/>
      <point x="157" y="242"/>
      <point x="132" y="242" type="qcurve"/>
      <point x="102" y="242"/>
      <point x="54" y="238"/>
      <point x="29" y="234" type="qcurve"/>
      <point x="29" y="625" type="line"/>
      <point x="336" y="625" type="line"/>
      <point x="336" y="448" type="line"/>
      <point x="222" y="448" type="line"/>
      <point x="222" y="385" type="line"/>
      <point x="228" y="386"/>
      <point x="250" y="388"/>
      <point x="258" y="388" type="qcurve" smooth="yes"/>
      <point x="317" y="388"/>
      <point x="369" y="298"/>
    </contour>
  </outline>
</glyph>
<glyph name="six" format="1">
  <advance width="425.0"/>
  <unicode hex="0036"/>
  <outline>
    <contour>
      <point x="225" y="-12" type="qcurve"/>
      <point x="107" y="-12"/>
      <point x="13" y="125"/>
      <point x="13" y="296" type="qcurve"/>
      <point x="13" y="467"/>
      <point x="144" y="637"/>
      <point x="277" y="637" type="qcurve"/>
      <point x="307" y="637"/>
      <point x="364" y="631"/>
      <point x="376" y="627" type="qcurve"/>
      <point x="376" y="464" type="line"/>
      <point x="352" y="468"/>
      <point x="313" y="471"/>
      <point x="290" y="471" type="qcurve"/>
      <point x="246" y="471"/>
      <point x="210" y="438"/>
      <point x="204" y="394" type="qcurve"/>
      <point x="222" y="403"/>
      <point x="264" y="414"/>
      <point x="284" y="414" type="qcurve"/>
      <point x="351" y="414"/>
      <point x="416" y="316"/>
      <point x="416" y="215" type="qcurve"/>
      <point x="416" y="105"/>
      <point x="318" y="-12"/>
    </contour>
    <contour>
      <point x="242" y="210" type="qcurve"/>
      <point x="242" y="240"/>
      <point x="232" y="265"/>
      <point x="219" y="265" type="qcurve"/>
      <point x="215" y="265"/>
      <point x="205" y="262"/>
      <point x="199" y="259" type="qcurve"/>
      <point x="200" y="194"/>
      <point x="208" y="153"/>
      <point x="221" y="153" type="qcurve"/>
      <point x="231" y="153"/>
      <point x="242" y="182"/>
    </contour>
  </outline>
</glyph>
<glyph name="seven" format="1">
  <advance width="379.0"/>
  <unicode hex="0037"/>
  <outline>
    <contour>
      <point x="370" y="625" type="line"/>
      <point x="370" y="448" type="line"/>
      <point x="216" y="0" type="line"/>
      <point x="-3" y="0" type="line"/>
      <point x="164" y="443" type="line"/>
      <point x="18" y="443" type="line"/>
      <point x="18" y="625" type="line"/>
    </contour>
  </outline>
</glyph>
<glyph name="eight" format="1">
  <advance width="427.0"/>
  <unicode hex="0038"/>
  <outline>
    <contour>
      <point x="415" y="169" type="qcurve"/>
      <point x="415" y="78"/>
      <point x="315" y="-12"/>
      <point x="214" y="-12" type="qcurve"/>
      <point x="107" y="-12"/>
      <point x="12" y="74"/>
      <point x="12" y="172" type="qcurve"/>
      <point x="12" y="230"/>
      <point x="51" y="307"/>
      <point x="88" y="324" type="qcurve"/>
      <point x="52" y="343"/>
      <point x="20" y="411"/>
      <point x="21" y="468" type="qcurve"/>
      <point x="21" y="553"/>
      <point x="117" y="637"/>
      <point x="214" y="637" type="qcurve"/>
      <point x="316" y="637"/>
      <point x="406" y="558"/>
      <point x="406" y="467" type="qcurve"/>
      <point x="406" y="409"/>
      <point x="374" y="342"/>
      <point x="340" y="324" type="qcurve"/>
      <point x="377" y="307"/>
      <point x="415" y="228"/>
    </contour>
    <contour>
      <point x="240" y="438" type="qcurve"/>
      <point x="240" y="461"/>
      <point x="227" y="483"/>
      <point x="214" y="483" type="qcurve"/>
      <point x="200" y="483"/>
      <point x="188" y="461"/>
      <point x="188" y="438" type="qcurve"/>
      <point x="188" y="414"/>
      <point x="201" y="392"/>
      <point x="214" y="392" type="qcurve"/>
      <point x="227" y="392"/>
      <point x="240" y="414"/>
    </contour>
    <contour>
      <point x="240" y="197" type="qcurve"/>
      <point x="240" y="221"/>
      <point x="228" y="243"/>
      <point x="214" y="243" type="qcurve"/>
      <point x="201" y="243"/>
      <point x="188" y="220"/>
      <point x="188" y="197" type="qcurve"/>
      <point x="188" y="172"/>
      <point x="200" y="149"/>
      <point x="214" y="149" type="qcurve"/>
      <point x="228" y="149"/>
      <point x="240" y="171"/>
    </contour>
  </outline>
</glyph>
<glyph name="nine" format="1">
  <advance width="426.0"/>
  <unicode hex="0039"/>
  <outline>
    <contour>
      <point x="200" y="637" type="qcurve"/>
      <point x="318" y="637"/>
      <point x="413" y="499"/>
      <point x="413" y="328" type="qcurve"/>
      <point x="413" y="157"/>
      <point x="281" y="-12"/>
      <point x="148" y="-12" type="qcurve"/>
      <point x="117" y="-12"/>
      <point x="61" y="-6"/>
      <point x="50" y="-1" type="qcurve"/>
      <point x="50" y="162" type="line"/>
      <point x="68" y="159"/>
      <point x="109" y="156"/>
      <point x="135" y="156" type="qcurve"/>
      <point x="179" y="156"/>
      <point x="215" y="188"/>
      <point x="221" y="230" type="qcurve"/>
      <point x="202" y="221"/>
      <point x="162" y="211"/>
      <point x="141" y="211" type="qcurve"/>
      <point x="74" y="211"/>
      <point x="9" y="308"/>
      <point x="9" y="409" type="qcurve"/>
      <point x="9" y="519"/>
      <point x="107" y="637"/>
    </contour>
    <contour>
      <point x="203" y="472" type="qcurve"/>
      <point x="193" y="472"/>
      <point x="183" y="442"/>
      <point x="183" y="413" type="qcurve"/>
      <point x="183" y="384"/>
      <point x="193" y="358"/>
      <point x="206" y="358" type="qcurve"/>
      <point x="209" y="358"/>
      <point x="218" y="361"/>
      <point x="226" y="365" type="qcurve"/>
      <point x="226" y="443"/>
      <point x="218" y="472"/>
    </contour>
  </outline>
</glyph>
<glyph name="less" format="1">
  <advance width="500.0"/>
  <unicode hex="003C"/>
  <outline>
    <contour>
      <point x="427" y="239" type="line"/>
      <point x="427" y="76" type="line"/>
      <point x="73" y="223" type="line"/>
      <point x="73" y="401" type="line"/>
      <point x="427" y="548" type="line"/>
      <point x="427" y="388" type="line"/>
      <point x="208" y="314" type="line"/>
    </contour>
  </outline>
</glyph>
<glyph name="question" format="1">
  <advance width="310.0"/>
  <unicode hex="003F"/>
  <outline>
    <contour>
      <point x="157" y="635" type="qcurve"/>
      <point x="228" y="635"/>
      <point x="304" y="563"/>
      <point x="304" y="495" type="qcurve" smooth="yes"/>
      <point x="304" y="441"/>
      <point x="266" y="362"/>
      <point x="219" y="322" type="qcurve"/>
      <point x="219" y="201" type="line"/>
      <point x="51" y="201" type="line"/>
      <point x="51" y="363" type="line"/>
      <point x="99" y="389"/>
      <point x="136" y="425"/>
      <point x="136" y="444" type="qcurve" smooth="yes"/>
      <point x="136" y="457"/>
      <point x="122" y="469"/>
      <point x="106" y="469" type="qcurve"/>
      <point x="87" y="469"/>
      <point x="42" y="458"/>
      <point x="13" y="445" type="qcurve"/>
      <point x="13" y="607" type="line"/>
      <point x="45" y="621"/>
      <point x="117" y="635"/>
    </contour>
    <contour>
      <point x="231" y="166" type="line"/>
      <point x="231" y="0" type="line"/>
      <point x="39" y="0" type="line"/>
      <point x="39" y="166" type="line"/>
    </contour>
  </outline>
</glyph>
<glyph name="at" format="1">
  <advance width="506.0"/>
  <unicode hex="0040"/>
  <outline>
    <contour>
      <point x="233" y="84" type="qcurve"/>
      <point x="193" y="84"/>
      <point x="155" y="131"/>
      <point x="155" y="181" type="qcurve"/>
      <point x="155" y="234"/>
      <point x="196" y="275"/>
      <point x="248" y="275" type="qcurve"/>
      <point x="255" y="275"/>
      <point x="268" y="273"/>
      <point x="274" y="272" type="qcurve"/>
      <point x="274" y="285" type="line" smooth="yes"/>
      <point x="274" y="297"/>
      <point x="263" y="307"/>
      <point x="250" y="307" type="qcurve"/>
      <point x="230" y="307"/>
      <point x="188" y="303"/>
      <point x="174" y="300" type="qcurve"/>
      <point x="174" y="388" type="line"/>
      <point x="197" y="394"/>
      <point x="251" y="399"/>
      <point x="282" y="399" type="qcurve"/>
      <point x="324" y="399"/>
      <point x="372" y="348"/>
      <point x="372" y="301" type="qcurve"/>
      <point x="372" y="189" type="line" smooth="yes"/>
      <point x="372" y="183"/>
      <point x="374" y="176"/>
      <point x="376" y="176" type="qcurve"/>
      <point x="384" y="176"/>
      <point x="398" y="242"/>
      <point x="398" y="288" type="qcurve" smooth="yes"/>
      <point x="398" y="367"/>
      <point x="332" y="452"/>
      <point x="270" y="452" type="qcurve"/>
      <point x="188" y="452"/>
      <point x="122" y="357"/>
      <point x="122" y="240" type="qcurve" smooth="yes"/>
      <point x="122" y="132"/>
      <point x="204" y="33"/>
      <point x="297" y="33" type="qcurve"/>
      <point x="328" y="33"/>
      <point x="398" y="52"/>
      <point x="422" y="69" type="qcurve"/>
      <point x="422" y="-36" type="line"/>
      <point x="394" y="-56"/>
      <point x="318" y="-76"/>
      <point x="269" y="-76" type="qcurve"/>
      <point x="143" y="-76"/>
      <point x="7" y="87"/>
      <point x="7" y="241" type="qcurve" smooth="yes"/>
      <point x="7" y="393"/>
      <point x="143" y="557"/>
      <point x="268" y="557" type="qcurve"/>
      <point x="382" y="557"/>
      <point x="507" y="424"/>
      <point x="507" y="301" type="qcurve" smooth="yes"/>
      <point x="507" y="208"/>
      <point x="424" y="84"/>
      <point x="362" y="84" type="qcurve"/>
      <point x="343" y="84"/>
      <point x="317" y="103"/>
      <point x="310" y="122" type="qcurve"/>
      <point x="296" y="105"/>
      <point x="253" y="84"/>
    </contour>
    <contour>
      <point x="263" y="209" type="qcurve"/>
      <point x="256" y="209"/>
      <point x="251" y="200"/>
      <point x="251" y="188" type="qcurve" smooth="yes"/>
      <point x="251" y="177"/>
      <point x="256" y="168"/>
      <point x="263" y="168" type="qcurve"/>
      <point x="265" y="168"/>
      <point x="268" y="168"/>
      <point x="274" y="170" type="qcurve"/>
      <point x="274" y="208" type="line"/>
      <point x="272" y="209"/>
      <point x="268" y="209"/>
    </contour>
  </outline>
</glyph>
<glyph name="A" format="1">
  <advance width="493.0"/>
  <unicode hex="0041"/>
  <outline>
    <contour>
      <point x="190" y="0" type="line"/>
      <point x="-4" y="0" type="line"/>
      <point x="109" y="625" type="line"/>
      <point x="390" y="625" type="line"/>
      <point x="496" y="0" type="line"/>
      <point x="303" y="0" type="line"/>
      <point x="292" y="92" type="line"/>
      <point x="200" y="92" type="line"/>
    </contour>
    <contour>
      <point x="246" y="480" type="qcurve"/>
      <point x="243" y="453"/>
      <point x="236" y="393"/>
      <point x="225" y="307" type="qcurve"/>
      <point x="219" y="253" type="line"/>
      <point x="273" y="253" type="line"/>
      <point x="267" y="306" type="line" smooth="yes"/>
      <point x="260" y="358"/>
      <point x="250" y="443"/>
    </contour>
    <contour>
      <point x="248.0" y="637" type="move" name="top"/>
    </contour>
    <contour>
      <point x="496.0" y="0" type="move" name="ogonek"/>
    </contour>
  </outline>
</glyph>
<glyph name="B" format="1">
  <advance width="442.0"/>
  <unicode hex="0042"/>
  <outline>
    <contour>
      <point x="438" y="186" type="qcurve" smooth="yes"/>
      <point x="438" y="93"/>
      <point x="337" y="0"/>
      <point x="236" y="0" type="qcurve"/>
      <point x="17" y="0" type="line"/>
      <point x="17" y="625" type="line"/>
      <point x="237" y="625" type="line" smooth="yes"/>
      <point x="327" y="625"/>
      <point x="410" y="546"/>
      <point x="410" y="461" type="qcurve" smooth="yes"/>
      <point x="410" y="407"/>
      <point x="386" y="345"/>
      <point x="359" y="332" type="qcurve"/>
      <point x="400" y="320"/>
      <point x="438" y="250"/>
    </contour>
    <contour>
      <point x="248" y="426" type="qcurve" smooth="yes"/>
      <point x="248" y="448"/>
      <point x="236" y="467"/>
      <point x="221" y="467" type="qcurve"/>
      <point x="201" y="467" type="line"/>
      <point x="201" y="381" type="line"/>
      <point x="221" y="381" type="line"/>
      <point x="236" y="381"/>
      <point x="248" y="401"/>
    </contour>
    <contour>
      <point x="249" y="208" type="qcurve" smooth="yes"/>
      <point x="249" y="233"/>
      <point x="238" y="251"/>
      <point x="224" y="251" type="qcurve"/>
      <point x="201" y="251" type="line"/>
      <point x="201" y="165" type="line"/>
      <point x="224" y="165" type="line"/>
      <point x="238" y="165"/>
      <point x="249" y="183"/>
    </contour>
  </outline>
</glyph>
<glyph name="C" format="1">
  <advance width="394.0"/>
  <unicode hex="0043"/>
  <outline>
    <contour>
      <point x="274" y="182" type="qcurve" smooth="yes"/>
      <point x="301" y="182"/>
      <point x="360" y="194"/>
      <point x="388" y="206" type="qcurve"/>
      <point x="388" y="24" type="line"/>
      <point x="355" y="6"/>
      <point x="280" y="-10"/>
      <point x="235" y="-10" type="qcurve" smooth="yes"/>
      <point x="157" y="-10"/>
      <point x="69" y="36"/>
      <point x="44" y="87" type="qcurve" smooth="yes"/>
      <point x="26" y="125"/>
      <point x="8" y="236"/>
      <point x="8" y="312" type="qcurve" smooth="yes"/>
      <point x="8" y="480"/>
      <point x="130" y="635"/>
      <point x="264" y="635" type="qcurve"/>
      <point x="299" y="635"/>
      <point x="347" y="631"/>
      <point x="376" y="626" type="qcurve"/>
      <point x="376" y="444" type="line"/>
      <point x="346" y="447"/>
      <point x="308" y="448"/>
      <point x="279" y="448" type="qcurve"/>
      <point x="236" y="448"/>
      <point x="208" y="391"/>
      <point x="208" y="312" type="qcurve" smooth="yes"/>
      <point x="208" y="235"/>
      <point x="233" y="182"/>
    </contour>
    <contour>
      <point x="242.0" y="647" type="move" name="top"/>
    </contour>
    <contour>
      <point x="228.0" y="0" type="move" name="bottom"/>
    </contour>
  </outline>
</glyph>
<glyph name="D" format="1">
  <advance width="476.0"/>
  <unicode hex="0044"/>
  <outline>
    <contour>
      <point x="219" y="0" type="qcurve"/>
      <point x="17" y="0" type="line"/>
      <point x="17" y="625" type="line"/>
      <point x="219" y="625" type="line" smooth="yes"/>
      <point x="360" y="625"/>
      <point x="468" y="483"/>
      <point x="468" y="313" type="qcurve" smooth="yes"/>
      <point x="468" y="150"/>
      <point x="349" y="0"/>
    </contour>
    <contour>
      <point x="268" y="313" type="qcurve" smooth="yes"/>
      <point x="268" y="399"/>
      <point x="251" y="454"/>
      <point x="219" y="454" type="qcurve"/>
      <point x="210" y="454" type="line"/>
      <point x="210" y="177" type="line"/>
      <point x="219" y="177" type="line" smooth="yes"/>
      <point x="250" y="177"/>
      <point x="268" y="230"/>
    </contour>
    <contour>
      <point x="213.0" y="637" type="move" name="top"/>
    </contour>
  </outline>
</glyph>
<glyph name="E" format="1">
  <advance width="390.0"/>
  <unicode hex="0045"/>
  <outline>
    <contour>
      <point x="380" y="185" type="line"/>
      <point x="380" y="0" type="line"/>
      <point x="17" y="0" type="line"/>
      <point x="17" y="625" type="line"/>
      <point x="373" y="625" type="line"/>
      <point x="373" y="445" type="line"/>
      <point x="210" y="445" type="line"/>
      <point x="210" y="401" type="line"/>
      <point x="342" y="401" type="line"/>
      <point x="342" y="230" type="line"/>
      <point x="210" y="230" type="line"/>
      <point x="210" y="185" type="line"/>
    </contour>
    <contour>
      <point x="203.0" y="637" type="move" name="top"/>
    </contour>
    <contour>
      <point x="376.0" y="0" type="move" name="ogonek"/>
    </contour>
  </outline>
</glyph>
<glyph name="F" format="1">
  <advance width="388.0"/>
  <unicode hex="0046"/>
  <outline>
    <contour>
      <point x="210" y="184" type="line"/>
      <point x="210" y="0" type="line"/>
      <point x="17" y="0" type="line"/>
      <point x="17" y="625" type="line"/>
      <point x="377" y="625" type="line"/>
      <point x="377" y="438" type="line"/>
      <point x="210" y="438" type="line"/>
      <point x="210" y="357" type="line"/>
      <point x="346" y="357" type="line"/>
      <point x="346" y="184" type="line"/>
    </contour>
  </outline>
</glyph>
<glyph name="G" format="1">
  <advance width="467.0"/>
  <unicode hex="0047"/>
  <outline>
    <contour>
      <point x="284" y="234" type="line"/>
      <point x="235" y="234" type="line"/>
      <point x="235" y="377" type="line"/>
      <point x="454" y="377" type="line"/>
      <point x="454" y="27" type="line"/>
      <point x="402" y="6"/>
      <point x="313" y="-10"/>
      <point x="261" y="-10" type="qcurve"/>
      <point x="121" y="-10"/>
      <point x="8" y="142"/>
      <point x="8" y="317" type="qcurve" smooth="yes"/>
      <point x="8" y="482"/>
      <point x="139" y="635"/>
      <point x="283" y="635" type="qcurve"/>
      <point x="319" y="635"/>
      <point x="392" y="629"/>
      <point x="427" y="624" type="qcurve"/>
      <point x="427" y="452" type="line"/>
      <point x="386" y="455"/>
      <point x="327" y="458"/>
      <point x="293" y="458" type="qcurve"/>
      <point x="243" y="458"/>
      <point x="207" y="395"/>
      <point x="207" y="317" type="qcurve" smooth="yes"/>
      <point x="207" y="224"/>
      <point x="230" y="159"/>
      <point x="266" y="159" type="qcurve" smooth="yes"/>
      <point x="273" y="159"/>
      <point x="281" y="159"/>
      <point x="284" y="160" type="qcurve"/>
    </contour>
    <contour>
      <point x="272.0" y="647" type="move" name="top"/>
    </contour>
    <contour>
      <point x="260.0" y="-10" type="move" name="bottom"/>
    </contour>
  </outline>
</glyph>
<glyph name="H" format="1">
  <advance width="491.0"/>
  <unicode hex="0048"/>
  <outline>
    <contour>
      <point x="210" y="0" type="line"/>
      <point x="17" y="0" type="line"/>
      <point x="17" y="625" type="line"/>
      <point x="210" y="625" type="line"/>
      <point x="210" y="410" type="line"/>
      <point x="281" y="410" type="line"/>
      <point x="281" y="625" type="line"/>
      <point x="474" y="625" type="line"/>
      <point x="474" y="0" type="line"/>
      <point x="281" y="0" type="line"/>
      <point x="281" y="224" type="line"/>
      <point x="210" y="224" type="line"/>
    </contour>
    <contour>
      <point x="245.0" y="637" type="move" name="top"/>
    </contour>
  </outline>
</glyph>
<glyph name="I" format="1">
  <advance width="227.0"/>
  <unicode hex="0049"/>
  <outline>
    <contour>
      <point x="210" y="625" type="line"/>
      <point x="210" y="0" type="line"/>
      <point x="17" y="0" type="line"/>
      <point x="17" y="625" type="line"/>
    </contour>
    <contour>
      <point x="113.0" y="637" type="move" name="top"/>
    </contour>
    <contour>
      <point x="209.0" y="0" type="move" name="ogonek"/>
    </contour>
  </outline>
</glyph>
<glyph name="J" format="1">
  <advance width="316.0"/>
  <unicode hex="004A"/>
  <outline>
    <contour>
      <point x="108" y="243" type="qcurve"/>
      <point x="108" y="625" type="line"/>
      <point x="301" y="625" type="line"/>
      <point x="301" y="237" type="line" smooth="yes"/>
      <point x="301" y="103"/>
      <point x="211" y="-10"/>
      <point x="103" y="-10" type="qcurve"/>
      <point x="73" y="-10"/>
      <point x="26" y="-5"/>
      <point x="9" y="0" type="qcurve"/>
      <point x="9" y="186" type="line"/>
      <point x="19" y="184"/>
      <point x="43" y="182"/>
      <point x="56" y="182" type="qcurve"/>
      <point x="86" y="182"/>
      <point x="108" y="208"/>
    </contour>
    <contour>
      <point x="202.0" y="637" type="move" name="top"/>
    </contour>
  </outline>
</glyph>
<glyph name="K" format="1">
  <advance width="509.0"/>
  <unicode hex="004B"/>
  <outline>
    <contour>
      <point x="395" y="323" type="line"/>
      <point x="521" y="0" type="line"/>
      <point x="292" y="0" type="line"/>
      <point x="225" y="235" type="line"/>
      <point x="210" y="235" type="line"/>
      <point x="210" y="0" type="line"/>
      <point x="17" y="0" type="line"/>
      <point x="17" y="625" type="line"/>
      <point x="210" y="625" type="line"/>
      <point x="210" y="398" type="line"/>
      <point x="225" y="398" type="line"/>
      <point x="298" y="625" type="line"/>
      <point x="517" y="625" type="line"/>
    </contour>
    <contour>
      <point x="247.0" y="0" type="move" name="bottom"/>
    </contour>
  </outline>
</glyph>
<glyph name="L" format="1">
  <advance width="363.0"/>
  <unicode hex="004C"/>
  <outline>
    <contour>
      <point x="354" y="193" type="line"/>
      <point x="354" y="0" type="line"/>
      <point x="17" y="0" type="line"/>
      <point x="17" y="625" type="line"/>
      <point x="210" y="625" type="line"/>
      <point x="210" y="193" type="line"/>
    </contour>
    <contour>
      <point x="114.0" y="637" type="move" name="top"/>
    </contour>
    <contour>
      <point x="236.0" y="625" type="move" name="caronalt"/>
    </contour>
    <contour>
      <point x="192.0" y="0" type="move" name="bottom"/>
    </contour>
  </outline>
</glyph>
<glyph name="M" format="1">
  <advance width="608.0"/>
  <unicode hex="004D"/>
  <outline>
    <contour>
      <point x="591" y="625" type="line"/>
      <point x="591" y="0" type="line"/>
      <point x="411" y="0" type="line"/>
      <point x="411" y="326" type="line"/>
      <point x="365" y="117" type="line"/>
      <point x="239" y="117" type="line"/>
      <point x="197" y="326" type="line"/>
      <point x="197" y="0" type="line"/>
      <point x="17" y="0" type="line"/>
      <point x="17" y="625" type="line"/>
      <point x="250" y="625" type="line"/>
      <point x="306" y="378" type="line"/>
      <point x="367" y="625" type="line"/>
    </contour>
  </outline>
</glyph>
<glyph name="N" format="1">
  <advance width="503.0"/>
  <unicode hex="004E"/>
  <outline>
    <contour>
      <point x="486" y="625" type="line"/>
      <point x="486" y="0" type="line"/>
      <point x="302" y="0" type="line"/>
      <point x="192" y="291" type="line"/>
      <point x="192" y="0" type="line"/>
      <point x="17" y="0" type="line"/>
      <point x="17" y="625" type="line"/>
      <point x="199" y="625" type="line"/>
      <point x="312" y="344" type="line"/>
      <point x="312" y="625" type="line"/>
    </contour>
    <contour>
      <point x="257.0" y="637" type="move" name="top"/>
    </contour>
    <contour>
      <point x="246.0" y="0" type="move" name="bottom"/>
    </contour>
  </outline>
</glyph>
<glyph name="O" format="1">
  <advance width="484.0"/>
  <unicode hex="004F"/>
  <outline>
    <contour>
      <point x="475" y="312" type="qcurve"/>
      <point x="475" y="139"/>
      <point x="367" y="-10"/>
      <point x="241" y="-10" type="qcurve"/>
      <point x="112" y="-10"/>
      <point x="9" y="133"/>
      <point x="9" y="312" type="qcurve"/>
      <point x="9" y="486"/>
      <point x="116" y="635"/>
      <point x="241" y="635" type="qcurve"/>
      <point x="371" y="635"/>
      <point x="475" y="491"/>
    </contour>
    <contour>
      <point x="204" y="312" type="qcurve"/>
      <point x="204" y="223"/>
      <point x="219" y="176"/>
      <point x="241" y="176" type="qcurve"/>
      <point x="264" y="176"/>
      <point x="280" y="225"/>
      <point x="280" y="312" type="qcurve"/>
      <point x="280" y="404"/>
      <point x="264" y="455"/>
      <point x="241" y="455" type="qcurve"/>
      <point x="219" y="455"/>
      <point x="204" y="406"/>
    </contour>
    <contour>
      <point x="241.0" y="645" type="move" name="top"/>
    </contour>
  </outline>
</glyph>
<glyph name="P" format="1">
  <advance width="461.0"/>
  <unicode hex="0050"/>
  <outline>
    <contour>
      <point x="210" y="162" type="line"/>
      <point x="210" y="0" type="line"/>
      <point x="17" y="0" type="line"/>
      <point x="17" y="625" type="line"/>
      <point x="214" y="625" type="line" smooth="yes"/>
      <point x="345" y="625"/>
      <point x="453" y="521"/>
      <point x="453" y="397" type="qcurve"/>
      <point x="453" y="276"/>
      <point x="338" y="162"/>
      <point x="216" y="162" type="qcurve"/>
    </contour>
    <contour>
      <point x="257" y="393" type="qcurve"/>
      <point x="257" y="422"/>
      <point x="241" y="448"/>
      <point x="222" y="448" type="qcurve"/>
      <point x="210" y="448" type="line"/>
      <point x="210" y="332" type="line"/>
      <point x="222" y="332" type="line"/>
      <point x="241" y="332"/>
      <point x="257" y="361"/>
    </contour>
  </outline>
</glyph>
<glyph name="Q" format="1">
  <advance width="484.0"/>
  <unicode hex="0051"/>
  <outline>
    <contour>
      <point x="241" y="635" type="qcurve"/>
      <point x="371" y="635"/>
      <point x="475" y="491"/>
      <point x="475" y="312" type="qcurve"/>
      <point x="475" y="211"/>
      <point x="441" y="82"/>
      <point x="405" y="45" type="qcurve"/>
      <point x="484" y="-128" type="line"/>
      <point x="276" y="-128" type="line"/>
      <point x="226" y="-10" type="line"/>
      <point x="106" y="-6"/>
      <point x="9" y="138"/>
      <point x="9" y="312" type="qcurve"/>
      <point x="9" y="486"/>
      <point x="116" y="635"/>
    </contour>
    <contour>
      <point x="204" y="312" type="qcurve"/>
      <point x="204" y="223"/>
      <point x="219" y="176"/>
      <point x="241" y="176" type="qcurve"/>
      <point x="264" y="176"/>
      <point x="280" y="225"/>
      <point x="280" y="312" type="qcurve"/>
      <point x="280" y="404"/>
      <point x="264" y="455"/>
      <point x="241" y="455" type="qcurve"/>
      <point x="219" y="455"/>
      <point x="204" y="406"/>
    </contour>
  </outline>
</glyph>
<glyph name="R" format="1">
  <advance width="482.0"/>
  <unicode hex="0052"/>
  <outline>
    <contour>
      <point x="210" y="193" type="line"/>
      <point x="210" y="0" type="line"/>
      <point x="17" y="0" type="line"/>
      <point x="17" y="625" type="line"/>
      <point x="222" y="625" type="line" smooth="yes"/>
      <point x="353" y="625"/>
      <point x="461" y="524"/>
      <point x="461" y="403" type="qcurve"/>
      <point x="461" y="341"/>
      <point x="427" y="257"/>
      <point x="391" y="232" type="qcurve"/>
      <point x="487" y="0" type="line"/>
      <point x="278" y="0" type="line"/>
      <point x="217" y="193" type="line"/>
    </contour>
    <contour>
      <point x="265" y="400" type="qcurve"/>
      <point x="265" y="426"/>
      <point x="251" y="451"/>
      <point x="236" y="451" type="qcurve"/>
      <point x="210" y="451" type="line"/>
      <point x="210" y="341" type="line"/>
      <point x="236" y="341" type="line" smooth="yes"/>
      <point x="252" y="341"/>
      <point x="265" y="369"/>
    </contour>
    <contour>
      <point x="215.0" y="637" type="move" name="top"/>
    </contour>
    <contour>
      <point x="238.0" y="0" type="move" name="bottom"/>
    </contour>
  </outline>
</glyph>
<glyph name="S" format="1">
  <advance width="406.0"/>
  <unicode hex="0053"/>
  <outline>
    <contour>
      <point x="197" y="215" type="qcurve"/>
      <point x="128" y="240" type="line" smooth="yes"/>
      <point x="60" y="264"/>
      <point x="10" y="349"/>
      <point x="10" y="423" type="qcurve" smooth="yes"/>
      <point x="10" y="532"/>
      <point x="105" y="635"/>
      <point x="207" y="635" type="qcurve" smooth="yes"/>
      <point x="255" y="635"/>
      <point x="337" y="625"/>
      <point x="361" y="617" type="qcurve"/>
      <point x="361" y="445" type="line"/>
      <point x="309" y="457"/>
      <point x="263" y="461"/>
      <point x="237" y="461" type="qcurve" smooth="yes"/>
      <point x="218" y="461"/>
      <point x="202" y="450"/>
      <point x="202" y="437" type="qcurve"/>
      <point x="202" y="429"/>
      <point x="208" y="421"/>
      <point x="217" y="418" type="qcurve"/>
      <point x="278" y="394" type="line" smooth="yes"/>
      <point x="329" y="374"/>
      <point x="368" y="346"/>
      <point x="379" y="326" type="qcurve" smooth="yes"/>
      <point x="391" y="306"/>
      <point x="401" y="247"/>
      <point x="401" y="204" type="qcurve" smooth="yes"/>
      <point x="401" y="91"/>
      <point x="297" y="-10"/>
      <point x="190" y="-10" type="qcurve" smooth="yes"/>
      <point x="140" y="-10"/>
      <point x="37" y="4"/>
      <point x="14" y="14" type="qcurve"/>
      <point x="14" y="197" type="line"/>
      <point x="51" y="184"/>
      <point x="131" y="170"/>
      <point x="170" y="170" type="qcurve" smooth="yes"/>
      <point x="196" y="170"/>
      <point x="213" y="180"/>
      <point x="213" y="194" type="qcurve"/>
      <point x="213" y="203"/>
      <point x="207" y="211"/>
    </contour>
    <contour>
      <point x="205.0" y="645" type="move" name="top"/>
    </contour>
    <contour>
      <point x="188.0" y="-10" type="move" name="bottom"/>
    </contour>
  </outline>
</glyph>
<glyph name="T" format="1">
  <advance width="427.0"/>
  <unicode hex="0054"/>
  <outline>
    <contour>
      <point x="418" y="625" type="line"/>
      <point x="418" y="438" type="line"/>
      <point x="310" y="438" type="line"/>
      <point x="310" y="0" type="line"/>
      <point x="117" y="0" type="line"/>
      <point x="117" y="438" type="line"/>
      <point x="9" y="438" type="line"/>
      <point x="9" y="625" type="line"/>
    </contour>
    <contour>
      <point x="214.0" y="637" type="move" name="top"/>
    </contour>
    <contour>
      <point x="214.0" y="0" type="move" name="bottom"/>
    </contour>
  </outline>
</glyph>
<glyph name="U" format="1">
  <advance width="510.0"/>
  <unicode hex="0055"/>
  <outline>
    <contour>
      <point x="303" y="271" type="qcurve"/>
      <point x="303" y="625" type="line"/>
      <point x="496" y="625" type="line"/>
      <point x="496" y="270" type="line" smooth="yes"/>
      <point x="496" y="133"/>
      <point x="374" y="-10"/>
      <point x="257" y="-10" type="qcurve"/>
      <point x="129" y="-10"/>
      <point x="14" y="123"/>
      <point x="14" y="270" type="qcurve"/>
      <point x="14" y="625" type="line"/>
      <point x="207" y="625" type="line"/>
      <point x="207" y="271" type="line" smooth="yes"/>
      <point x="207" y="213"/>
      <point x="227" y="176"/>
      <point x="256" y="176" type="qcurve"/>
      <point x="283" y="176"/>
      <point x="303" y="215"/>
    </contour>
    <contour>
      <point x="256.0" y="637.0" type="move" name="top"/>
    </contour>
    <contour>
      <point x="413.0" y="40.0" type="move" name="ogonekalt"/>
    </contour>
  </outline>
</glyph>
<glyph name="V" format="1">
  <advance width="527.0"/>
  <unicode hex="0056"/>
  <outline>
    <contour>
      <point x="138" y="0" type="line"/>
      <point x="-6" y="625" type="line"/>
      <point x="201" y="625" type="line"/>
      <point x="257" y="286" type="line" smooth="yes"/>
      <point x="259" y="274"/>
      <point x="268" y="205"/>
      <point x="269" y="199" type="qcurve"/>
      <point x="273" y="236"/>
      <point x="278" y="279"/>
      <point x="279" y="285" type="qcurve"/>
      <point x="332" y="625" type="line"/>
      <point x="533" y="625" type="line"/>
      <point x="391" y="0" type="line"/>
    </contour>
  </outline>
</glyph>
<glyph name="W" format="1">
  <advance width="696.0"/>
  <unicode hex="0057"/>
  <outline>
    <contour>
      <point x="104" y="0" type="line"/>
      <point x="-5" y="625" type="line"/>
      <point x="187" y="625" type="line"/>
      <point x="218" y="368" type="line" smooth="yes"/>
      <point x="218" y="364"/>
      <point x="220" y="352"/>
      <point x="221" y="338" type="qcurve" smooth="yes"/>
      <point x="224" y="312"/>
      <point x="227" y="281"/>
      <point x="228" y="267" type="qcurve"/>
      <point x="229" y="278"/>
      <point x="231" y="301"/>
      <point x="233" y="322" type="qcurve" smooth="yes"/>
      <point x="235" y="343"/>
      <point x="236" y="360"/>
      <point x="237" y="366" type="qcurve"/>
      <point x="259" y="625" type="line"/>
      <point x="443" y="625" type="line"/>
      <point x="467" y="368" type="line" smooth="yes"/>
      <point x="467" y="364"/>
      <point x="469" y="352"/>
      <point x="470" y="338" type="qcurve" smooth="yes"/>
      <point x="473" y="312"/>
      <point x="476" y="281"/>
      <point x="477" y="267" type="qcurve"/>
      <point x="478" y="281"/>
      <point x="481" y="311"/>
      <point x="486" y="366" type="qcurve"/>
      <point x="515" y="625" type="line"/>
      <point x="700" y="625" type="line"/>
      <point x="593" y="0" type="line"/>
      <point x="393" y="0" type="line"/>
      <point x="372" y="158" type="line" smooth="yes"/>
      <point x="369" y="182"/>
      <point x="361" y="239"/>
      <point x="348" y="343" type="qcurve"/>
      <point x="335" y="239"/>
      <point x="327" y="182"/>
      <point x="324" y="158" type="qcurve"/>
      <point x="303" y="0" type="line"/>
    </contour>
    <contour>
      <point x="348.0" y="637" type="move" name="top"/>
    </contour>
  </outline>
</glyph>
<glyph name="X" format="1">
  <advance width="519.0"/>
  <unicode hex="0058"/>
  <outline>
    <contour>
      <point x="376" y="326" type="line"/>
      <point x="533" y="0" type="line"/>
      <point x="298" y="0" type="line"/>
      <point x="245" y="175" type="line"/>
      <point x="196" y="0" type="line"/>
      <point x="-14" y="0" type="line"/>
      <point x="147" y="318" type="line"/>
      <point x="-2" y="625" type="line"/>
      <point x="235" y="625" type="line"/>
      <point x="275" y="474" type="line"/>
      <point x="313" y="625" type="line"/>
      <point x="516" y="625" type="line"/>
    </contour>
    <contour>
      <point x="271.0" y="637" type="move" name="top"/>
    </contour>
  </outline>
</glyph>
<glyph name="Y" format="1">
  <advance width="516.0"/>
  <unicode hex="0059"/>
  <outline>
    <contour>
      <point x="324" y="625" type="line"/>
      <point x="521" y="625" type="line"/>
      <point x="356" y="201" type="line"/>
      <point x="356" y="0" type="line"/>
      <point x="163" y="0" type="line"/>
      <point x="163" y="201" type="line"/>
      <point x="-6" y="625" type="line"/>
      <point x="211" y="625" type="line"/>
      <point x="264" y="397" type="line"/>
    </contour>
    <contour>
      <point x="263.0" y="637" type="move" name="top"/>
    </contour>
  </outline>
</glyph>
<glyph name="Z" format="1">
  <advance width="405.0"/>
  <unicode hex="005A"/>
  <outline>
    <contour>
      <point x="399" y="188" type="line"/>
      <point x="399" y="0" type="line"/>
      <point x="6" y="0" type="line"/>
      <point x="6" y="183" type="line"/>
      <point x="165" y="443" type="line"/>
      <point x="30" y="443" type="line"/>
      <point x="30" y="625" type="line"/>
      <point x="383" y="625" type="line"/>
      <point x="383" y="448" type="line"/>
      <point x="224" y="188" type="line"/>
    </contour>
    <contour>
      <point x="210.0" y="637" type="move" name="top"/>
    </contour>
  </outline>
</glyph>
<glyph name="bracketleft" format="1">
  <advance width="174.0"/>
  <unicode hex="005B"/>
  <outline>
    <contour>
      <point x="166" y="24" type="line"/>
      <point x="166" y="-80" type="line"/>
      <point x="16" y="-80" type="line"/>
      <point x="16" y="705" type="line"/>
      <point x="166" y="705" type="line"/>
      <point x="166" y="604" type="line"/>
      <point x="118" y="604" type="line"/>
      <point x="118" y="24" type="line"/>
    </contour>
  </outline>
</glyph>
<glyph name="bracketright" format="1">
  <advance width="174.0"/>
  <unicode hex="005D"/>
  <outline>
    <contour>
      <point x="158" y="-80" type="line"/>
      <point x="8" y="-80" type="line"/>
      <point x="8" y="24" type="line"/>
      <point x="56" y="24" type="line"/>
      <point x="56" y="604" type="line"/>
      <point x="8" y="604" type="line"/>
      <point x="8" y="705" type="line"/>
      <point x="158" y="705" type="line"/>
    </contour>
  </outline>
</glyph>
<glyph name="asciicircum" format="1">
  <advance width="500.0"/>
  <unicode hex="005E"/>
  <outline>
    <contour>
      <point x="216" y="365" type="line"/>
      <point x="87" y="365" type="line"/>
      <point x="182" y="627" type="line"/>
      <point x="317" y="627" type="line"/>
      <point x="413" y="365" type="line"/>
      <point x="281" y="365" type="line"/>
      <point x="249" y="475" type="line"/>
    </contour>
  </outline>
</glyph>
<glyph name="grave" format="1">
  <advance width="351.0"/>
  <unicode hex="0060"/>
  <outline>
    <contour>
      <point x="174" y="530" type="line"/>
      <point x="68" y="635" type="line"/>
      <point x="246" y="635" type="line"/>
      <point x="315" y="530" type="line"/>
    </contour>
    <contour>
      <point x="212" y="530" type="move" name="_top"/>
    </contour>
  </outline>
</glyph>
<glyph name="a" format="1">
  <advance width="406.0"/>
  <unicode hex="0061"/>
  <outline>
    <contour>
      <point x="107" y="-10" type="qcurve"/>
      <point x="54" y="-10"/>
      <point x="5" y="65"/>
      <point x="5" y="146" type="qcurve"/>
      <point x="5" y="224"/>
      <point x="75" y="303"/>
      <point x="144" y="303" type="qcurve"/>
      <point x="160" y="303"/>
      <point x="193" y="299"/>
      <point x="207" y="296" type="qcurve"/>
      <point x="207" y="297" type="line" smooth="yes"/>
      <point x="207" y="317"/>
      <point x="179" y="331"/>
      <point x="144" y="331" type="qcurve" smooth="yes"/>
      <point x="123" y="331"/>
      <point x="85" y="328"/>
      <point x="40" y="321" type="qcurve"/>
      <point x="40" y="486" type="line"/>
      <point x="73" y="495"/>
      <point x="164" y="504"/>
      <point x="212" y="504" type="qcurve"/>
      <point x="306" y="504"/>
      <point x="394" y="426"/>
      <point x="394" y="341" type="qcurve"/>
      <point x="394" y="0" type="line"/>
      <point x="217" y="0" type="line"/>
      <point x="213" y="38" type="line"/>
      <point x="211" y="38" type="line"/>
      <point x="187" y="12"/>
      <point x="138" y="-10"/>
    </contour>
    <contour>
      <point x="188" y="194" type="qcurve"/>
      <point x="176" y="194"/>
      <point x="166" y="179"/>
      <point x="166" y="162" type="qcurve" smooth="yes"/>
      <point x="166" y="142"/>
      <point x="175" y="129"/>
      <point x="187" y="129" type="qcurve"/>
      <point x="192" y="129"/>
      <point x="202" y="132"/>
      <point x="207" y="134" type="qcurve"/>
      <point x="207" y="192" type="line"/>
      <point x="197" y="193"/>
      <point x="191" y="194"/>
    </contour>
    <contour>
      <point x="214.0" y="520" type="move" name="top"/>
    </contour>
    <contour>
      <point x="394.0" y="0" type="move" name="ogonek"/>
    </contour>
  </outline>
</glyph>
<glyph name="b" format="1">
  <advance width="448.0"/>
  <unicode hex="0062"/>
  <outline>
    <contour>
      <point x="302" y="504" type="qcurve"/>
      <point x="379" y="504"/>
      <point x="441" y="393"/>
      <point x="441" y="252" type="qcurve"/>
      <point x="441" y="115"/>
      <point x="350" y="-10"/>
      <point x="250" y="-10" type="qcurve" smooth="yes"/>
      <point x="173" y="-10"/>
      <point x="58" y="4"/>
      <point x="13" y="18" type="qcurve"/>
      <point x="13" y="625" type="line"/>
      <point x="200" y="625" type="line"/>
      <point x="200" y="478" type="line"/>
      <point x="224" y="491"/>
      <point x="277" y="504"/>
    </contour>
    <contour>
      <point x="254" y="252" type="qcurve" smooth="yes"/>
      <point x="254" y="300"/>
      <point x="244" y="333"/>
      <point x="228" y="333" type="qcurve"/>
      <point x="222" y="333"/>
      <point x="209" y="330"/>
      <point x="200" y="327" type="qcurve"/>
      <point x="200" y="167" type="line"/>
      <point x="209" y="166"/>
      <point x="221" y="165"/>
      <point x="226" y="165" type="qcurve"/>
      <point x="243" y="165"/>
      <point x="254" y="200"/>
    </contour>
  </outline>
</glyph>
<glyph name="c" format="1">
  <advance width="329.0"/>
  <unicode hex="0063"/>
  <outline>
    <contour>
      <point x="324" y="186" type="qcurve"/>
      <point x="324" y="26" type="line"/>
      <point x="306" y="12"/>
      <point x="219" y="-10"/>
      <point x="173" y="-10" type="qcurve" smooth="yes"/>
      <point x="81" y="-10"/>
      <point x="7" y="105"/>
      <point x="7" y="246" type="qcurve" smooth="yes"/>
      <point x="7" y="391"/>
      <point x="99" y="504"/>
      <point x="215" y="504" type="qcurve"/>
      <point x="236" y="504"/>
      <point x="290" y="499"/>
      <point x="313" y="495" type="qcurve"/>
      <point x="313" y="324" type="line"/>
      <point x="288" y="326"/>
      <point x="253" y="328"/>
      <point x="234" y="328" type="qcurve"/>
      <point x="209" y="328"/>
      <point x="194" y="295"/>
      <point x="194" y="246" type="qcurve" smooth="yes"/>
      <point x="194" y="202"/>
      <point x="213" y="171"/>
      <point x="241" y="171" type="qcurve"/>
      <point x="260" y="171"/>
      <point x="303" y="179"/>
    </contour>
    <contour>
      <point x="204.0" y="520" type="move" name="top"/>
    </contour>
    <contour>
      <point x="181.0" y="0" type="move" name="bottom"/>
    </contour>
  </outline>
</glyph>
<glyph name="d" format="1">
  <advance width="449.0"/>
  <unicode hex="0064"/>
  <outline>
    <contour>
      <point x="248" y="625" type="line"/>
      <point x="435" y="625" type="line"/>
      <point x="435" y="0" type="line"/>
      <point x="270" y="0" type="line"/>
      <point x="260" y="44" type="line"/>
      <point x="256" y="44" type="line"/>
      <point x="238" y="17"/>
      <point x="182" y="-10"/>
      <point x="144" y="-10" type="qcurve"/>
      <point x="70" y="-10"/>
      <point x="7" y="107"/>
      <point x="7" y="246" type="qcurve"/>
      <point x="7" y="379"/>
      <point x="89" y="504"/>
      <point x="177" y="504" type="qcurve"/>
      <point x="194" y="504"/>
      <point x="231" y="500"/>
      <point x="248" y="496" type="qcurve"/>
    </contour>
    <contour>
      <point x="223" y="333" type="qcurve"/>
      <point x="206" y="333"/>
      <point x="194" y="295"/>
      <point x="194" y="247" type="qcurve"/>
      <point x="194" y="200"/>
      <point x="205" y="165"/>
      <point x="221" y="165" type="qcurve" smooth="yes"/>
      <point x="228" y="165"/>
      <point x="241" y="167"/>
      <point x="248" y="170" type="qcurve"/>
      <point x="248" y="331" type="line"/>
      <point x="241" y="332"/>
      <point x="229" y="333"/>
    </contour>
    <contour>
      <point x="456.0" y="625" type="move" name="caronalt"/>
    </contour>
  </outline>
</glyph>
<glyph name="e" format="1">
  <advance width="405.0"/>
  <unicode hex="0065"/>
  <outline>
    <contour>
      <point x="380" y="177" type="qcurve"/>
      <point x="380" y="25" type="line"/>
      <point x="360" y="11"/>
      <point x="258" y="-10"/>
      <point x="199" y="-10" type="qcurve"/>
      <point x="97" y="-10"/>
      <point x="7" y="109"/>
      <point x="7" y="245" type="qcurve" smooth="yes"/>
      <point x="7" y="379"/>
      <point x="105" y="504"/>
      <point x="209" y="504" type="qcurve"/>
      <point x="311" y="504"/>
      <point x="398" y="415"/>
      <point x="398" y="302" type="qcurve" smooth="yes"/>
      <point x="398" y="268"/>
      <point x="396" y="223"/>
      <point x="394" y="194" type="qcurve"/>
      <point x="190" y="194" type="line"/>
      <point x="190" y="174"/>
      <point x="206" y="161"/>
      <point x="229" y="161" type="qcurve"/>
      <point x="270" y="161"/>
      <point x="356" y="171"/>
    </contour>
    <contour>
      <point x="213" y="358" type="qcurve"/>
      <point x="200" y="358"/>
      <point x="190" y="338"/>
      <point x="190" y="296" type="qcurve"/>
      <point x="234" y="296" type="line"/>
      <point x="234" y="319" type="line" smooth="yes"/>
      <point x="234" y="342"/>
      <point x="224" y="358"/>
    </contour>
    <contour>
      <point x="209.0" y="520" type="move" name="top"/>
    </contour>
    <contour>
      <point x="349.0" y="11" type="move" name="ogonekalt"/>
    </contour>
  </outline>
</glyph>
<glyph name="f" format="1">
  <advance width="298.0"/>
  <unicode hex="0066"/>
  <outline>
    <contour>
      <point x="41" y="296" type="line"/>
      <point x="7" y="296" type="line"/>
      <point x="7" y="454" type="line"/>
      <point x="41" y="454" type="line"/>
      <point x="41" y="489" type="line"/>
      <point x="41" y="561"/>
      <point x="122" y="635"/>
      <point x="200" y="635" type="qcurve" smooth="yes"/>
      <point x="233" y="635"/>
      <point x="287" y="630"/>
      <point x="309" y="625" type="qcurve"/>
      <point x="309" y="485" type="line"/>
      <point x="301" y="487"/>
      <point x="271" y="490"/>
      <point x="261" y="490" type="qcurve"/>
      <point x="240" y="490"/>
      <point x="228" y="477"/>
      <point x="228" y="458" type="qcurve"/>
      <point x="228" y="454" type="line"/>
      <point x="296" y="454" type="line"/>
      <point x="296" y="296" type="line"/>
      <point x="228" y="296" type="line"/>
      <point x="228" y="0" type="line"/>
      <point x="41" y="0" type="line"/>
    </contour>
  </outline>
</glyph>
<glyph name="g" format="1">
  <advance width="442.0"/>
  <unicode hex="0067"/>
  <outline>
    <contour>
      <point x="211" y="-162" type="qcurve"/>
      <point x="165" y="-162"/>
      <point x="81" y="-148"/>
      <point x="52" y="-136" type="qcurve"/>
      <point x="52" y="17" type="line"/>
      <point x="70" y="11"/>
      <point x="150" y="2"/>
      <point x="188" y="2" type="qcurve"/>
      <point x="219" y="2"/>
      <point x="240" y="20"/>
      <point x="242" y="48" type="qcurve"/>
      <point x="242" y="69" type="line"/>
      <point x="216" y="57"/>
      <point x="170" y="45"/>
      <point x="149" y="45" type="qcurve" smooth="yes"/>
      <point x="71" y="45"/>
      <point x="6" y="148"/>
      <point x="6" y="269" type="qcurve" smooth="yes"/>
      <point x="6" y="395"/>
      <point x="106" y="504"/>
      <point x="221" y="504" type="qcurve" smooth="yes"/>
      <point x="268" y="504"/>
      <point x="400" y="492"/>
      <point x="429" y="485" type="qcurve"/>
      <point x="429" y="109" type="line" smooth="yes"/>
      <point x="429" y="-41"/>
      <point x="332" y="-162"/>
    </contour>
    <contour>
      <point x="218" y="336" type="qcurve"/>
      <point x="198" y="336"/>
      <point x="187" y="312"/>
      <point x="187" y="270" type="qcurve" smooth="yes"/>
      <point x="187" y="233"/>
      <point x="197" y="210"/>
      <point x="212" y="210" type="qcurve" smooth="yes"/>
      <point x="220" y="210"/>
      <point x="235" y="213"/>
      <point x="242" y="216" type="qcurve"/>
      <point x="242" y="334" type="line"/>
      <point x="233" y="335"/>
      <point x="223" y="336"/>
    </contour>
    <contour>
      <point x="227.0" y="520" type="move" name="top"/>
    </contour>
  </outline>
</glyph>
<glyph name="h" format="1">
  <advance width="430.0"/>
  <unicode hex="0068"/>
  <outline>
    <contour>
      <point x="201" y="0" type="line"/>
      <point x="14" y="0" type="line"/>
      <point x="14" y="625" type="line"/>
      <point x="201" y="625" type="line"/>
      <point x="201" y="462" type="line"/>
      <point x="223" y="483"/>
      <point x="276" y="504"/>
      <point x="306" y="504" type="qcurve"/>
      <point x="361" y="504"/>
      <point x="418" y="438"/>
      <point x="418" y="373" type="qcurve"/>
      <point x="418" y="0" type="line"/>
      <point x="231" y="0" type="line"/>
      <point x="231" y="311" type="line" smooth="yes"/>
      <point x="231" y="323"/>
      <point x="224" y="333"/>
      <point x="216" y="333" type="qcurve" smooth="yes"/>
      <point x="212" y="333"/>
      <point x="205" y="332"/>
      <point x="201" y="330" type="qcurve"/>
    </contour>
    <contour>
      <point x="108.0" y="637.0" type="move" name="top"/>
    </contour>
  </outline>
</glyph>
<glyph name="i" format="1">
  <advance width="215.0"/>
  <unicode hex="0069"/>
  <outline>
    <contour>
      <point x="203" y="520" type="line"/>
      <point x="12" y="520" type="line"/>
      <point x="12" y="625" type="line"/>
      <point x="203" y="625" type="line"/>
    </contour>
    <contour>
      <point x="201" y="0" type="line"/>
      <point x="14" y="0" type="line"/>
      <point x="14" y="494" type="line"/>
      <point x="201" y="494" type="line"/>
    </contour>
    <contour>
      <point x="201.0" y="0" type="move" name="ogonek"/>
    </contour>
  </outline>
</glyph>
<glyph name="j" format="1">
  <advance width="218.0"/>
  <unicode hex="006A"/>
  <outline>
    <contour>
      <point x="206" y="520" type="line"/>
      <point x="15" y="520" type="line"/>
      <point x="15" y="625" type="line"/>
      <point x="206" y="625" type="line"/>
    </contour>
    <contour>
      <point x="52" y="-162" type="qcurve" smooth="yes"/>
      <point x="33" y="-162"/>
      <point x="2" y="-159"/>
      <point x="-13" y="-156" type="qcurve"/>
      <point x="-13" y="-23" type="line"/>
      <point x="-9" y="-24"/>
      <point x="-5" y="-24"/>
      <point x="-1" y="-24" type="qcurve" smooth="yes"/>
      <point x="9" y="-24"/>
      <point x="17" y="-13"/>
      <point x="17" y="-1" type="qcurve"/>
      <point x="17" y="494" type="line"/>
      <point x="204" y="494" type="line"/>
      <point x="204" y="-7" type="line" smooth="yes"/>
      <point x="204" y="-81"/>
      <point x="123" y="-162"/>
    </contour>
  </outline>
</glyph>
<glyph name="k" format="1">
  <advance width="453.0"/>
  <unicode hex="006B"/>
  <outline>
    <contour>
      <point x="201" y="179" type="line"/>
      <point x="201" y="0" type="line"/>
      <point x="14" y="0" type="line"/>
      <point x="14" y="625" type="line"/>
      <point x="201" y="625" type="line"/>
      <point x="201" y="322" type="line"/>
      <point x="207" y="322" type="line"/>
      <point x="240" y="494" type="line"/>
      <point x="446" y="494" type="line"/>
      <point x="382" y="257" type="line"/>
      <point x="454" y="0" type="line"/>
      <point x="243" y="0" type="line"/>
      <point x="207" y="179" type="line"/>
    </contour>
    <contour>
      <point x="221.0" y="0" type="move" name="bottom"/>
    </contour>
  </outline>
</glyph>
<glyph name="l" format="1">
  <advance width="215.0"/>
  <unicode hex="006C"/>
  <outline>
    <contour>
      <point x="201" y="625" type="line"/>
      <point x="201" y="0" type="line"/>
      <point x="14" y="0" type="line"/>
      <point x="14" y="625" type="line"/>
    </contour>
    <contour>
      <point x="108.0" y="637" type="move" name="top"/>
    </contour>
    <contour>
      <point x="221.0" y="625" type="move" name="caronalt"/>
    </contour>
    <contour>
      <point x="108.0" y="0" type="move" name="bottom"/>
    </contour>
  </outline>
</glyph>
<glyph name="m" format="1">
  <advance width="642.0"/>
  <unicode hex="006D"/>
  <outline>
    <contour>
      <point x="201" y="0" type="line"/>
      <point x="14" y="0" type="line"/>
      <point x="14" y="494" type="line"/>
      <point x="175" y="494" type="line"/>
      <point x="184" y="451" type="line"/>
      <point x="188" y="451" type="line"/>
      <point x="212" y="478"/>
      <point x="268" y="504"/>
      <point x="301" y="504" type="qcurve" smooth="yes"/>
      <point x="334" y="504"/>
      <point x="381" y="478"/>
      <point x="395" y="451" type="qcurve"/>
      <point x="398" y="451" type="line"/>
      <point x="423" y="477"/>
      <point x="483" y="504"/>
      <point x="515" y="504" type="qcurve" smooth="yes"/>
      <point x="572" y="504"/>
      <point x="630" y="435"/>
      <point x="630" y="367" type="qcurve"/>
      <point x="630" y="0" type="line"/>
      <point x="443" y="0" type="line"/>
      <point x="443" y="313" type="line" smooth="yes"/>
      <point x="443" y="325"/>
      <point x="438" y="333"/>
      <point x="432" y="333" type="qcurve" smooth="yes"/>
      <point x="428" y="333"/>
      <point x="420" y="332"/>
      <point x="416" y="330" type="qcurve"/>
      <point x="416" y="0" type="line"/>
      <point x="229" y="0" type="line"/>
      <point x="229" y="313" type="line" smooth="yes"/>
      <point x="229" y="324"/>
      <point x="224" y="333"/>
      <point x="217" y="333" type="qcurve" smooth="yes"/>
      <point x="213" y="333"/>
      <point x="205" y="332"/>
      <point x="201" y="330" type="qcurve"/>
    </contour>
  </outline>
</glyph>
<glyph name="n" format="1">
  <advance width="430.0"/>
  <unicode hex="006E"/>
  <outline>
    <contour>
      <point x="201" y="0" type="line"/>
      <point x="14" y="0" type="line"/>
      <point x="14" y="494" type="line"/>
      <point x="176" y="494" type="line"/>
      <point x="182" y="441" type="line"/>
      <point x="187" y="441" type="line"/>
      <point x="213" y="474"/>
      <point x="271" y="504"/>
      <point x="307" y="504" type="qcurve"/>
      <point x="360" y="504"/>
      <point x="418" y="436"/>
      <point x="418" y="373" type="qcurve"/>
      <point x="418" y="0" type="line"/>
      <point x="231" y="0" type="line"/>
      <point x="231" y="311" type="line" smooth="yes"/>
      <point x="231" y="323"/>
      <point x="224" y="333"/>
      <point x="216" y="333" type="qcurve" smooth="yes"/>
      <point x="212" y="333"/>
      <point x="205" y="332"/>
      <point x="201" y="330" type="qcurve"/>
    </contour>
    <contour>
      <point x="216.0" y="520" type="move" name="top"/>
    </contour>
    <contour>
      <point x="-128.0" y="665" type="move" name="caronalt"/>
    </contour>
    <contour>
      <point x="215.0" y="0" type="move" name="bottom"/>
    </contour>
  </outline>
</glyph>
<glyph name="o" format="1">
  <advance width="442.0"/>
  <unicode hex="006F"/>
  <outline>
    <contour>
      <point x="435" y="246" type="qcurve"/>
      <point x="435" y="105"/>
      <point x="340" y="-10"/>
      <point x="221" y="-10" type="qcurve"/>
      <point x="105" y="-10"/>
      <point x="7" y="108"/>
      <point x="7" y="246" type="qcurve"/>
      <point x="7" y="388"/>
      <point x="102" y="504"/>
      <point x="221" y="504" type="qcurve"/>
      <point x="337" y="504"/>
      <point x="435" y="385"/>
    </contour>
    <contour>
      <point x="194" y="249" type="qcurve"/>
      <point x="194" y="196"/>
      <point x="204" y="165"/>
      <point x="221" y="165" type="qcurve"/>
      <point x="238" y="165"/>
      <point x="248" y="196"/>
      <point x="248" y="249" type="qcurve"/>
      <point x="248" y="302"/>
      <point x="238" y="333"/>
      <point x="221" y="333" type="qcurve"/>
      <point x="204" y="333"/>
      <point x="194" y="302"/>
    </contour>
    <contour>
      <point x="221.0" y="520" type="move" name="top"/>
    </contour>
  </outline>
</glyph>
<glyph name="p" format="1">
  <advance width="449.0"/>
  <unicode hex="0070"/>
  <outline>
    <contour>
      <point x="201" y="-152" type="line"/>
      <point x="14" y="-152" type="line"/>
      <point x="14" y="494" type="line"/>
      <point x="179" y="494" type="line"/>
      <point x="188" y="447" type="line"/>
      <point x="194" y="447" type="line"/>
      <point x="214" y="476"/>
      <point x="269" y="504"/>
      <point x="307" y="504" type="qcurve"/>
      <point x="381" y="504"/>
      <point x="442" y="390"/>
      <point x="442" y="247" type="qcurve"/>
      <point x="442" y="114"/>
      <point x="360" y="-10"/>
      <point x="272" y="-10" type="qcurve" smooth="yes"/>
      <point x="254" y="-10"/>
      <point x="217" y="-5"/>
      <point x="201" y="-1" type="qcurve"/>
    </contour>
    <contour>
      <point x="255" y="248" type="qcurve"/>
      <point x="255" y="296"/>
      <point x="244" y="333"/>
      <point x="228" y="333" type="qcurve" smooth="yes"/>
      <point x="221" y="333"/>
      <point x="208" y="330"/>
      <point x="201" y="326" type="qcurve"/>
      <point x="201" y="168" type="line"/>
      <point x="206" y="167"/>
      <point x="219" y="165"/>
      <point x="226" y="165" type="qcurve"/>
      <point x="243" y="165"/>
      <point x="255" y="203"/>
    </contour>
  </outline>
</glyph>
<glyph name="q" format="1">
  <advance width="448.0"/>
  <unicode hex="0071"/>
  <outline>
    <contour>
      <point x="435" y="485" type="line"/>
      <point x="435" y="-152" type="line"/>
      <point x="248" y="-152" type="line"/>
      <point x="248" y="22" type="line"/>
      <point x="229" y="6"/>
      <point x="180" y="-10"/>
      <point x="148" y="-10" type="qcurve" smooth="yes"/>
      <point x="72" y="-10"/>
      <point x="7" y="107"/>
      <point x="7" y="248" type="qcurve" smooth="yes"/>
      <point x="7" y="382"/>
      <point x="108" y="504"/>
      <point x="220" y="504" type="qcurve" smooth="yes"/>
      <point x="261" y="504"/>
      <point x="380" y="493"/>
      <point x="434" y="485" type="qcurve"/>
    </contour>
    <contour>
      <point x="224" y="333" type="qcurve"/>
      <point x="207" y="333"/>
      <point x="194" y="293"/>
      <point x="194" y="247" type="qcurve" smooth="yes"/>
      <point x="194" y="201"/>
      <point x="205" y="165"/>
      <point x="222" y="165" type="qcurve" smooth="yes"/>
      <point x="228" y="165"/>
      <point x="241" y="168"/>
      <point x="248" y="170" type="qcurve"/>
      <point x="248" y="331" type="line"/>
      <point x="240" y="332"/>
      <point x="229" y="333"/>
    </contour>
  </outline>
</glyph>
<glyph name="r" format="1">
  <advance width="299.0"/>
  <unicode hex="0072"/>
  <outline>
    <contour>
      <point x="201" y="0" type="line"/>
      <point x="14" y="0" type="line"/>
      <point x="14" y="494" type="line"/>
      <point x="189" y="494" type="line"/>
      <point x="195" y="456" type="line"/>
      <point x="198" y="456" type="line"/>
      <point x="212" y="479"/>
      <point x="250" y="504"/>
      <point x="272" y="504" type="qcurve"/>
      <point x="281" y="504"/>
      <point x="290" y="504"/>
      <point x="294" y="503" type="qcurve"/>
      <point x="294" y="319" type="line"/>
      <point x="290" y="320"/>
      <point x="274" y="322"/>
      <point x="263" y="322" type="qcurve" smooth="yes"/>
      <point x="245" y="322"/>
      <point x="214" y="315"/>
      <point x="201" y="308" type="qcurve"/>
    </contour>
    <contour>
      <point x="151.0" y="520" type="move" name="top"/>
    </contour>
    <contour>
      <point x="107.0" y="0" type="move" name="bottom"/>
    </contour>
  </outline>
</glyph>
<glyph name="s" format="1">
  <advance width="355.0"/>
  <unicode hex="0073"/>
  <outline>
    <contour>
      <point x="203" y="353" type="qcurve" smooth="yes"/>
      <point x="185" y="353"/>
      <point x="172" y="348"/>
      <point x="172" y="341" type="qcurve"/>
      <point x="172" y="336"/>
      <point x="179" y="331"/>
      <point x="187" y="330" type="qcurve"/>
      <point x="242" y="319" type="line" smooth="yes"/>
      <point x="305" y="307"/>
      <point x="349" y="241"/>
      <point x="349" y="169" type="qcurve" smooth="yes"/>
      <point x="349" y="78"/>
      <point x="264" y="-10"/>
      <point x="170" y="-10" type="qcurve" smooth="yes"/>
      <point x="126" y="-10"/>
      <point x="42" y="2"/>
      <point x="19" y="11" type="qcurve"/>
      <point x="19" y="168" type="line"/>
      <point x="43" y="160"/>
      <point x="127" y="146"/>
      <point x="162" y="146" type="qcurve" smooth="yes"/>
      <point x="177" y="146"/>
      <point x="190" y="153"/>
      <point x="190" y="160" type="qcurve" smooth="yes"/>
      <point x="190" y="166"/>
      <point x="182" y="171"/>
      <point x="170" y="173" type="qcurve"/>
      <point x="104" y="184" type="line" smooth="yes"/>
      <point x="51" y="193"/>
      <point x="6" y="264"/>
      <point x="6" y="335" type="qcurve" smooth="yes"/>
      <point x="6" y="419"/>
      <point x="100" y="504"/>
      <point x="194" y="504" type="qcurve" smooth="yes"/>
      <point x="234" y="504"/>
      <point x="302" y="499"/>
      <point x="327" y="494" type="qcurve"/>
      <point x="327" y="342" type="line"/>
      <point x="300" y="347"/>
      <point x="231" y="353"/>
    </contour>
    <contour>
      <point x="181.0" y="520" type="move" name="top"/>
    </contour>
    <contour>
      <point x="172.0" y="0" type="move" name="bottom"/>
    </contour>
  </outline>
</glyph>
<glyph name="t" format="1">
  <advance width="321.0"/>
  <unicode hex="0074"/>
  <outline>
    <contour>
      <point x="317" y="173" type="qcurve"/>
      <point x="317" y="8" type="line"/>
      <point x="307" y="3"/>
      <point x="234" y="-10"/>
      <point x="207" y="-10" type="qcurve"/>
      <point x="120" y="-10"/>
      <point x="41" y="77"/>
      <point x="41" y="172" type="qcurve"/>
      <point x="41" y="336" type="line"/>
      <point x="7" y="336" type="line"/>
      <point x="7" y="494" type="line"/>
      <point x="48" y="494" type="line"/>
      <point x="70" y="606" type="line"/>
      <point x="228" y="606" type="line"/>
      <point x="228" y="494" type="line"/>
      <point x="311" y="494" type="line"/>
      <point x="311" y="336" type="line"/>
      <point x="228" y="336" type="line"/>
      <point x="228" y="203" type="line" smooth="yes"/>
      <point x="228" y="183"/>
      <point x="242" y="166"/>
      <point x="260" y="166" type="qcurve" smooth="yes"/>
      <point x="272" y="166"/>
      <point x="308" y="170"/>
    </contour>
    <contour>
      <point x="248.0" y="708" type="move" name="caronalt"/>
    </contour>
    <contour>
      <point x="185.0" y="0" type="move" name="bottom"/>
    </contour>
  </outline>
</glyph>
<glyph name="u" format="1">
  <advance width="428.0"/>
  <unicode hex="0075"/>
  <outline>
    <contour>
      <point x="128" y="-10" type="qcurve"/>
      <point x="70" y="-10"/>
      <point x="12" y="62"/>
      <point x="12" y="134" type="qcurve"/>
      <point x="12" y="494" type="line"/>
      <point x="199" y="494" type="line"/>
      <point x="199" y="187" type="line" smooth="yes"/>
      <point x="199" y="175"/>
      <point x="205" y="166"/>
      <point x="213" y="166" type="qcurve" smooth="yes"/>
      <point x="216" y="166"/>
      <point x="223" y="168"/>
      <point x="227" y="169" type="qcurve"/>
      <point x="227" y="494" type="line"/>
      <point x="414" y="494" type="line"/>
      <point x="414" y="0" type="line"/>
      <point x="253" y="0" type="line"/>
      <point x="246" y="43" type="line"/>
      <point x="242" y="43" type="line"/>
      <point x="219" y="16"/>
      <point x="163" y="-10"/>
    </contour>
    <contour>
      <point x="214.0" y="520" type="move" name="top"/>
    </contour>
    <contour>
      <point x="414.0" y="0" type="move" name="ogonek"/>
    </contour>
  </outline>
</glyph>
<glyph name="v" format="1">
  <advance width="451.0"/>
  <unicode hex="0076"/>
  <outline>
    <contour>
      <point x="253" y="494" type="line"/>
      <point x="456" y="494" type="line"/>
      <point x="333" y="0" type="line"/>
      <point x="119" y="0" type="line"/>
      <point x="-6" y="494" type="line"/>
      <point x="199" y="494" type="line"/>
      <point x="226" y="172" type="line"/>
    </contour>
  </outline>
</glyph>
<glyph name="w" format="1">
  <advance width="664.0"/>
  <unicode hex="0077"/>
  <outline>
    <contour>
      <point x="463" y="494" type="line"/>
      <point x="668" y="494" type="line"/>
      <point x="563" y="0" type="line"/>
      <point x="343" y="0" type="line"/>
      <point x="329" y="221" type="line"/>
      <point x="314" y="0" type="line"/>
      <point x="102" y="0" type="line"/>
      <point x="-5" y="494" type="line"/>
      <point x="201" y="494" type="line"/>
      <point x="214" y="171" type="line"/>
      <point x="251" y="494" type="line"/>
      <point x="416" y="494" type="line"/>
      <point x="449" y="171" type="line"/>
    </contour>
    <contour>
      <point x="331.0" y="520" type="move" name="top"/>
    </contour>
  </outline>
</glyph>
<glyph name="x" format="1">
  <advance width="428.0"/>
  <unicode hex="0078"/>
  <outline>
    <contour>
      <point x="323" y="257" type="line"/>
      <point x="436" y="0" type="line"/>
      <point x="232" y="0" type="line"/>
      <point x="209" y="125" type="line"/>
      <point x="184" y="0" type="line"/>
      <point x="-8" y="0" type="line"/>
      <point x="107" y="258" type="line"/>
      <point x="-10" y="494" type="line"/>
      <point x="204" y="494" type="line"/>
      <point x="226" y="378" type="line"/>
      <point x="249" y="494" type="line"/>
      <point x="438" y="494" type="line"/>
    </contour>
    <contour>
      <point x="226.0" y="520" type="move" name="top"/>
    </contour>
  </outline>
</glyph>
<glyph name="y" format="1">
  <advance width="448.0"/>
  <unicode hex="0079"/>
  <outline>
    <contour>
      <point x="92" y="-8" type="qcurve" smooth="yes"/>
      <point x="110" y="-8"/>
      <point x="131" y="3"/>
      <point x="131" y="12" type="qcurve"/>
      <point x="-6" y="494" type="line"/>
      <point x="199" y="494" type="line"/>
      <point x="227" y="196" type="line"/>
      <point x="256" y="494" type="line"/>
      <point x="453" y="494" type="line"/>
      <point x="331" y="4" type="line" smooth="yes"/>
      <point x="310" y="-81"/>
      <point x="215" y="-162"/>
      <point x="135" y="-162" type="qcurve" smooth="yes"/>
      <point x="115" y="-162"/>
      <point x="69" y="-157"/>
      <point x="54" y="-153" type="qcurve"/>
      <point x="54" y="-4" type="line"/>
      <point x="61" y="-6"/>
      <point x="80" y="-8"/>
    </contour>
    <contour>
      <point x="228.0" y="520" type="move" name="top"/>
    </contour>
  </outline>
</glyph>
<glyph name="z" format="1">
  <advance width="345.0"/>
  <unicode hex="007A"/>
  <outline>
    <contour>
      <point x="338" y="164" type="line"/>
      <point x="338" y="0" type="line"/>
      <point x="8" y="0" type="line"/>
      <point x="8" y="164" type="line"/>
      <point x="116" y="336" type="line"/>
      <point x="23" y="336" type="line"/>
      <point x="23" y="494" type="line"/>
      <point x="324" y="494" type="line"/>
      <point x="324" y="336" type="line"/>
      <point x="221" y="164" type="line"/>
    </contour>
    <contour>
      <point x="180.0" y="520" type="move" name="top"/>
    </contour>
  </outline>
</glyph>
<glyph name="braceleft" format="1">
  <advance width="234.0"/>
  <unicode hex="007B"/>
  <outline>
    <contour>
      <point x="105" y="317" type="qcurve"/>
      <point x="105" y="313" type="line"/>
      <point x="139" y="305"/>
      <point x="181" y="238"/>
      <point x="181" y="187" type="qcurve"/>
      <point x="181" y="57" type="line" smooth="yes"/>
      <point x="181" y="28"/>
      <point x="200" y="11"/>
      <point x="229" y="11" type="qcurve"/>
      <point x="229" y="-92" type="line"/>
      <point x="152" y="-92"/>
      <point x="80" y="-28"/>
      <point x="80" y="39" type="qcurve"/>
      <point x="80" y="167" type="line" smooth="yes"/>
      <point x="80" y="221"/>
      <point x="50" y="270"/>
      <point x="15" y="270" type="qcurve"/>
      <point x="-4" y="270" type="line"/>
      <point x="-4" y="360" type="line"/>
      <point x="15" y="360" type="line" smooth="yes"/>
      <point x="50" y="360"/>
      <point x="80" y="409"/>
      <point x="80" y="463" type="qcurve"/>
      <point x="80" y="586" type="line" smooth="yes"/>
      <point x="80" y="653"/>
      <point x="152" y="717"/>
      <point x="229" y="717" type="qcurve"/>
      <point x="229" y="614" type="line"/>
      <point x="200" y="614"/>
      <point x="181" y="597"/>
      <point x="181" y="568" type="qcurve"/>
      <point x="181" y="443" type="line" smooth="yes"/>
      <point x="181" y="392"/>
      <point x="139" y="325"/>
    </contour>
  </outline>
</glyph>
<glyph name="bar" format="1">
  <advance width="135.0"/>
  <unicode hex="007C"/>
  <outline>
    <contour>
      <point x="119" y="705" type="line"/>
      <point x="119" y="-80" type="line"/>
      <point x="16" y="-80" type="line"/>
      <point x="16" y="705" type="line"/>
    </contour>
  </outline>
</glyph>
<glyph name="braceright" format="1">
  <advance width="234.0"/>
  <unicode hex="007D"/>
  <outline>
    <contour>
      <point x="129" y="313" type="qcurve"/>
      <point x="129" y="317" type="line"/>
      <point x="95" y="325"/>
      <point x="53" y="392"/>
      <point x="53" y="443" type="qcurve"/>
      <point x="53" y="568" type="line" smooth="yes"/>
      <point x="53" y="597"/>
      <point x="34" y="614"/>
      <point x="5" y="614" type="qcurve"/>
      <point x="5" y="717" type="line"/>
      <point x="82" y="717"/>
      <point x="154" y="653"/>
      <point x="154" y="586" type="qcurve"/>
      <point x="154" y="463" type="line" smooth="yes"/>
      <point x="154" y="409"/>
      <point x="184" y="360"/>
      <point x="219" y="360" type="qcurve"/>
      <point x="238" y="360" type="line"/>
      <point x="238" y="270" type="line"/>
      <point x="219" y="270" type="line" smooth="yes"/>
      <point x="184" y="270"/>
      <point x="154" y="221"/>
      <point x="154" y="167" type="qcurve"/>
      <point x="154" y="39" type="line" smooth="yes"/>
      <point x="154" y="-28"/>
      <point x="82" y="-92"/>
      <point x="5" y="-92" type="qcurve"/>
      <point x="5" y="11" type="line"/>
      <point x="34" y="11"/>
      <point x="53" y="28"/>
      <point x="53" y="57" type="qcurve"/>
      <point x="53" y="187" type="line" smooth="yes"/>
      <point x="53" y="238"/>
      <point x="95" y="305"/>
    </contour>
  </outline>
</glyph>
<glyph name="asciitilde" format="1">
  <advance width="494.0"/>
  <unicode hex="007E"/>
  <outline>
    <contour>
      <point x="346" y="445" type="qcurve"/>
      <point x="487" y="445" type="line"/>
      <point x="487" y="323"/>
      <point x="420" y="187"/>
      <point x="356" y="187" type="qcurve" smooth="yes"/>
      <point x="331" y="187"/>
      <point x="277" y="213"/>
      <point x="231" y="250" type="qcurve" smooth="yes"/>
      <point x="206" y="270"/>
      <point x="186" y="282"/>
      <point x="179" y="282" type="qcurve"/>
      <point x="164" y="282"/>
      <point x="148" y="237"/>
      <point x="148" y="194" type="qcurve"/>
      <point x="7" y="194" type="line"/>
      <point x="7" y="317"/>
      <point x="73" y="453"/>
      <point x="136" y="453" type="qcurve" smooth="yes"/>
      <point x="161" y="453"/>
      <point x="216" y="428"/>
      <point x="262" y="392" type="qcurve" smooth="yes"/>
      <point x="287" y="372"/>
      <point x="307" y="361"/>
      <point x="314" y="361" type="qcurve"/>
      <point x="330" y="361"/>
      <point x="346" y="403"/>
    </contour>
  </outline>
</glyph>
<glyph name="exclamdown" format="1">
  <advance width="226.0"/>
  <unicode hex="00A1"/>
  <outline>
    <contour>
      <point x="16" y="494" type="line"/>
      <point x="206" y="494" type="line"/>
      <point x="206" y="328" type="line"/>
      <point x="16" y="328" type="line"/>
    </contour>
    <contour>
      <point x="196" y="294" type="line"/>
      <point x="219" y="-131" type="line"/>
      <point x="7" y="-131" type="line"/>
      <point x="30" y="294" type="line"/>
    </contour>
  </outline>
</glyph>
<glyph name="cent" format="1">
  <advance width="333.0"/>
  <unicode hex="00A2"/>
  <outline>
    <contour>
      <point x="242" y="64" type="qcurve"/>
      <point x="242" y="-18" type="line"/>
      <point x="133" y="-18" type="line"/>
      <point x="133" y="61" type="line"/>
      <point x="65" y="72"/>
      <point x="8" y="188"/>
      <point x="8" y="314" type="qcurve" smooth="yes"/>
      <point x="8" y="432"/>
      <point x="66" y="546"/>
      <point x="133" y="563" type="qcurve"/>
      <point x="133" y="645" type="line"/>
      <point x="242" y="645" type="line"/>
      <point x="242" y="571" type="line"/>
      <point x="257" y="570"/>
      <point x="293" y="566"/>
      <point x="314" y="563" type="qcurve"/>
      <point x="314" y="392" type="line"/>
      <point x="289" y="394"/>
      <point x="254" y="396"/>
      <point x="235" y="396" type="qcurve"/>
      <point x="210" y="396"/>
      <point x="195" y="363"/>
      <point x="195" y="314" type="qcurve" smooth="yes"/>
      <point x="195" y="270"/>
      <point x="214" y="239"/>
      <point x="242" y="239" type="qcurve"/>
      <point x="261" y="239"/>
      <point x="304" y="247"/>
      <point x="325" y="254" type="qcurve"/>
      <point x="325" y="94" type="line"/>
      <point x="314" y="85"/>
      <point x="269" y="69"/>
    </contour>
  </outline>
</glyph>
<glyph name="sterling" format="1">
  <advance width="372.0"/>
  <unicode hex="00A3"/>
  <outline>
    <contour>
      <point x="364" y="172" type="line"/>
      <point x="364" y="0" type="line"/>
      <point x="10" y="0" type="line"/>
      <point x="10" y="173" type="line"/>
      <point x="32" y="185"/>
      <point x="58" y="230"/>
      <point x="58" y="257" type="qcurve"/>
      <point x="58" y="261" type="line"/>
      <point x="22" y="261" type="line"/>
      <point x="22" y="364" type="line"/>
      <point x="58" y="364" type="line"/>
      <point x="58" y="451" type="line" smooth="yes"/>
      <point x="58" y="541"/>
      <point x="146" y="637"/>
      <point x="222" y="637" type="qcurve"/>
      <point x="264" y="637"/>
      <point x="320" y="630"/>
      <point x="351" y="621" type="qcurve"/>
      <point x="351" y="455" type="line"/>
      <point x="327" y="461"/>
      <point x="297" y="466"/>
      <point x="285" y="466" type="qcurve" smooth="yes"/>
      <point x="268" y="466"/>
      <point x="251" y="446"/>
      <point x="251" y="427" type="qcurve"/>
      <point x="251" y="364" type="line"/>
      <point x="322" y="364" type="line"/>
      <point x="322" y="261" type="line"/>
      <point x="251" y="261" type="line" smooth="yes"/>
      <point x="251" y="229"/>
      <point x="223" y="183"/>
      <point x="197" y="175" type="qcurve"/>
      <point x="197" y="172" type="line"/>
    </contour>
  </outline>
</glyph>
<glyph name="currency" format="1">
  <advance width="479.0"/>
  <unicode hex="00A4"/>
  <outline>
    <contour>
      <point x="79" y="37" type="line"/>
      <point x="6" y="111" type="line"/>
      <point x="61" y="170" type="line"/>
      <point x="43" y="201"/>
      <point x="24" y="275"/>
      <point x="24" y="316" type="qcurve" smooth="yes"/>
      <point x="24" y="357"/>
      <point x="44" y="433"/>
      <point x="63" y="465" type="qcurve"/>
      <point x="8" y="522" type="line"/>
      <point x="80" y="595" type="line"/>
      <point x="132" y="541" type="line"/>
      <point x="155" y="558"/>
      <point x="210" y="575"/>
      <point x="239" y="575" type="qcurve" smooth="yes"/>
      <point x="268" y="575"/>
      <point x="322" y="558"/>
      <point x="346" y="542" type="qcurve"/>
      <point x="398" y="595" type="line"/>
      <point x="470" y="520" type="line"/>
      <point x="418" y="465" type="line"/>
      <point x="437" y="433"/>
      <point x="457" y="356"/>
      <point x="457" y="315" type="qcurve" smooth="yes"/>
      <point x="457" y="275"/>
      <point x="438" y="200"/>
      <point x="419" y="167" type="qcurve"/>
      <point x="473" y="111" type="line"/>
      <point x="400" y="37" type="line"/>
      <point x="348" y="90" type="line"/>
      <point x="324" y="73"/>
      <point x="269" y="56"/>
      <point x="240" y="56" type="qcurve" smooth="yes"/>
      <point x="211" y="56"/>
      <point x="156" y="74"/>
      <point x="131" y="91" type="qcurve"/>
    </contour>
    <contour>
      <point x="242" y="411" type="qcurve" smooth="yes"/>
      <point x="217" y="411"/>
      <point x="194" y="367"/>
      <point x="194" y="319" type="qcurve" smooth="yes"/>
      <point x="194" y="271"/>
      <point x="216" y="228"/>
      <point x="240" y="228" type="qcurve" smooth="yes"/>
      <point x="265" y="228"/>
      <point x="287" y="270"/>
      <point x="287" y="320" type="qcurve" smooth="yes"/>
      <point x="287" y="369"/>
      <point x="266" y="411"/>
    </contour>
  </outline>
</glyph>
<glyph name="yen" format="1">
  <advance width="486.0"/>
  <unicode hex="00A5"/>
  <outline>
    <contour>
      <point x="80" y="100" type="line"/>
      <point x="80" y="187" type="line"/>
      <point x="148" y="187" type="line"/>
      <point x="148" y="216" type="line"/>
      <point x="80" y="216" type="line"/>
      <point x="80" y="303" type="line"/>
      <point x="121" y="303" type="line"/>
      <point x="4" y="625" type="line"/>
      <point x="215" y="625" type="line"/>
      <point x="245" y="390" type="line"/>
      <point x="284" y="625" type="line"/>
      <point x="482" y="625" type="line"/>
      <point x="368" y="303" type="line"/>
      <point x="410" y="303" type="line"/>
      <point x="410" y="216" type="line"/>
      <point x="342" y="216" type="line"/>
      <point x="342" y="187" type="line"/>
      <point x="410" y="187" type="line"/>
      <point x="410" y="100" type="line"/>
      <point x="342" y="100" type="line"/>
      <point x="342" y="0" type="line"/>
      <point x="148" y="0" type="line"/>
      <point x="148" y="100" type="line"/>
    </contour>
  </outline>
</glyph>
<glyph name="section" format="1">
  <advance width="368.0"/>
  <unicode hex="00A7"/>
  <outline>
    <contour>
      <point x="217" y="513" type="qcurve" smooth="yes"/>
      <point x="203" y="513"/>
      <point x="190" y="504"/>
      <point x="190" y="495" type="qcurve" smooth="yes"/>
      <point x="190" y="487"/>
      <point x="201" y="475"/>
      <point x="219" y="465" type="qcurve"/>
      <point x="293" y="425" type="line" smooth="yes"/>
      <point x="326" y="407"/>
      <point x="361" y="353"/>
      <point x="361" y="319" type="qcurve" smooth="yes"/>
      <point x="361" y="287"/>
      <point x="335" y="228"/>
      <point x="310" y="204" type="qcurve"/>
      <point x="320" y="190"/>
      <point x="330" y="154"/>
      <point x="330" y="130" type="qcurve" smooth="yes"/>
      <point x="330" y="64"/>
      <point x="252" y="-10"/>
      <point x="181" y="-10" type="qcurve" smooth="yes"/>
      <point x="141" y="-10"/>
      <point x="79" y="-2"/>
      <point x="54" y="6" type="qcurve"/>
      <point x="54" y="130" type="line"/>
      <point x="82" y="121"/>
      <point x="129" y="112"/>
      <point x="150" y="112" type="qcurve"/>
      <point x="164" y="112"/>
      <point x="177" y="121"/>
      <point x="177" y="130" type="qcurve" smooth="yes"/>
      <point x="177" y="138"/>
      <point x="166" y="150"/>
      <point x="148" y="160" type="qcurve"/>
      <point x="71" y="201" type="line" smooth="yes"/>
      <point x="40" y="218"/>
      <point x="7" y="272"/>
      <point x="7" y="306" type="qcurve" smooth="yes"/>
      <point x="7" y="337"/>
      <point x="32" y="395"/>
      <point x="57" y="420" type="qcurve"/>
      <point x="46" y="435"/>
      <point x="36" y="471"/>
      <point x="36" y="495" type="qcurve" smooth="yes"/>
      <point x="36" y="562"/>
      <point x="118" y="635"/>
      <point x="196" y="635" type="qcurve"/>
      <point x="233" y="635"/>
      <point x="288" y="627"/>
      <point x="314" y="618" type="qcurve"/>
      <point x="314" y="494" type="line"/>
      <point x="288" y="504"/>
      <point x="240" y="513"/>
    </contour>
    <contour>
      <point x="142" y="335" type="qcurve" smooth="yes"/>
      <point x="142" y="319"/>
      <point x="151" y="303"/>
      <point x="162" y="297" type="qcurve"/>
      <point x="219" y="266" type="line"/>
      <point x="222" y="272"/>
      <point x="225" y="284"/>
      <point x="225" y="290" type="qcurve" smooth="yes"/>
      <point x="225" y="305"/>
      <point x="217" y="322"/>
      <point x="206" y="328" type="qcurve"/>
      <point x="148" y="359" type="line"/>
      <point x="145" y="353"/>
      <point x="142" y="341"/>
    </contour>
  </outline>
</glyph>
<glyph name="copyright" format="1">
  <advance width="561.0"/>
  <unicode hex="00A9"/>
  <outline>
    <contour>
      <point x="553" y="314" type="qcurve"/>
      <point x="553" y="162"/>
      <point x="409" y="-10"/>
      <point x="281" y="-10" type="qcurve"/>
      <point x="148" y="-10"/>
      <point x="8" y="156"/>
      <point x="8" y="314" type="qcurve"/>
      <point x="8" y="466"/>
      <point x="152" y="637"/>
      <point x="281" y="637" type="qcurve"/>
      <point x="415" y="637"/>
      <point x="553" y="473"/>
    </contour>
    <contour>
      <point x="446" y="312" type="qcurve"/>
      <point x="446" y="429"/>
      <point x="366" y="541"/>
      <point x="283" y="541" type="qcurve"/>
      <point x="198" y="541"/>
      <point x="115" y="428"/>
      <point x="115" y="312" type="qcurve"/>
      <point x="115" y="201"/>
      <point x="198" y="94"/>
      <point x="283" y="94" type="qcurve"/>
      <point x="366" y="94"/>
      <point x="446" y="201"/>
    </contour>
    <contour>
      <point x="309" y="250" type="qcurve"/>
      <point x="325" y="250"/>
      <point x="357" y="257"/>
      <point x="380" y="266" type="qcurve"/>
      <point x="380" y="160" type="line"/>
      <point x="364" y="150"/>
      <point x="307" y="137"/>
      <point x="276" y="137" type="qcurve"/>
      <point x="207" y="137"/>
      <point x="142" y="225"/>
      <point x="142" y="316" type="qcurve" smooth="yes"/>
      <point x="142" y="406"/>
      <point x="208" y="494"/>
      <point x="276" y="494" type="qcurve"/>
      <point x="304" y="494"/>
      <point x="349" y="489"/>
      <point x="373" y="482" type="qcurve"/>
      <point x="373" y="381" type="line"/>
      <point x="356" y="384"/>
      <point x="324" y="386"/>
      <point x="308" y="386" type="qcurve"/>
      <point x="286" y="386"/>
      <point x="267" y="353"/>
      <point x="267" y="317" type="qcurve" smooth="yes"/>
      <point x="267" y="282"/>
      <point x="287" y="250"/>
    </contour>
  </outline>
</glyph>
<glyph name="ordfeminine" format="1">
  <advance width="198.0"/>
  <unicode hex="00AA"/>
  <outline>
    <contour>
      <point x="186" y="409" type="line"/>
      <point x="114" y="409" type="line"/>
      <point x="112" y="426" type="line"/>
      <point x="110" y="426" type="line"/>
      <point x="99" y="414"/>
      <point x="76" y="404"/>
      <point x="62" y="404" type="qcurve"/>
      <point x="34" y="404"/>
      <point x="7" y="439"/>
      <point x="7" y="474" type="qcurve"/>
      <point x="7" y="510"/>
      <point x="40" y="542"/>
      <point x="79" y="542" type="qcurve" smooth="yes"/>
      <point x="87" y="542"/>
      <point x="103" y="540"/>
      <point x="109" y="539" type="qcurve"/>
      <point x="109" y="550" type="line" smooth="yes"/>
      <point x="109" y="557"/>
      <point x="98" y="564"/>
      <point x="84" y="564" type="qcurve" smooth="yes"/>
      <point x="69" y="564"/>
      <point x="38" y="561"/>
      <point x="25" y="559" type="qcurve"/>
      <point x="25" y="628" type="line"/>
      <point x="43" y="632"/>
      <point x="81" y="636"/>
      <point x="100" y="636" type="qcurve"/>
      <point x="145" y="636"/>
      <point x="186" y="602"/>
      <point x="186" y="565" type="qcurve"/>
    </contour>
    <contour>
      <point x="92" y="495" type="qcurve"/>
      <point x="85" y="495"/>
      <point x="79" y="489"/>
      <point x="79" y="482" type="qcurve" smooth="yes"/>
      <point x="79" y="476"/>
      <point x="85" y="470"/>
      <point x="91" y="470" type="qcurve"/>
      <point x="95" y="470"/>
      <point x="104" y="472"/>
      <point x="109" y="474" type="qcurve"/>
      <point x="109" y="493" type="line"/>
      <point x="105" y="494"/>
      <point x="96" y="495"/>
    </contour>
    <contour>
      <point x="189" y="316" type="line"/>
      <point x="7" y="316" type="line"/>
      <point x="7" y="389" type="line"/>
      <point x="189" y="389" type="line"/>
    </contour>
  </outline>
</glyph>
<glyph name="logicalnot" format="1">
  <advance width="500.0"/>
  <unicode hex="00AC"/>
  <outline>
    <contour>
      <point x="427" y="392" type="line"/>
      <point x="427" y="105" type="line"/>
      <point x="261" y="105" type="line"/>
      <point x="261" y="236" type="line"/>
      <point x="73" y="236" type="line"/>
      <point x="73" y="392" type="line"/>
    </contour>
  </outline>
</glyph>
<glyph name="registered" format="1">
  <advance width="265.0"/>
  <unicode hex="00AE"/>
  <outline>
    <contour>
      <point x="258" y="487" type="qcurve" smooth="yes"/>
      <point x="258" y="416"/>
      <point x="193" y="339"/>
      <point x="133" y="339" type="qcurve"/>
      <point x="71" y="339"/>
      <point x="7" y="415"/>
      <point x="7" y="487" type="qcurve" smooth="yes"/>
      <point x="7" y="557"/>
      <point x="73" y="633"/>
      <point x="134" y="633" type="qcurve"/>
      <point x="194" y="633"/>
      <point x="258" y="558"/>
    </contour>
    <contour>
      <point x="210" y="487" type="qcurve" smooth="yes"/>
      <point x="210" y="539"/>
      <point x="173" y="589"/>
      <point x="134" y="589" type="qcurve"/>
      <point x="94" y="589"/>
      <point x="55" y="539"/>
      <point x="55" y="487" type="qcurve" smooth="yes"/>
      <point x="55" y="435"/>
      <point x="94" y="386"/>
      <point x="134" y="386" type="qcurve"/>
      <point x="173" y="386"/>
      <point x="210" y="435"/>
    </contour>
    <contour>
      <point x="120" y="458" type="line"/>
      <point x="120" y="407" type="line"/>
      <point x="81" y="407" type="line"/>
      <point x="81" y="569" type="line"/>
      <point x="131" y="569" type="line" smooth="yes"/>
      <point x="164" y="569"/>
      <point x="189" y="543"/>
      <point x="189" y="513" type="qcurve" smooth="yes"/>
      <point x="189" y="493"/>
      <point x="176" y="469"/>
      <point x="162" y="463" type="qcurve"/>
      <point x="187" y="407" type="line"/>
      <point x="143" y="407" type="line"/>
      <point x="124" y="458" type="line"/>
    </contour>
    <contour>
      <point x="149" y="513" type="qcurve" smooth="yes"/>
      <point x="149" y="522"/>
      <point x="141" y="530"/>
      <point x="131" y="530" type="qcurve"/>
      <point x="120" y="530" type="line"/>
      <point x="120" y="492" type="line"/>
      <point x="131" y="492" type="line" smooth="yes"/>
      <point x="142" y="492"/>
      <point x="149" y="501"/>
    </contour>
  </outline>
</glyph>
<glyph name="degree" format="1">
  <advance width="235.0"/>
  <unicode hex="00B0"/>
  <outline>
    <contour>
      <point x="234" y="498" type="qcurve" smooth="yes"/>
      <point x="234" y="437"/>
      <point x="172" y="366"/>
      <point x="118" y="366" type="qcurve" smooth="yes"/>
      <point x="63" y="366"/>
      <point x="1" y="436"/>
      <point x="1" y="498" type="qcurve" smooth="yes"/>
      <point x="1" y="561"/>
      <point x="63" y="634"/>
      <point x="118" y="634" type="qcurve" smooth="yes"/>
      <point x="172" y="634"/>
      <point x="234" y="561"/>
    </contour>
    <contour>
      <point x="94" y="501" type="qcurve" smooth="yes"/>
      <point x="94" y="483"/>
      <point x="107" y="463"/>
      <point x="118" y="463" type="qcurve" smooth="yes"/>
      <point x="129" y="463"/>
      <point x="141" y="483"/>
      <point x="141" y="501" type="qcurve" smooth="yes"/>
      <point x="141" y="519"/>
      <point x="129" y="539"/>
      <point x="118" y="539" type="qcurve" smooth="yes"/>
      <point x="107" y="539"/>
      <point x="94" y="519"/>
    </contour>
  </outline>
</glyph>
<glyph name="plusminus" format="1">
  <advance width="500.0"/>
  <unicode hex="00B1"/>
  <outline>
    <contour>
      <point x="427" y="467" type="line"/>
      <point x="427" y="311" type="line"/>
      <point x="331" y="311" type="line"/>
      <point x="331" y="197" type="line"/>
      <point x="171" y="197" type="line"/>
      <point x="171" y="311" type="line"/>
      <point x="73" y="311" type="line"/>
      <point x="73" y="467" type="line"/>
      <point x="171" y="467" type="line"/>
      <point x="171" y="579" type="line"/>
      <point x="331" y="579" type="line"/>
      <point x="331" y="467" type="line"/>
    </contour>
    <contour>
      <point x="427" y="156" type="line"/>
      <point x="427" y="0" type="line"/>
      <point x="73" y="0" type="line"/>
      <point x="73" y="156" type="line"/>
    </contour>
  </outline>
</glyph>
<glyph name="uni00B2" format="1">
  <advance width="226.0"/>
  <unicode hex="00B2"/>
  <outline>
    <contour>
      <point x="216" y="369" type="line"/>
      <point x="216" y="268" type="line"/>
      <point x="5" y="268" type="line"/>
      <point x="5" y="369" type="line"/>
      <point x="104" y="483" type="line" smooth="yes"/>
      <point x="112" y="492"/>
      <point x="118" y="505"/>
      <point x="118" y="515" type="qcurve" smooth="yes"/>
      <point x="118" y="524"/>
      <point x="109" y="532"/>
      <point x="99" y="532" type="qcurve" smooth="yes"/>
      <point x="83" y="532"/>
      <point x="40" y="526"/>
      <point x="19" y="522" type="qcurve"/>
      <point x="19" y="618" type="line"/>
      <point x="42" y="624"/>
      <point x="100" y="632"/>
      <point x="126" y="632" type="qcurve"/>
      <point x="170" y="632"/>
      <point x="219" y="582"/>
      <point x="219" y="538" type="qcurve"/>
      <point x="219" y="508"/>
      <point x="204" y="463"/>
      <point x="186" y="442" type="qcurve"/>
      <point x="124" y="369" type="line"/>
    </contour>
  </outline>
</glyph>
<glyph name="uni00B3" format="1">
  <advance width="225.0"/>
  <unicode hex="00B3"/>
  <outline>
    <contour>
      <point x="208" y="540" type="qcurve" smooth="yes"/>
      <point x="208" y="506"/>
      <point x="185" y="465"/>
      <point x="162" y="457" type="qcurve"/>
      <point x="162" y="456" type="line"/>
      <point x="190" y="452"/>
      <point x="218" y="410"/>
      <point x="218" y="371" type="qcurve"/>
      <point x="218" y="319"/>
      <point x="157" y="261"/>
      <point x="104" y="261" type="qcurve"/>
      <point x="74" y="261"/>
      <point x="20" y="268"/>
      <point x="8" y="273" type="qcurve"/>
      <point x="8" y="367" type="line"/>
      <point x="26" y="363"/>
      <point x="66" y="360"/>
      <point x="88" y="360" type="qcurve" smooth="yes"/>
      <point x="105" y="360"/>
      <point x="120" y="371"/>
      <point x="120" y="385" type="qcurve" smooth="yes"/>
      <point x="120" y="396"/>
      <point x="109" y="406"/>
      <point x="97" y="406" type="qcurve"/>
      <point x="36" y="406" type="line"/>
      <point x="36" y="494" type="line"/>
      <point x="85" y="494" type="line" smooth="yes"/>
      <point x="98" y="494"/>
      <point x="110" y="504"/>
      <point x="110" y="516" type="qcurve" smooth="yes"/>
      <point x="110" y="528"/>
      <point x="98" y="537"/>
      <point x="83" y="537" type="qcurve"/>
      <point x="70" y="537"/>
      <point x="25" y="531"/>
      <point x="12" y="528" type="qcurve"/>
      <point x="12" y="617" type="line"/>
      <point x="28" y="623"/>
      <point x="89" y="632"/>
      <point x="116" y="632" type="qcurve" smooth="yes"/>
      <point x="162" y="632"/>
      <point x="208" y="586"/>
    </contour>
  </outline>
</glyph>
<glyph name="acute" format="1">
  <advance width="351.0"/>
  <unicode hex="00B4"/>
  <outline>
    <contour>
      <point x="36" y="530" type="line"/>
      <point x="104" y="635" type="line"/>
      <point x="283" y="635" type="line"/>
      <point x="176" y="530" type="line"/>
    </contour>
    <contour>
      <point x="138" y="530" type="move" name="_top"/>
    </contour>
  </outline>
</glyph>
<glyph name="paragraph" format="1">
  <advance width="406.0"/>
  <unicode hex="00B6"/>
  <outline>
    <contour>
      <point x="387" y="627" type="qcurve"/>
      <point x="387" y="9" type="line" smooth="yes"/>
      <point x="387" y="-76"/>
      <point x="312" y="-162"/>
      <point x="238" y="-162" type="qcurve"/>
      <point x="217" y="-162"/>
      <point x="178" y="-158"/>
      <point x="166" y="-155" type="qcurve"/>
      <point x="166" y="9" type="line"/>
      <point x="170" y="8"/>
      <point x="181" y="7"/>
      <point x="185" y="7" type="qcurve" smooth="yes"/>
      <point x="195" y="7"/>
      <point x="206" y="21"/>
      <point x="206" y="34" type="qcurve"/>
      <point x="206" y="134" type="line"/>
      <point x="199" y="133"/>
      <point x="178" y="132"/>
      <point x="172" y="132" type="qcurve" smooth="yes"/>
      <point x="80" y="132"/>
      <point x="6" y="243"/>
      <point x="6" y="381" type="qcurve" smooth="yes"/>
      <point x="6" y="526"/>
      <point x="100" y="639"/>
      <point x="219" y="639" type="qcurve"/>
      <point x="247" y="639"/>
      <point x="305" y="636"/>
    </contour>
    <contour>
      <point x="191" y="471" type="qcurve"/>
      <point x="180" y="471"/>
      <point x="172" y="430"/>
      <point x="172" y="383" type="qcurve" smooth="yes"/>
      <point x="172" y="339"/>
      <point x="180" y="301"/>
      <point x="192" y="301" type="qcurve"/>
      <point x="196" y="301"/>
      <point x="203" y="302"/>
      <point x="206" y="304" type="qcurve"/>
      <point x="206" y="469" type="line"/>
      <point x="202" y="470"/>
      <point x="195" y="471"/>
    </contour>
  </outline>
</glyph>
<glyph name="cedilla" format="1">
  <advance width="268.0"/>
  <unicode hex="00B8"/>
  <outline>
    <contour>
      <point x="229" y="-95" type="qcurve"/>
      <point x="229" y="-132"/>
      <point x="176" y="-170"/>
      <point x="126" y="-170" type="qcurve" smooth="yes"/>
      <point x="105" y="-170"/>
      <point x="64" y="-165"/>
      <point x="44" y="-160" type="qcurve"/>
      <point x="44" y="-95" type="line"/>
      <point x="61" y="-100"/>
      <point x="92" y="-105"/>
      <point x="103" y="-105" type="qcurve" smooth="yes"/>
      <point x="118" y="-105"/>
      <point x="131" y="-96"/>
      <point x="131" y="-84" type="qcurve"/>
      <point x="131" y="-74"/>
      <point x="115" y="-65"/>
      <point x="96" y="-65" type="qcurve"/>
      <point x="82" y="-65"/>
      <point x="66" y="-65"/>
      <point x="55" y="-66" type="qcurve"/>
      <point x="75" y="28" type="line"/>
      <point x="165" y="16" type="line"/>
      <point x="155" y="-32" type="line"/>
      <point x="189" y="-33"/>
      <point x="229" y="-66"/>
    </contour>
    <contour>
      <point x="120" y="0" type="move" name="_bottom"/>
    </contour>
  </outline>
</glyph>
<glyph name="uni00B9" format="1">
  <advance width="182.0"/>
  <unicode hex="00B9"/>
  <outline>
    <contour>
      <point x="169" y="268" type="line"/>
      <point x="64" y="268" type="line"/>
      <point x="64" y="525" type="line"/>
      <point x="4" y="517" type="line"/>
      <point x="4" y="612" type="line"/>
      <point x="169" y="632" type="line"/>
    </contour>
  </outline>
</glyph>
<glyph name="ordmasculine" format="1">
  <advance width="213.0"/>
  <unicode hex="00BA"/>
  <outline>
    <contour>
      <point x="207" y="520" type="qcurve"/>
      <point x="207" y="461"/>
      <point x="158" y="404"/>
      <point x="107" y="404" type="qcurve"/>
      <point x="57" y="404"/>
      <point x="7" y="462"/>
      <point x="7" y="520" type="qcurve"/>
      <point x="7" y="579"/>
      <point x="56" y="636"/>
      <point x="107" y="636" type="qcurve"/>
      <point x="157" y="636"/>
      <point x="207" y="578"/>
    </contour>
    <contour>
      <point x="83" y="522" type="qcurve"/>
      <point x="83" y="499"/>
      <point x="94" y="479"/>
      <point x="107" y="479" type="qcurve"/>
      <point x="120" y="479"/>
      <point x="131" y="499"/>
      <point x="131" y="522" type="qcurve"/>
      <point x="131" y="545"/>
      <point x="120" y="564"/>
      <point x="107" y="564" type="qcurve"/>
      <point x="94" y="564"/>
      <point x="83" y="545"/>
    </contour>
    <contour>
      <point x="201" y="316" type="line"/>
      <point x="10" y="316" type="line"/>
      <point x="10" y="389" type="line"/>
      <point x="201" y="389" type="line"/>
    </contour>
  </outline>
</glyph>
<glyph name="questiondown" format="1">
  <advance width="309.0"/>
  <unicode hex="00BF"/>
  <outline>
    <contour>
      <point x="79" y="328" type="line"/>
      <point x="79" y="494" type="line"/>
      <point x="271" y="494" type="line"/>
      <point x="271" y="328" type="line"/>
    </contour>
    <contour>
      <point x="153" y="-141" type="qcurve"/>
      <point x="82" y="-141"/>
      <point x="6" y="-69"/>
      <point x="6" y="-1" type="qcurve" smooth="yes"/>
      <point x="6" y="53"/>
      <point x="44" y="132"/>
      <point x="91" y="172" type="qcurve"/>
      <point x="91" y="293" type="line"/>
      <point x="259" y="293" type="line"/>
      <point x="259" y="131" type="line"/>
      <point x="211" y="105"/>
      <point x="174" y="69"/>
      <point x="174" y="50" type="qcurve" smooth="yes"/>
      <point x="174" y="37"/>
      <point x="188" y="25"/>
      <point x="204" y="25" type="qcurve"/>
      <point x="223" y="25"/>
      <point x="268" y="36"/>
      <point x="297" y="49" type="qcurve"/>
      <point x="297" y="-113" type="line"/>
      <point x="265" y="-127"/>
      <point x="193" y="-141"/>
    </contour>
  </outline>
</glyph>
<glyph name="AE" format="1">
  <advance width="614.0"/>
  <unicode hex="00C6"/>
  <outline>
    <contour>
      <point x="190" y="0" type="line"/>
      <point x="-4" y="0" type="line"/>
      <point x="109" y="625" type="line"/>
      <point x="597" y="625" type="line"/>
      <point x="597" y="445" type="line"/>
      <point x="415" y="445" type="line"/>
      <point x="421" y="401" type="line"/>
      <point x="566" y="401" type="line"/>
      <point x="566" y="230" type="line"/>
      <point x="444" y="230" type="line"/>
      <point x="450" y="186" type="line"/>
      <point x="604" y="186" type="line"/>
      <point x="604" y="0" type="line"/>
      <point x="303" y="0" type="line"/>
      <point x="292" y="97" type="line"/>
      <point x="200" y="97" type="line"/>
    </contour>
    <contour>
      <point x="245" y="490" type="qcurve"/>
      <point x="243" y="468"/>
      <point x="232" y="376"/>
      <point x="223" y="307" type="qcurve"/>
      <point x="218" y="258" type="line"/>
      <point x="274" y="258" type="line"/>
      <point x="268" y="307" type="line" smooth="yes"/>
      <point x="267" y="312"/>
      <point x="266" y="325"/>
      <point x="263" y="342" type="qcurve" smooth="yes"/>
      <point x="256" y="396"/>
      <point x="248" y="461"/>
    </contour>
    <contour>
      <point x="333.0" y="637" type="move" name="top"/>
    </contour>
  </outline>
</glyph>
<glyph name="Ccedilla" format="1">
  <advance width="394.0"/>
  <unicode hex="00C7"/>
  <outline>
    <contour>
      <point x="337" y="-95" type="qcurve"/>
      <point x="337" y="-132"/>
      <point x="284" y="-170"/>
      <point x="234" y="-170" type="qcurve" smooth="yes"/>
      <point x="213" y="-170"/>
      <point x="172" y="-165"/>
      <point x="152" y="-160" type="qcurve"/>
      <point x="152" y="-95" type="line"/>
      <point x="169" y="-100"/>
      <point x="200" y="-105"/>
      <point x="211" y="-105" type="qcurve" smooth="yes"/>
      <point x="226" y="-105"/>
      <point x="239" y="-96"/>
      <point x="239" y="-84" type="qcurve"/>
      <point x="239" y="-74"/>
      <point x="223" y="-65"/>
      <point x="204" y="-65" type="qcurve"/>
      <point x="190" y="-65"/>
      <point x="174" y="-65"/>
      <point x="163" y="-66" type="qcurve"/>
      <point x="176" y="-6" type="line"/>
      <point x="85" y="8"/>
      <point x="8" y="157"/>
      <point x="8" y="312" type="qcurve" smooth="yes"/>
      <point x="8" y="480"/>
      <point x="130" y="635"/>
      <point x="264" y="635" type="qcurve"/>
      <point x="299" y="635"/>
      <point x="347" y="631"/>
      <point x="376" y="626" type="qcurve"/>
      <point x="376" y="444" type="line"/>
      <point x="346" y="447"/>
      <point x="308" y="448"/>
      <point x="279" y="448" type="qcurve"/>
      <point x="236" y="448"/>
      <point x="208" y="391"/>
      <point x="208" y="312" type="qcurve" smooth="yes"/>
      <point x="208" y="235"/>
      <point x="233" y="182"/>
      <point x="274" y="182" type="qcurve" smooth="yes"/>
      <point x="301" y="182"/>
      <point x="360" y="194"/>
      <point x="388" y="206" type="qcurve"/>
      <point x="388" y="24" type="line"/>
      <point x="359" y="9"/>
      <point x="301" y="-7"/>
      <point x="268" y="-9" type="qcurve"/>
      <point x="263" y="-32" type="line"/>
      <point x="297" y="-33"/>
      <point x="337" y="-66"/>
    </contour>
  </outline>
</glyph>
<glyph name="Eth" format="1">
  <advance width="496.0"/>
  <unicode hex="00D0"/>
  <outline>
    <contour>
      <point x="8" y="256" type="line"/>
      <point x="8" y="385" type="line"/>
      <point x="37" y="385" type="line"/>
      <point x="37" y="625" type="line"/>
      <point x="239" y="625" type="line" smooth="yes"/>
      <point x="380" y="625"/>
      <point x="488" y="483"/>
      <point x="488" y="313" type="qcurve" smooth="yes"/>
      <point x="488" y="150"/>
      <point x="369" y="0"/>
      <point x="239" y="0" type="qcurve"/>
      <point x="37" y="0" type="line"/>
      <point x="37" y="256" type="line"/>
    </contour>
    <contour>
      <point x="260" y="385" type="line"/>
      <point x="260" y="256" type="line"/>
      <point x="230" y="256" type="line"/>
      <point x="230" y="177" type="line"/>
      <point x="239" y="177" type="line" smooth="yes"/>
      <point x="270" y="177"/>
      <point x="288" y="230"/>
      <point x="288" y="313" type="qcurve" smooth="yes"/>
      <point x="288" y="399"/>
      <point x="271" y="454"/>
      <point x="239" y="454" type="qcurve"/>
      <point x="230" y="454" type="line"/>
      <point x="230" y="385" type="line"/>
    </contour>
  </outline>
</glyph>
<glyph name="multiply" format="1">
  <advance width="500.0"/>
  <unicode hex="00D7"/>
  <outline>
    <contour>
      <point x="63" y="458" type="line"/>
      <point x="180" y="545" type="line"/>
      <point x="251" y="446" type="line"/>
      <point x="321" y="545" type="line"/>
      <point x="438" y="459" type="line"/>
      <point x="339" y="323" type="line"/>
      <point x="438" y="185" type="line"/>
      <point x="319" y="99" type="line"/>
      <point x="249" y="197" type="line"/>
      <point x="178" y="99" type="line"/>
      <point x="63" y="183" type="line"/>
      <point x="161" y="321" type="line"/>
    </contour>
  </outline>
</glyph>
<glyph name="Oslash" format="1">
  <advance width="484.0"/>
  <unicode hex="00D8"/>
  <outline>
    <contour>
      <point x="117" y="-74" type="line"/>
      <point x="14" y="-13" type="line"/>
      <point x="59" y="64" type="line"/>
      <point x="33" y="101"/>
      <point x="9" y="220"/>
      <point x="9" y="312" type="qcurve"/>
      <point x="9" y="486"/>
      <point x="116" y="635"/>
      <point x="241" y="635" type="qcurve"/>
      <point x="264" y="635"/>
      <point x="306" y="630"/>
      <point x="324" y="626" type="qcurve"/>
      <point x="370" y="700" type="line"/>
      <point x="471" y="637" type="line"/>
      <point x="425" y="561" type="line"/>
      <point x="451" y="524"/>
      <point x="475" y="403"/>
      <point x="475" y="312" type="qcurve"/>
      <point x="475" y="139"/>
      <point x="367" y="-10"/>
      <point x="241" y="-10" type="qcurve"/>
      <point x="220" y="-10"/>
      <point x="179" y="-6"/>
      <point x="160" y="-2" type="qcurve"/>
    </contour>
    <contour>
      <point x="204" y="312" type="qcurve"/>
      <point x="204" y="223"/>
      <point x="219" y="176"/>
      <point x="241" y="176" type="qcurve"/>
      <point x="264" y="176"/>
      <point x="280" y="225"/>
      <point x="280" y="312" type="qcurve"/>
      <point x="280" y="404"/>
      <point x="264" y="455"/>
      <point x="241" y="455" type="qcurve"/>
      <point x="219" y="455"/>
      <point x="204" y="406"/>
    </contour>
    <contour>
      <point x="245.0" y="645" type="move" name="top"/>
    </contour>
  </outline>
</glyph>
<glyph name="Thorn" format="1">
  <advance width="467.0"/>
  <unicode hex="00DE"/>
  <outline>
    <contour>
      <point x="210" y="85" type="line"/>
      <point x="210" y="0" type="line"/>
      <point x="17" y="0" type="line"/>
      <point x="17" y="625" type="line"/>
      <point x="210" y="625" type="line"/>
      <point x="210" y="548" type="line"/>
      <point x="222" y="548" type="line" smooth="yes"/>
      <point x="353" y="548"/>
      <point x="461" y="444"/>
      <point x="461" y="320" type="qcurve"/>
      <point x="461" y="199"/>
      <point x="346" y="85"/>
      <point x="224" y="85" type="qcurve"/>
    </contour>
    <contour>
      <point x="265" y="316" type="qcurve"/>
      <point x="265" y="345"/>
      <point x="249" y="371"/>
      <point x="230" y="371" type="qcurve"/>
      <point x="210" y="371" type="line"/>
      <point x="210" y="255" type="line"/>
      <point x="230" y="255" type="line"/>
      <point x="249" y="255"/>
      <point x="265" y="284"/>
    </contour>
  </outline>
</glyph>
<glyph name="germandbls" format="1">
  <advance width="480.0"/>
  <unicode hex="00DF"/>
  <outline>
    <contour>
      <point x="214" y="637" type="qcurve"/>
      <point x="312" y="636"/>
      <point x="404" y="568"/>
      <point x="404" y="492" type="qcurve" smooth="yes"/>
      <point x="404" y="478"/>
      <point x="402" y="446"/>
      <point x="400" y="433" type="qcurve"/>
      <point x="385" y="319" type="line"/>
      <point x="405" y="313" type="line" smooth="yes"/>
      <point x="446" y="301"/>
      <point x="477" y="236"/>
      <point x="477" y="167" type="qcurve" smooth="yes"/>
      <point x="477" y="78"/>
      <point x="408" y="-10"/>
      <point x="339" y="-10" type="qcurve" smooth="yes"/>
      <point x="319" y="-10"/>
      <point x="285" y="-7"/>
      <point x="239" y="2" type="qcurve"/>
      <point x="239" y="163" type="line"/>
      <point x="256" y="159"/>
      <point x="289" y="155"/>
      <point x="299" y="155" type="qcurve"/>
      <point x="307" y="155"/>
      <point x="315" y="164"/>
      <point x="315" y="174" type="qcurve"/>
      <point x="315" y="181"/>
      <point x="309" y="188"/>
      <point x="301" y="190" type="qcurve"/>
      <point x="214" y="214" type="line"/>
      <point x="228" y="422" type="line" smooth="yes"/>
      <point x="228" y="428"/>
      <point x="230" y="448"/>
      <point x="230" y="452" type="qcurve" smooth="yes"/>
      <point x="230" y="465"/>
      <point x="223" y="475"/>
      <point x="214" y="475" type="qcurve"/>
      <point x="205" y="475"/>
      <point x="197" y="461"/>
      <point x="197" y="446" type="qcurve"/>
      <point x="197" y="0" type="line"/>
      <point x="14" y="0" type="line"/>
      <point x="14" y="454" type="line" smooth="yes"/>
      <point x="14" y="541"/>
      <point x="119" y="637"/>
    </contour>
  </outline>
</glyph>
<glyph name="ae" format="1">
  <advance width="581.0"/>
  <unicode hex="00E6"/>
  <outline>
    <contour>
      <point x="127" y="-10" type="qcurve"/>
      <point x="63" y="-10"/>
      <point x="5" y="65"/>
      <point x="5" y="146" type="qcurve"/>
      <point x="5" y="224"/>
      <point x="75" y="303"/>
      <point x="144" y="303" type="qcurve"/>
      <point x="160" y="303"/>
      <point x="193" y="299"/>
      <point x="207" y="296" type="qcurve"/>
      <point x="207" y="300" type="line" smooth="yes"/>
      <point x="207" y="318"/>
      <point x="179" y="331"/>
      <point x="144" y="331" type="qcurve" smooth="yes"/>
      <point x="123" y="331"/>
      <point x="85" y="328"/>
      <point x="40" y="321" type="qcurve"/>
      <point x="40" y="486" type="line"/>
      <point x="71" y="494"/>
      <point x="152" y="504"/>
      <point x="192" y="504" type="qcurve" smooth="yes"/>
      <point x="224" y="504"/>
      <point x="276" y="489"/>
      <point x="295" y="474" type="qcurve"/>
      <point x="316" y="489"/>
      <point x="366" y="504"/>
      <point x="395" y="504" type="qcurve" smooth="yes"/>
      <point x="492" y="504"/>
      <point x="574" y="415"/>
      <point x="574" y="302" type="qcurve" smooth="yes"/>
      <point x="574" y="268"/>
      <point x="572" y="223"/>
      <point x="570" y="194" type="qcurve"/>
      <point x="366" y="194" type="line"/>
      <point x="366" y="174"/>
      <point x="382" y="161"/>
      <point x="405" y="161" type="qcurve"/>
      <point x="446" y="161"/>
      <point x="532" y="171"/>
      <point x="556" y="177" type="qcurve"/>
      <point x="556" y="25" type="line"/>
      <point x="536" y="11"/>
      <point x="434" y="-10"/>
      <point x="375" y="-10" type="qcurve"/>
      <point x="331" y="-10"/>
      <point x="269" y="18"/>
      <point x="249" y="46" type="qcurve"/>
      <point x="218" y="14"/>
      <point x="163" y="-10"/>
    </contour>
    <contour>
      <point x="389" y="358" type="qcurve"/>
      <point x="376" y="358"/>
      <point x="366" y="338"/>
      <point x="366" y="296" type="qcurve"/>
      <point x="410" y="296" type="line"/>
      <point x="410" y="319" type="line" smooth="yes"/>
      <point x="410" y="342"/>
      <point x="400" y="358"/>
    </contour>
    <contour>
      <point x="188" y="194" type="qcurve"/>
      <point x="176" y="194"/>
      <point x="166" y="179"/>
      <point x="166" y="162" type="qcurve" smooth="yes"/>
      <point x="166" y="142"/>
      <point x="175" y="129"/>
      <point x="187" y="129" type="qcurve"/>
      <point x="193" y="129"/>
      <point x="207" y="134"/>
      <point x="215" y="138" type="qcurve"/>
      <point x="213" y="151"/>
      <point x="210" y="178"/>
      <point x="209" y="192" type="qcurve"/>
      <point x="197" y="193"/>
      <point x="191" y="194"/>
    </contour>
    <contour>
      <point x="293.0" y="520" type="move" name="top"/>
    </contour>
  </outline>
</glyph>
<glyph name="ccedilla" format="1">
  <advance width="329.0"/>
  <unicode hex="00E7"/>
  <outline>
    <contour>
      <point x="290" y="-95" type="qcurve"/>
      <point x="290" y="-132"/>
      <point x="237" y="-170"/>
      <point x="187" y="-170" type="qcurve" smooth="yes"/>
      <point x="166" y="-170"/>
      <point x="125" y="-165"/>
      <point x="105" y="-160" type="qcurve"/>
      <point x="105" y="-95" type="line"/>
      <point x="122" y="-100"/>
      <point x="153" y="-105"/>
      <point x="164" y="-105" type="qcurve" smooth="yes"/>
      <point x="179" y="-105"/>
      <point x="192" y="-96"/>
      <point x="192" y="-84" type="qcurve"/>
      <point x="192" y="-74"/>
      <point x="176" y="-65"/>
      <point x="157" y="-65" type="qcurve"/>
      <point x="143" y="-65"/>
      <point x="127" y="-65"/>
      <point x="116" y="-66" type="qcurve"/>
      <point x="129" y="-6" type="line"/>
      <point x="63" y="6"/>
      <point x="7" y="121"/>
      <point x="7" y="246" type="qcurve" smooth="yes"/>
      <point x="7" y="391"/>
      <point x="99" y="504"/>
      <point x="215" y="504" type="qcurve"/>
      <point x="236" y="504"/>
      <point x="290" y="499"/>
      <point x="313" y="495" type="qcurve"/>
      <point x="313" y="324" type="line"/>
      <point x="288" y="326"/>
      <point x="253" y="328"/>
      <point x="234" y="328" type="qcurve"/>
      <point x="209" y="328"/>
      <point x="194" y="295"/>
      <point x="194" y="246" type="qcurve" smooth="yes"/>
      <point x="194" y="202"/>
      <point x="213" y="171"/>
      <point x="241" y="171" type="qcurve"/>
      <point x="260" y="171"/>
      <point x="303" y="179"/>
      <point x="324" y="186" type="qcurve"/>
      <point x="324" y="26" type="line"/>
      <point x="311" y="15"/>
      <point x="255" y="-3"/>
      <point x="221" y="-7" type="qcurve"/>
      <point x="216" y="-32" type="line"/>
      <point x="250" y="-33"/>
      <point x="290" y="-66"/>
    </contour>
  </outline>
</glyph>
<glyph name="eth" format="1">
  <advance width="445.0"/>
  <unicode hex="00F0"/>
  <outline>
    <contour>
      <point x="438" y="238" type="qcurve"/>
      <point x="438" y="106"/>
      <point x="337" y="-10"/>
      <point x="222" y="-10" type="qcurve"/>
      <point x="106" y="-10"/>
      <point x="6" y="100"/>
      <point x="6" y="227" type="qcurve"/>
      <point x="6" y="346"/>
      <point x="106" y="450"/>
      <point x="222" y="450" type="qcurve"/>
      <point x="223" y="450"/>
      <point x="225" y="450"/>
      <point x="226" y="450" type="qcurve"/>
      <point x="223" y="459"/>
      <point x="217" y="477"/>
      <point x="214" y="484" type="qcurve"/>
      <point x="106" y="455" type="line"/>
      <point x="106" y="540" type="line"/>
      <point x="174" y="559" type="line"/>
      <point x="165" y="574"/>
      <point x="141" y="606"/>
      <point x="127" y="625" type="qcurve"/>
      <point x="323" y="625" type="line"/>
      <point x="326" y="622"/>
      <point x="337" y="608"/>
      <point x="339" y="604" type="qcurve"/>
      <point x="416" y="625" type="line"/>
      <point x="416" y="539" type="line"/>
      <point x="382" y="530" type="line"/>
      <point x="411" y="469"/>
      <point x="438" y="327"/>
    </contour>
    <contour>
      <point x="193" y="229" type="qcurve"/>
      <point x="193" y="194"/>
      <point x="206" y="165"/>
      <point x="222" y="165" type="qcurve"/>
      <point x="239" y="165"/>
      <point x="251" y="194"/>
      <point x="251" y="229" type="qcurve"/>
      <point x="251" y="265"/>
      <point x="239" y="294"/>
      <point x="222" y="294" type="qcurve"/>
      <point x="206" y="294"/>
      <point x="193" y="264"/>
    </contour>
  </outline>
</glyph>
<glyph name="divide" format="1">
  <advance width="500.0"/>
  <unicode hex="00F7"/>
  <outline>
    <contour>
      <point x="330" y="439" type="line"/>
      <point x="170" y="439" type="line"/>
      <point x="170" y="600" type="line"/>
      <point x="330" y="600" type="line"/>
    </contour>
    <contour>
      <point x="427" y="400" type="line"/>
      <point x="427" y="244" type="line"/>
      <point x="73" y="244" type="line"/>
      <point x="73" y="400" type="line"/>
    </contour>
    <contour>
      <point x="330" y="44" type="line"/>
      <point x="170" y="44" type="line"/>
      <point x="170" y="205" type="line"/>
      <point x="330" y="205" type="line"/>
    </contour>
  </outline>
</glyph>
<glyph name="oslash" format="1">
  <advance width="442.0"/>
  <unicode hex="00F8"/>
  <outline>
    <contour>
      <point x="111" y="-82" type="line"/>
      <point x="8" y="-19" type="line"/>
      <point x="52" y="53" type="line"/>
      <point x="29" y="84"/>
      <point x="7" y="179"/>
      <point x="7" y="246" type="qcurve"/>
      <point x="7" y="388"/>
      <point x="102" y="504"/>
      <point x="221" y="504" type="qcurve"/>
      <point x="239" y="504"/>
      <point x="272" y="501"/>
      <point x="287" y="498" type="qcurve"/>
      <point x="336" y="575" type="line"/>
      <point x="438" y="511" type="line"/>
      <point x="392" y="437" type="line"/>
      <point x="414" y="406"/>
      <point x="435" y="312"/>
      <point x="435" y="246" type="qcurve"/>
      <point x="435" y="105"/>
      <point x="340" y="-10"/>
      <point x="221" y="-10" type="qcurve"/>
      <point x="201" y="-10"/>
      <point x="172" y="-8"/>
      <point x="160" y="-5" type="qcurve"/>
    </contour>
    <contour>
      <point x="194" y="249" type="qcurve"/>
      <point x="194" y="196"/>
      <point x="204" y="165"/>
      <point x="221" y="165" type="qcurve"/>
      <point x="238" y="165"/>
      <point x="248" y="196"/>
      <point x="248" y="249" type="qcurve"/>
      <point x="248" y="302"/>
      <point x="238" y="333"/>
      <point x="221" y="333" type="qcurve"/>
      <point x="204" y="333"/>
      <point x="194" y="302"/>
    </contour>
    <contour>
      <point x="227.0" y="520" type="move" name="top"/>
    </contour>
  </outline>
</glyph>
<glyph name="Aogonek" format="1">
  <advance width="493.0"/>
  <unicode hex="0104"/>
  <outline>
    <contour>
      <point x="190" y="0" type="line"/>
      <point x="-4" y="0" type="line"/>
      <point x="109" y="625" type="line"/>
      <point x="390" y="625" type="line"/>
      <point x="496" y="0" type="line"/>
      <point x="441" y="-11"/>
      <point x="400" y="-37"/>
      <point x="400" y="-55" type="qcurve" smooth="yes"/>
      <point x="400" y="-71"/>
      <point x="417" y="-86"/>
      <point x="436" y="-86" type="qcurve" smooth="yes"/>
      <point x="442" y="-86"/>
      <point x="455" y="-84"/>
      <point x="459" y="-83" type="qcurve"/>
      <point x="459" y="-163" type="line"/>
      <point x="445" y="-168"/>
      <point x="409" y="-174"/>
      <point x="389" y="-174" type="qcurve" smooth="yes"/>
      <point x="337" y="-174"/>
      <point x="283" y="-133"/>
      <point x="283" y="-94" type="qcurve"/>
      <point x="283" y="-62"/>
      <point x="322" y="-14"/>
      <point x="358" y="0" type="qcurve"/>
      <point x="303" y="0" type="line"/>
      <point x="292" y="92" type="line"/>
      <point x="200" y="92" type="line"/>
    </contour>
    <contour>
      <point x="246" y="480" type="qcurve"/>
      <point x="243" y="453"/>
      <point x="236" y="393"/>
      <point x="225" y="307" type="qcurve"/>
      <point x="219" y="253" type="line"/>
      <point x="273" y="253" type="line"/>
      <point x="267" y="306" type="line" smooth="yes"/>
      <point x="260" y="358"/>
      <point x="250" y="443"/>
    </contour>
  </outline>
</glyph>
<glyph name="dcroat" format="1">
  <advance width="449.0"/>
  <unicode hex="0111"/>
  <outline>
    <contour>
      <point x="471" y="587" type="line"/>
      <point x="471" y="505" type="line"/>
      <point x="435" y="505" type="line"/>
      <point x="435" y="0" type="line"/>
      <point x="270" y="0" type="line"/>
      <point x="260" y="44" type="line"/>
      <point x="256" y="44" type="line"/>
      <point x="238" y="17"/>
      <point x="182" y="-10"/>
      <point x="144" y="-10" type="qcurve"/>
      <point x="70" y="-10"/>
      <point x="7" y="102"/>
      <point x="7" y="236" type="qcurve"/>
      <point x="7" y="364"/>
      <point x="89" y="484"/>
      <point x="177" y="484" type="qcurve"/>
      <point x="194" y="484"/>
      <point x="231" y="480"/>
      <point x="248" y="476" type="qcurve"/>
      <point x="248" y="505" type="line"/>
      <point x="135" y="505" type="line"/>
      <point x="135" y="587" type="line"/>
      <point x="248" y="587" type="line"/>
      <point x="248" y="625" type="line"/>
      <point x="435" y="625" type="line"/>
      <point x="435" y="587" type="line"/>
    </contour>
    <contour>
      <point x="223" y="313" type="qcurve"/>
      <point x="206" y="313"/>
      <point x="194" y="280"/>
      <point x="194" y="237" type="qcurve"/>
      <point x="194" y="196"/>
      <point x="205" y="165"/>
      <point x="221" y="165" type="qcurve" smooth="yes"/>
      <point x="228" y="165"/>
      <point x="241" y="167"/>
      <point x="248" y="170" type="qcurve"/>
      <point x="248" y="311" type="line"/>
      <point x="241" y="312"/>
      <point x="229" y="313"/>
    </contour>
  </outline>
</glyph>
<glyph name="Eogonek" format="1">
  <advance width="390.0"/>
  <unicode hex="0118"/>
  <outline>
    <contour>
      <point x="380" y="0" type="line"/>
      <point x="376" y="0" type="line"/>
      <point x="321" y="-11"/>
      <point x="280" y="-37"/>
      <point x="280" y="-55" type="qcurve" smooth="yes"/>
      <point x="280" y="-71"/>
      <point x="297" y="-86"/>
      <point x="316" y="-86" type="qcurve" smooth="yes"/>
      <point x="322" y="-86"/>
      <point x="335" y="-84"/>
      <point x="339" y="-83" type="qcurve"/>
      <point x="339" y="-163" type="line"/>
      <point x="325" y="-168"/>
      <point x="289" y="-174"/>
      <point x="269" y="-174" type="qcurve" smooth="yes"/>
      <point x="217" y="-174"/>
      <point x="163" y="-133"/>
      <point x="163" y="-94" type="qcurve"/>
      <point x="163" y="-62"/>
      <point x="202" y="-14"/>
      <point x="238" y="0" type="qcurve"/>
      <point x="17" y="0" type="line"/>
      <point x="17" y="625" type="line"/>
      <point x="373" y="625" type="line"/>
      <point x="373" y="445" type="line"/>
      <point x="210" y="445" type="line"/>
      <point x="210" y="401" type="line"/>
      <point x="342" y="401" type="line"/>
      <point x="342" y="230" type="line"/>
      <point x="210" y="230" type="line"/>
      <point x="210" y="185" type="line"/>
      <point x="380" y="185" type="line"/>
    </contour>
  </outline>
</glyph>
<glyph name="eogonek" format="1">
  <advance width="405.0"/>
  <unicode hex="0119"/>
  <outline>
    <contour>
      <point x="380" y="177" type="qcurve"/>
      <point x="380" y="25" type="line"/>
      <point x="375" y="22"/>
      <point x="359" y="15"/>
      <point x="349" y="11" type="qcurve"/>
      <point x="318" y="-10"/>
      <point x="289" y="-45"/>
      <point x="289" y="-60" type="qcurve"/>
      <point x="289" y="-73"/>
      <point x="302" y="-86"/>
      <point x="314" y="-86" type="qcurve"/>
      <point x="320" y="-86"/>
      <point x="330" y="-84"/>
      <point x="339" y="-82" type="qcurve"/>
      <point x="339" y="-163" type="line"/>
      <point x="326" y="-168"/>
      <point x="289" y="-174"/>
      <point x="269" y="-174" type="qcurve"/>
      <point x="224" y="-174"/>
      <point x="173" y="-131"/>
      <point x="173" y="-94" type="qcurve"/>
      <point x="173" y="-71"/>
      <point x="198" y="-28"/>
      <point x="222" y="-10" type="qcurve"/>
      <point x="199" y="-10" type="line"/>
      <point x="97" y="-10"/>
      <point x="7" y="109"/>
      <point x="7" y="245" type="qcurve" smooth="yes"/>
      <point x="7" y="379"/>
      <point x="105" y="504"/>
      <point x="209" y="504" type="qcurve"/>
      <point x="311" y="504"/>
      <point x="398" y="415"/>
      <point x="398" y="302" type="qcurve" smooth="yes"/>
      <point x="398" y="268"/>
      <point x="396" y="223"/>
      <point x="394" y="194" type="qcurve"/>
      <point x="190" y="194" type="line"/>
      <point x="190" y="174"/>
      <point x="206" y="161"/>
      <point x="229" y="161" type="qcurve"/>
      <point x="270" y="161"/>
      <point x="356" y="171"/>
    </contour>
    <contour>
      <point x="213" y="358" type="qcurve"/>
      <point x="200" y="358"/>
      <point x="190" y="338"/>
      <point x="190" y="296" type="qcurve"/>
      <point x="234" y="296" type="line"/>
      <point x="234" y="319" type="line" smooth="yes"/>
      <point x="234" y="342"/>
      <point x="224" y="358"/>
    </contour>
  </outline>
</glyph>
<glyph name="Hbar" format="1">
  <advance width="543.0"/>
  <unicode hex="0126"/>
  <outline>
    <contour>
      <point x="236" y="0" type="line"/>
      <point x="43" y="0" type="line"/>
      <point x="43" y="452" type="line"/>
      <point x="7" y="452" type="line"/>
      <point x="7" y="557" type="line"/>
      <point x="43" y="557" type="line"/>
      <point x="43" y="625" type="line"/>
      <point x="236" y="625" type="line"/>
      <point x="236" y="557" type="line"/>
      <point x="307" y="557" type="line"/>
      <point x="307" y="625" type="line"/>
      <point x="500" y="625" type="line"/>
      <point x="500" y="557" type="line"/>
      <point x="536" y="557" type="line"/>
      <point x="536" y="452" type="line"/>
      <point x="500" y="452" type="line"/>
      <point x="500" y="0" type="line"/>
      <point x="307" y="0" type="line"/>
      <point x="307" y="224" type="line"/>
      <point x="236" y="224" type="line"/>
    </contour>
    <contour>
      <point x="236" y="452" type="line"/>
      <point x="236" y="410" type="line"/>
      <point x="307" y="410" type="line"/>
      <point x="307" y="452" type="line"/>
    </contour>
  </outline>
</glyph>
<glyph name="hbar" format="1">
  <advance width="430.0"/>
  <unicode hex="0127"/>
  <outline>
    <contour>
      <point x="201" y="0" type="line"/>
      <point x="14" y="0" type="line"/>
      <point x="14" y="505" type="line"/>
      <point x="-22" y="505" type="line"/>
      <point x="-22" y="587" type="line"/>
      <point x="14" y="587" type="line"/>
      <point x="14" y="625" type="line"/>
      <point x="201" y="625" type="line"/>
      <point x="201" y="587" type="line"/>
      <point x="314" y="587" type="line"/>
      <point x="314" y="505" type="line"/>
      <point x="201" y="505" type="line"/>
      <point x="201" y="442" type="line"/>
      <point x="223" y="463"/>
      <point x="276" y="484"/>
      <point x="306" y="484" type="qcurve"/>
      <point x="361" y="484"/>
      <point x="418" y="418"/>
      <point x="418" y="353" type="qcurve"/>
      <point x="418" y="0" type="line"/>
      <point x="231" y="0" type="line"/>
      <point x="231" y="291" type="line" smooth="yes"/>
      <point x="231" y="303"/>
      <point x="224" y="313"/>
      <point x="216" y="313" type="qcurve" smooth="yes"/>
      <point x="212" y="313"/>
      <point x="205" y="312"/>
      <point x="201" y="310" type="qcurve"/>
    </contour>
  </outline>
</glyph>
<glyph name="Iogonek" format="1">
  <advance width="227.0"/>
  <unicode hex="012E"/>
  <outline>
    <contour>
      <point x="210" y="0" type="line"/>
      <point x="209" y="0" type="line"/>
      <point x="154" y="-11"/>
      <point x="113" y="-37"/>
      <point x="113" y="-55" type="qcurve" smooth="yes"/>
      <point x="113" y="-71"/>
      <point x="130" y="-86"/>
      <point x="149" y="-86" type="qcurve" smooth="yes"/>
      <point x="155" y="-86"/>
      <point x="168" y="-84"/>
      <point x="172" y="-83" type="qcurve"/>
      <point x="172" y="-163" type="line"/>
      <point x="158" y="-168"/>
      <point x="122" y="-174"/>
      <point x="102" y="-174" type="qcurve" smooth="yes"/>
      <point x="50" y="-174"/>
      <point x="-4" y="-133"/>
      <point x="-4" y="-94" type="qcurve"/>
      <point x="-4" y="-62"/>
      <point x="35" y="-14"/>
      <point x="71" y="0" type="qcurve"/>
      <point x="17" y="0" type="line"/>
      <point x="17" y="625" type="line"/>
      <point x="210" y="625" type="line"/>
    </contour>
  </outline>
</glyph>
<glyph name="iogonek" format="1">
  <advance width="215.0"/>
  <unicode hex="012F"/>
  <outline>
    <contour>
      <point x="203" y="520" type="line"/>
      <point x="12" y="520" type="line"/>
      <point x="12" y="625" type="line"/>
      <point x="203" y="625" type="line"/>
    </contour>
    <contour>
      <point x="63" y="0" type="qcurve"/>
      <point x="14" y="0" type="line"/>
      <point x="14" y="494" type="line"/>
      <point x="201" y="494" type="line"/>
      <point x="201" y="0" type="line"/>
      <point x="146" y="-11"/>
      <point x="105" y="-37"/>
      <point x="105" y="-55" type="qcurve" smooth="yes"/>
      <point x="105" y="-71"/>
      <point x="122" y="-86"/>
      <point x="141" y="-86" type="qcurve" smooth="yes"/>
      <point x="147" y="-86"/>
      <point x="160" y="-84"/>
      <point x="164" y="-83" type="qcurve"/>
      <point x="164" y="-163" type="line"/>
      <point x="150" y="-168"/>
      <point x="114" y="-174"/>
      <point x="94" y="-174" type="qcurve" smooth="yes"/>
      <point x="42" y="-174"/>
      <point x="-12" y="-133"/>
      <point x="-12" y="-94" type="qcurve"/>
      <point x="-12" y="-62"/>
      <point x="27" y="-14"/>
    </contour>
  </outline>
</glyph>
<glyph name="dotlessi" format="1">
  <advance width="215.0"/>
  <unicode hex="0131"/>
  <outline>
    <contour>
      <point x="201" y="0" type="line"/>
      <point x="14" y="0" type="line"/>
      <point x="14" y="494" type="line"/>
      <point x="201" y="494" type="line"/>
    </contour>
    <contour>
      <point x="107.0" y="520" type="move" name="top"/>
    </contour>
  </outline>
</glyph>
<glyph name="Ldot" format="1">
  <advance width="368.0"/>
  <unicode hex="013F"/>
  <outline>
    <contour>
      <point x="354" y="193" type="line"/>
      <point x="354" y="0" type="line"/>
      <point x="17" y="0" type="line"/>
      <point x="17" y="625" type="line"/>
      <point x="210" y="625" type="line"/>
      <point x="210" y="193" type="line"/>
    </contour>
    <contour>
      <point x="350" y="274" type="line"/>
      <point x="235" y="274" type="line"/>
      <point x="235" y="445" type="line"/>
      <point x="350" y="445" type="line"/>
    </contour>
  </outline>
</glyph>
<glyph name="ldot" format="1">
  <advance width="302.0"/>
  <unicode hex="0140"/>
  <outline>
    <contour>
      <point x="201" y="625" type="line"/>
      <point x="201" y="0" type="line"/>
      <point x="14" y="0" type="line"/>
      <point x="14" y="625" type="line"/>
    </contour>
    <contour>
      <point x="298" y="259" type="line"/>
      <point x="219" y="259" type="line"/>
      <point x="219" y="430" type="line"/>
      <point x="298" y="430" type="line"/>
    </contour>
  </outline>
</glyph>
<glyph name="Lslash" format="1">
  <advance width="389.0"/>
  <unicode hex="0141"/>
  <outline>
    <contour>
      <point x="380" y="193" type="line"/>
      <point x="380" y="0" type="line"/>
      <point x="43" y="0" type="line"/>
      <point x="43" y="229" type="line"/>
      <point x="7" y="216" type="line"/>
      <point x="7" y="347" type="line"/>
      <point x="43" y="360" type="line"/>
      <point x="43" y="625" type="line"/>
      <point x="236" y="625" type="line"/>
      <point x="236" y="427" type="line"/>
      <point x="320" y="456" type="line"/>
      <point x="320" y="325" type="line"/>
      <point x="236" y="296" type="line"/>
      <point x="236" y="193" type="line"/>
    </contour>
  </outline>
</glyph>
<glyph name="lslash" format="1">
  <advance width="280.0"/>
  <unicode hex="0142"/>
  <outline>
    <contour>
      <point x="230" y="298" type="line"/>
      <point x="230" y="0" type="line"/>
      <point x="43" y="0" type="line"/>
      <point x="43" y="227" type="line"/>
      <point x="7" y="214" type="line"/>
      <point x="7" y="342" type="line"/>
      <point x="43" y="355" type="line"/>
      <point x="43" y="625" type="line"/>
      <point x="230" y="625" type="line"/>
      <point x="230" y="426" type="line"/>
      <point x="274" y="442" type="line"/>
      <point x="274" y="314" type="line"/>
    </contour>
  </outline>
</glyph>
<glyph name="Eng" format="1">
  <advance width="503.0"/>
  <unicode hex="014A"/>
  <outline>
    <contour>
      <point x="486" y="625" type="line"/>
      <point x="486" y="3" type="line" smooth="yes"/>
      <point x="486" y="-76"/>
      <point x="405" y="-162"/>
      <point x="334" y="-162" type="qcurve" smooth="yes"/>
      <point x="315" y="-162"/>
      <point x="284" y="-159"/>
      <point x="269" y="-156" type="qcurve"/>
      <point x="269" y="-8" type="line"/>
      <point x="274" y="-9"/>
      <point x="279" y="-9"/>
      <point x="285" y="-9" type="qcurve"/>
      <point x="295" y="-9"/>
      <point x="305" y="4"/>
      <point x="305" y="16" type="qcurve"/>
      <point x="192" y="291" type="line"/>
      <point x="192" y="0" type="line"/>
      <point x="17" y="0" type="line"/>
      <point x="17" y="625" type="line"/>
      <point x="199" y="625" type="line"/>
      <point x="312" y="344" type="line"/>
      <point x="312" y="625" type="line"/>
    </contour>
  </outline>
</glyph>
<glyph name="eng" format="1">
  <advance width="430.0"/>
  <unicode hex="014B"/>
  <outline>
    <contour>
      <point x="201" y="0" type="line"/>
      <point x="14" y="0" type="line"/>
      <point x="14" y="494" type="line"/>
      <point x="176" y="494" type="line"/>
      <point x="182" y="441" type="line"/>
      <point x="187" y="441" type="line"/>
      <point x="213" y="474"/>
      <point x="271" y="504"/>
      <point x="308" y="504" type="qcurve"/>
      <point x="361" y="504"/>
      <point x="418" y="436"/>
      <point x="418" y="373" type="qcurve"/>
      <point x="418" y="-6" type="line" smooth="yes"/>
      <point x="418" y="-80"/>
      <point x="337" y="-161"/>
      <point x="266" y="-161" type="qcurve" smooth="yes"/>
      <point x="247" y="-161"/>
      <point x="216" y="-158"/>
      <point x="201" y="-155" type="qcurve"/>
      <point x="201" y="-22" type="line"/>
      <point x="205" y="-23"/>
      <point x="209" y="-23"/>
      <point x="213" y="-23" type="qcurve" smooth="yes"/>
      <point x="223" y="-23"/>
      <point x="231" y="-12"/>
      <point x="231" y="0" type="qcurve"/>
      <point x="231" y="311" type="line" smooth="yes"/>
      <point x="231" y="323"/>
      <point x="224" y="333"/>
      <point x="216" y="333" type="qcurve" smooth="yes"/>
      <point x="212" y="333"/>
      <point x="205" y="332"/>
      <point x="201" y="330" type="qcurve"/>
    </contour>
  </outline>
</glyph>
<glyph name="OE" format="1">
  <advance width="635.0"/>
  <unicode hex="0152"/>
  <outline>
    <contour>
      <point x="241" y="-10" type="qcurve"/>
      <point x="112" y="-10"/>
      <point x="9" y="133"/>
      <point x="9" y="312" type="qcurve"/>
      <point x="9" y="486"/>
      <point x="116" y="635"/>
      <point x="241" y="635" type="qcurve"/>
      <point x="265" y="635"/>
      <point x="305" y="630"/>
      <point x="322" y="625" type="qcurve"/>
      <point x="618" y="625" type="line"/>
      <point x="618" y="445" type="line"/>
      <point x="447" y="445" type="line"/>
      <point x="449" y="428"/>
      <point x="451" y="409"/>
      <point x="452" y="401" type="qcurve"/>
      <point x="587" y="401" type="line"/>
      <point x="587" y="230" type="line"/>
      <point x="452" y="230" type="line"/>
      <point x="451" y="221"/>
      <point x="449" y="200"/>
      <point x="447" y="185" type="qcurve"/>
      <point x="625" y="185" type="line"/>
      <point x="625" y="0" type="line"/>
      <point x="318" y="0" type="line"/>
      <point x="302" y="-5"/>
      <point x="264" y="-10"/>
    </contour>
    <contour>
      <point x="204" y="312" type="qcurve"/>
      <point x="204" y="223"/>
      <point x="219" y="176"/>
      <point x="241" y="176" type="qcurve"/>
      <point x="264" y="176"/>
      <point x="280" y="225"/>
      <point x="280" y="312" type="qcurve"/>
      <point x="280" y="404"/>
      <point x="264" y="455"/>
      <point x="241" y="455" type="qcurve"/>
      <point x="219" y="455"/>
      <point x="204" y="406"/>
    </contour>
  </outline>
</glyph>
<glyph name="oe" format="1">
  <advance width="637.0"/>
  <unicode hex="0153"/>
  <outline>
    <contour>
      <point x="338" y="32" type="qcurve"/>
      <point x="316" y="11"/>
      <point x="254" y="-10"/>
      <point x="211" y="-10" type="qcurve"/>
      <point x="100" y="-10"/>
      <point x="7" y="108"/>
      <point x="7" y="246" type="qcurve"/>
      <point x="7" y="388"/>
      <point x="98" y="504"/>
      <point x="211" y="504" type="qcurve"/>
      <point x="254" y="504"/>
      <point x="318" y="481"/>
      <point x="340" y="457" type="qcurve"/>
      <point x="361" y="481"/>
      <point x="422" y="504"/>
      <point x="461" y="504" type="qcurve"/>
      <point x="552" y="504"/>
      <point x="630" y="415"/>
      <point x="630" y="302" type="qcurve" smooth="yes"/>
      <point x="630" y="268"/>
      <point x="628" y="223"/>
      <point x="626" y="194" type="qcurve"/>
      <point x="422" y="194" type="line"/>
      <point x="422" y="174"/>
      <point x="438" y="161"/>
      <point x="461" y="161" type="qcurve"/>
      <point x="502" y="161"/>
      <point x="588" y="171"/>
      <point x="612" y="177" type="qcurve"/>
      <point x="612" y="25" type="line"/>
      <point x="591" y="10"/>
      <point x="502" y="-10"/>
      <point x="451" y="-10" type="qcurve"/>
      <point x="413" y="-10"/>
      <point x="357" y="11"/>
    </contour>
    <contour>
      <point x="445" y="358" type="qcurve"/>
      <point x="432" y="358"/>
      <point x="422" y="338"/>
      <point x="422" y="296" type="qcurve"/>
      <point x="466" y="296" type="line"/>
      <point x="466" y="319" type="line" smooth="yes"/>
      <point x="466" y="342"/>
      <point x="456" y="358"/>
    </contour>
    <contour>
      <point x="194" y="249" type="qcurve"/>
      <point x="194" y="194"/>
      <point x="204" y="165"/>
      <point x="221" y="165" type="qcurve"/>
      <point x="238" y="165"/>
      <point x="248" y="192"/>
      <point x="248" y="249" type="qcurve"/>
      <point x="248" y="306"/>
      <point x="238" y="333"/>
      <point x="221" y="333" type="qcurve"/>
      <point x="204" y="333"/>
      <point x="194" y="304"/>
    </contour>
  </outline>
</glyph>
<glyph name="Scedilla" format="1">
  <advance width="406.0"/>
  <unicode hex="015E"/>
  <outline>
    <contour>
      <point x="197" y="215" type="qcurve"/>
      <point x="128" y="240" type="line" smooth="yes"/>
      <point x="60" y="264"/>
      <point x="10" y="349"/>
      <point x="10" y="423" type="qcurve" smooth="yes"/>
      <point x="10" y="532"/>
      <point x="105" y="635"/>
      <point x="207" y="635" type="qcurve" smooth="yes"/>
      <point x="255" y="635"/>
      <point x="337" y="625"/>
      <point x="361" y="617" type="qcurve"/>
      <point x="361" y="445" type="line"/>
      <point x="309" y="457"/>
      <point x="263" y="461"/>
      <point x="237" y="461" type="qcurve" smooth="yes"/>
      <point x="218" y="461"/>
      <point x="202" y="450"/>
      <point x="202" y="437" type="qcurve"/>
      <point x="202" y="429"/>
      <point x="208" y="421"/>
      <point x="217" y="418" type="qcurve"/>
      <point x="278" y="394" type="line" smooth="yes"/>
      <point x="329" y="374"/>
      <point x="368" y="346"/>
      <point x="379" y="326" type="qcurve" smooth="yes"/>
      <point x="391" y="306"/>
      <point x="401" y="247"/>
      <point x="401" y="204" type="qcurve" smooth="yes"/>
      <point x="401" y="101"/>
      <point x="317" y="1"/>
      <point x="230" y="-8" type="qcurve"/>
      <point x="223" y="-42" type="line"/>
      <point x="257" y="-43"/>
      <point x="297" y="-76"/>
      <point x="297" y="-105" type="qcurve"/>
      <point x="297" y="-142"/>
      <point x="244" y="-180"/>
      <point x="194" y="-180" type="qcurve" smooth="yes"/>
      <point x="173" y="-180"/>
      <point x="132" y="-175"/>
      <point x="112" y="-170" type="qcurve"/>
      <point x="112" y="-105" type="line"/>
      <point x="129" y="-110"/>
      <point x="160" y="-115"/>
      <point x="171" y="-115" type="qcurve" smooth="yes"/>
      <point x="186" y="-115"/>
      <point x="199" y="-106"/>
      <point x="199" y="-94" type="qcurve"/>
      <point x="199" y="-84"/>
      <point x="183" y="-75"/>
      <point x="164" y="-75" type="qcurve"/>
      <point x="150" y="-75"/>
      <point x="134" y="-75"/>
      <point x="123" y="-76" type="qcurve"/>
      <point x="137" y="-8" type="line"/>
      <point x="98" y="-5"/>
      <point x="30" y="7"/>
      <point x="14" y="14" type="qcurve"/>
      <point x="14" y="197" type="line"/>
      <point x="51" y="184"/>
      <point x="131" y="170"/>
      <point x="170" y="170" type="qcurve" smooth="yes"/>
      <point x="196" y="170"/>
      <point x="213" y="180"/>
      <point x="213" y="194" type="qcurve"/>
      <point x="213" y="203"/>
      <point x="207" y="211"/>
    </contour>
  </outline>
</glyph>
<glyph name="scedilla" format="1">
  <advance width="355.0"/>
  <unicode hex="015F"/>
  <outline>
    <contour>
      <point x="281" y="-95" type="qcurve"/>
      <point x="281" y="-132"/>
      <point x="228" y="-170"/>
      <point x="178" y="-170" type="qcurve" smooth="yes"/>
      <point x="157" y="-170"/>
      <point x="116" y="-165"/>
      <point x="96" y="-160" type="qcurve"/>
      <point x="96" y="-95" type="line"/>
      <point x="113" y="-100"/>
      <point x="144" y="-105"/>
      <point x="155" y="-105" type="qcurve" smooth="yes"/>
      <point x="170" y="-105"/>
      <point x="183" y="-96"/>
      <point x="183" y="-84" type="qcurve"/>
      <point x="183" y="-74"/>
      <point x="167" y="-65"/>
      <point x="148" y="-65" type="qcurve"/>
      <point x="134" y="-65"/>
      <point x="118" y="-65"/>
      <point x="107" y="-66" type="qcurve"/>
      <point x="119" y="-8" type="line"/>
      <point x="87" y="-5"/>
      <point x="34" y="5"/>
      <point x="19" y="11" type="qcurve"/>
      <point x="19" y="168" type="line"/>
      <point x="43" y="160"/>
      <point x="127" y="146"/>
      <point x="162" y="146" type="qcurve" smooth="yes"/>
      <point x="177" y="146"/>
      <point x="190" y="153"/>
      <point x="190" y="160" type="qcurve" smooth="yes"/>
      <point x="190" y="166"/>
      <point x="182" y="171"/>
      <point x="170" y="173" type="qcurve"/>
      <point x="104" y="184" type="line" smooth="yes"/>
      <point x="51" y="193"/>
      <point x="6" y="264"/>
      <point x="6" y="335" type="qcurve" smooth="yes"/>
      <point x="6" y="419"/>
      <point x="100" y="504"/>
      <point x="194" y="504" type="qcurve" smooth="yes"/>
      <point x="234" y="504"/>
      <point x="302" y="499"/>
      <point x="327" y="494" type="qcurve"/>
      <point x="327" y="342" type="line"/>
      <point x="300" y="347"/>
      <point x="231" y="353"/>
      <point x="203" y="353" type="qcurve" smooth="yes"/>
      <point x="185" y="353"/>
      <point x="172" y="348"/>
      <point x="172" y="341" type="qcurve"/>
      <point x="172" y="336"/>
      <point x="179" y="331"/>
      <point x="187" y="330" type="qcurve"/>
      <point x="242" y="319" type="line" smooth="yes"/>
      <point x="305" y="307"/>
      <point x="349" y="241"/>
      <point x="349" y="169" type="qcurve" smooth="yes"/>
      <point x="349" y="88"/>
      <point x="283" y="1"/>
      <point x="212" y="-8" type="qcurve"/>
      <point x="207" y="-32" type="line"/>
      <point x="241" y="-33"/>
      <point x="281" y="-66"/>
    </contour>
  </outline>
</glyph>
<glyph name="Tbar" format="1">
  <advance width="431.0"/>
  <unicode hex="0166"/>
  <outline>
    <contour>
      <point x="392" y="348" type="line"/>
      <point x="392" y="219" type="line"/>
      <point x="312" y="219" type="line"/>
      <point x="312" y="0" type="line"/>
      <point x="119" y="0" type="line"/>
      <point x="119" y="219" type="line"/>
      <point x="39" y="219" type="line"/>
      <point x="39" y="348" type="line"/>
      <point x="119" y="348" type="line"/>
      <point x="119" y="438" type="line"/>
      <point x="11" y="438" type="line"/>
      <point x="11" y="625" type="line"/>
      <point x="420" y="625" type="line"/>
      <point x="420" y="438" type="line"/>
      <point x="312" y="438" type="line"/>
      <point x="312" y="348" type="line"/>
    </contour>
  </outline>
</glyph>
<glyph name="Uogonek" format="1">
  <advance width="510.0"/>
  <unicode hex="0172"/>
  <outline>
    <contour>
      <point x="303" y="271" type="qcurve"/>
      <point x="303" y="625" type="line"/>
      <point x="496" y="625" type="line"/>
      <point x="496" y="270" type="line" smooth="yes"/>
      <point x="496" y="181"/>
      <point x="443" y="57"/>
      <point x="392" y="24" type="qcurve"/>
      <point x="372" y="9"/>
      <point x="353" y="-19"/>
      <point x="353" y="-31" type="qcurve"/>
      <point x="353" y="-44"/>
      <point x="366" y="-57"/>
      <point x="378" y="-57" type="qcurve"/>
      <point x="384" y="-57"/>
      <point x="394" y="-55"/>
      <point x="403" y="-53" type="qcurve"/>
      <point x="403" y="-134" type="line"/>
      <point x="390" y="-139"/>
      <point x="353" y="-145"/>
      <point x="333" y="-145" type="qcurve"/>
      <point x="288" y="-145"/>
      <point x="237" y="-102"/>
      <point x="237" y="-65" type="qcurve"/>
      <point x="237" y="-50"/>
      <point x="246" y="-23"/>
      <point x="256" y="-10" type="qcurve"/>
      <point x="129" y="-10"/>
      <point x="14" y="123"/>
      <point x="14" y="270" type="qcurve"/>
      <point x="14" y="625" type="line"/>
      <point x="207" y="625" type="line"/>
      <point x="207" y="271" type="line" smooth="yes"/>
      <point x="207" y="213"/>
      <point x="227" y="176"/>
      <point x="256" y="176" type="qcurve"/>
      <point x="283" y="176"/>
      <point x="303" y="215"/>
    </contour>
  </outline>
</glyph>
<glyph name="uogonek" format="1">
  <advance width="428.0"/>
  <unicode hex="0173"/>
  <outline>
    <contour>
      <point x="128" y="-10" type="qcurve"/>
      <point x="70" y="-10"/>
      <point x="12" y="62"/>
      <point x="12" y="134" type="qcurve"/>
      <point x="12" y="494" type="line"/>
      <point x="199" y="494" type="line"/>
      <point x="199" y="187" type="line" smooth="yes"/>
      <point x="199" y="175"/>
      <point x="205" y="166"/>
      <point x="213" y="166" type="qcurve" smooth="yes"/>
      <point x="216" y="166"/>
      <point x="223" y="168"/>
      <point x="227" y="169" type="qcurve"/>
      <point x="227" y="494" type="line"/>
      <point x="414" y="494" type="line"/>
      <point x="414" y="0" type="line"/>
      <point x="359" y="-11"/>
      <point x="318" y="-37"/>
      <point x="318" y="-55" type="qcurve" smooth="yes"/>
      <point x="318" y="-71"/>
      <point x="335" y="-86"/>
      <point x="354" y="-86" type="qcurve" smooth="yes"/>
      <point x="360" y="-86"/>
      <point x="373" y="-84"/>
      <point x="377" y="-83" type="qcurve"/>
      <point x="377" y="-163" type="line"/>
      <point x="363" y="-168"/>
      <point x="327" y="-174"/>
      <point x="307" y="-174" type="qcurve" smooth="yes"/>
      <point x="255" y="-174"/>
      <point x="201" y="-133"/>
      <point x="201" y="-94" type="qcurve"/>
      <point x="201" y="-62"/>
      <point x="240" y="-14"/>
      <point x="276" y="0" type="qcurve"/>
      <point x="253" y="0" type="line"/>
      <point x="246" y="43" type="line"/>
      <point x="242" y="43" type="line"/>
      <point x="219" y="16"/>
      <point x="163" y="-10"/>
    </contour>
  </outline>
</glyph>
<glyph name="uni018F" format="1">
  <advance width="473.0"/>
  <unicode hex="018F"/>
  <outline>
    <contour>
      <point x="219" y="635" type="qcurve"/>
      <point x="350" y="635"/>
      <point x="465" y="486"/>
      <point x="465" y="314" type="qcurve" smooth="yes"/>
      <point x="465" y="146"/>
      <point x="347" y="-10"/>
      <point x="218" y="-10" type="qcurve"/>
      <point x="113" y="-10"/>
      <point x="7" y="122"/>
      <point x="7" y="254" type="qcurve"/>
      <point x="7" y="290"/>
      <point x="11" y="345"/>
      <point x="16" y="388" type="qcurve"/>
      <point x="263" y="388" type="line"/>
      <point x="259" y="429"/>
      <point x="229" y="460"/>
      <point x="192" y="460" type="qcurve"/>
      <point x="160" y="460"/>
      <point x="93" y="453"/>
      <point x="56" y="446" type="qcurve"/>
      <point x="56" y="617" type="line"/>
      <point x="82" y="625"/>
      <point x="172" y="635"/>
    </contour>
    <contour>
      <point x="199" y="231" type="qcurve" smooth="yes"/>
      <point x="199" y="198"/>
      <point x="215" y="165"/>
      <point x="231" y="165" type="qcurve" smooth="yes"/>
      <point x="249" y="165"/>
      <point x="263" y="201"/>
      <point x="265" y="251" type="qcurve"/>
      <point x="200" y="251" type="line"/>
      <point x="199" y="246"/>
      <point x="199" y="238"/>
    </contour>
  </outline>
</glyph>
<glyph name="florin" format="1">
  <advance width="378.0"/>
  <unicode hex="0192"/>
  <outline>
    <contour>
      <point x="65" y="279" type="line"/>
      <point x="27" y="279" type="line"/>
      <point x="27" y="383" type="line"/>
      <point x="79" y="383" type="line"/>
      <point x="90" y="464" type="line" smooth="yes"/>
      <point x="103" y="562"/>
      <point x="188" y="638"/>
      <point x="282" y="638" type="qcurve" smooth="yes"/>
      <point x="304" y="638"/>
      <point x="358" y="630"/>
      <point x="369" y="626" type="qcurve"/>
      <point x="369" y="461" type="line"/>
      <point x="357" y="463"/>
      <point x="328" y="465"/>
      <point x="320" y="465" type="qcurve"/>
      <point x="298" y="465"/>
      <point x="280" y="445"/>
      <point x="276" y="418" type="qcurve"/>
      <point x="271" y="383" type="line"/>
      <point x="352" y="383" type="line"/>
      <point x="352" y="279" type="line"/>
      <point x="257" y="279" type="line"/>
      <point x="200" y="-152" type="line"/>
      <point x="6" y="-152" type="line"/>
    </contour>
  </outline>
</glyph>
<glyph name="uni01B5" format="1">
  <advance width="411.0"/>
  <unicode hex="01B5"/>
  <outline>
    <contour>
      <point x="402" y="188" type="line"/>
      <point x="402" y="0" type="line"/>
      <point x="9" y="0" type="line"/>
      <point x="9" y="183" type="line"/>
      <point x="62" y="269" type="line"/>
      <point x="21" y="269" type="line"/>
      <point x="21" y="376" type="line"/>
      <point x="127" y="376" type="line"/>
      <point x="168" y="443" type="line"/>
      <point x="33" y="443" type="line"/>
      <point x="33" y="625" type="line"/>
      <point x="386" y="625" type="line"/>
      <point x="386" y="448" type="line"/>
      <point x="342" y="376" type="line"/>
      <point x="386" y="376" type="line"/>
      <point x="386" y="269" type="line"/>
      <point x="277" y="269" type="line"/>
      <point x="227" y="188" type="line"/>
    </contour>
  </outline>
</glyph>
<glyph name="uni01B6" format="1">
  <advance width="345.0"/>
  <unicode hex="01B6"/>
  <outline>
    <contour>
      <point x="338" y="164" type="line"/>
      <point x="338" y="0" type="line"/>
      <point x="8" y="0" type="line"/>
      <point x="8" y="164" type="line"/>
      <point x="39" y="214" type="line"/>
      <point x="19" y="214" type="line"/>
      <point x="19" y="297" type="line"/>
      <point x="92" y="297" type="line"/>
      <point x="116" y="336" type="line"/>
      <point x="23" y="336" type="line"/>
      <point x="23" y="494" type="line"/>
      <point x="324" y="494" type="line"/>
      <point x="324" y="336" type="line"/>
      <point x="301" y="297" type="line"/>
      <point x="322" y="297" type="line"/>
      <point x="322" y="214" type="line"/>
      <point x="251" y="214" type="line"/>
      <point x="221" y="164" type="line"/>
    </contour>
  </outline>
</glyph>
<glyph name="uni0237" format="1">
  <advance width="218.0"/>
  <unicode hex="0237"/>
  <outline>
    <contour>
      <point x="52" y="-162" type="qcurve" smooth="yes"/>
      <point x="33" y="-162"/>
      <point x="2" y="-159"/>
      <point x="-13" y="-156" type="qcurve"/>
      <point x="-13" y="-23" type="line"/>
      <point x="-9" y="-24"/>
      <point x="-5" y="-24"/>
      <point x="-1" y="-24" type="qcurve" smooth="yes"/>
      <point x="9" y="-24"/>
      <point x="17" y="-13"/>
      <point x="17" y="-1" type="qcurve"/>
      <point x="17" y="494" type="line"/>
      <point x="204" y="494" type="line"/>
      <point x="204" y="-7" type="line" smooth="yes"/>
      <point x="204" y="-81"/>
      <point x="123" y="-162"/>
    </contour>
    <contour>
      <point x="112.0" y="520" type="move" name="top"/>
    </contour>
  </outline>
</glyph>
<glyph name="uni0259" format="1">
  <advance width="405.0"/>
  <unicode hex="0259"/>
  <outline>
    <contour>
      <point x="25" y="324" type="qcurve"/>
      <point x="25" y="473" type="line"/>
      <point x="49" y="486"/>
      <point x="143" y="504"/>
      <point x="197" y="504" type="qcurve"/>
      <point x="303" y="504"/>
      <point x="398" y="383"/>
      <point x="398" y="248" type="qcurve" smooth="yes"/>
      <point x="398" y="116"/>
      <point x="299" y="-10"/>
      <point x="195" y="-10" type="qcurve"/>
      <point x="95" y="-10"/>
      <point x="7" y="81"/>
      <point x="7" y="191" type="qcurve" smooth="yes"/>
      <point x="7" y="224"/>
      <point x="9" y="269"/>
      <point x="11" y="296" type="qcurve"/>
      <point x="215" y="296" type="line"/>
      <point x="215" y="323"/>
      <point x="198" y="340"/>
      <point x="172" y="340" type="qcurve" smooth="yes"/>
      <point x="131" y="340"/>
      <point x="44" y="330"/>
    </contour>
    <contour>
      <point x="193" y="136" type="qcurve"/>
      <point x="205" y="136"/>
      <point x="215" y="156"/>
      <point x="215" y="198" type="qcurve"/>
      <point x="171" y="198" type="line"/>
      <point x="171" y="176" type="line" smooth="yes"/>
      <point x="171" y="152"/>
      <point x="180" y="136"/>
    </contour>
  </outline>
</glyph>
<glyph name="circumflex" format="1">
  <advance width="398.0"/>
  <unicode hex="02C6"/>
  <outline>
    <contour>
      <point x="362" y="530" type="line"/>
      <point x="229" y="530" type="line"/>
      <point x="199" y="572" type="line"/>
      <point x="168" y="530" type="line"/>
      <point x="36" y="530" type="line"/>
      <point x="119" y="635" type="line"/>
      <point x="278" y="635" type="line"/>
    </contour>
    <contour>
      <point x="199" y="530" type="move" name="_top"/>
    </contour>
  </outline>
</glyph>
<glyph name="caron" format="1">
  <advance width="398.0"/>
  <unicode hex="02C7"/>
  <outline>
    <contour>
      <point x="41" y="635" type="line"/>
      <point x="174" y="635" type="line"/>
      <point x="204" y="593" type="line"/>
      <point x="235" y="635" type="line"/>
      <point x="367" y="635" type="line"/>
      <point x="284" y="530" type="line"/>
      <point x="125" y="530" type="line"/>
    </contour>
    <contour>
      <point x="199" y="530" type="move" name="_top"/>
    </contour>
  </outline>
</glyph>
<glyph name="breve" format="1">
  <advance width="313.0"/>
  <unicode hex="02D8"/>
  <outline>
    <contour>
      <point x="157" y="603" type="qcurve" smooth="yes"/>
      <point x="167" y="603"/>
      <point x="176" y="618"/>
      <point x="176" y="635" type="qcurve"/>
      <point x="277" y="635" type="line"/>
      <point x="273" y="581"/>
      <point x="211" y="523"/>
      <point x="157" y="523" type="qcurve" smooth="yes"/>
      <point x="104" y="523"/>
      <point x="42" y="580"/>
      <point x="38" y="635" type="qcurve"/>
      <point x="139" y="635" type="line"/>
      <point x="139" y="620"/>
      <point x="149" y="603"/>
    </contour>
    <contour>
      <point x="157" y="530" type="move" name="_top"/>
    </contour>
  </outline>
</glyph>
<glyph name="ring" format="1">
  <advance width="277.0"/>
  <unicode hex="02DA"/>
  <outline>
    <contour>
      <point x="241" y="602" type="qcurve" smooth="yes"/>
      <point x="241" y="565"/>
      <point x="185" y="523"/>
      <point x="137" y="523" type="qcurve" smooth="yes"/>
      <point x="89" y="523"/>
      <point x="33" y="565"/>
      <point x="33" y="602" type="qcurve" smooth="yes"/>
      <point x="33" y="639"/>
      <point x="88" y="680"/>
      <point x="137" y="680" type="qcurve" smooth="yes"/>
      <point x="186" y="680"/>
      <point x="241" y="639"/>
    </contour>
    <contour>
      <point x="110" y="602" type="qcurve" smooth="yes"/>
      <point x="110" y="593"/>
      <point x="124" y="582"/>
      <point x="137" y="582" type="qcurve" smooth="yes"/>
      <point x="149" y="582"/>
      <point x="164" y="593"/>
      <point x="164" y="602" type="qcurve" smooth="yes"/>
      <point x="164" y="612"/>
      <point x="149" y="623"/>
      <point x="137" y="623" type="qcurve" smooth="yes"/>
      <point x="124" y="623"/>
      <point x="110" y="612"/>
    </contour>
    <contour>
      <point x="137.0" y="530.0" type="move" name="_top"/>
    </contour>
  </outline>
</glyph>
<glyph name="ogonek" format="1">
  <advance width="276.0"/>
  <unicode hex="02DB"/>
  <outline>
    <contour>
      <point x="173" y="26" type="qcurve"/>
      <point x="240" y="9" type="line"/>
      <point x="185" y="-2"/>
      <point x="144" y="-28"/>
      <point x="144" y="-46" type="qcurve" smooth="yes"/>
      <point x="144" y="-62"/>
      <point x="161" y="-77"/>
      <point x="180" y="-77" type="qcurve" smooth="yes"/>
      <point x="186" y="-77"/>
      <point x="199" y="-75"/>
      <point x="203" y="-74" type="qcurve"/>
      <point x="203" y="-154" type="line"/>
      <point x="189" y="-159"/>
      <point x="153" y="-165"/>
      <point x="133" y="-165" type="qcurve" smooth="yes"/>
      <point x="81" y="-165"/>
      <point x="27" y="-124"/>
      <point x="27" y="-85" type="qcurve"/>
      <point x="27" y="-39"/>
      <point x="105" y="19"/>
    </contour>
    <contour>
      <point x="240" y="9" type="move" name="_ogonek"/>
    </contour>
  </outline>
</glyph>
<glyph name="tilde" format="1">
  <advance width="332.0"/>
  <unicode hex="02DC"/>
  <outline>
    <contour>
      <point x="208" y="635" type="qcurve"/>
      <point x="296" y="635" type="line"/>
      <point x="296" y="582"/>
      <point x="260" y="526"/>
      <point x="226" y="526" type="qcurve" smooth="yes"/>
      <point x="216" y="526"/>
      <point x="192" y="532"/>
      <point x="169" y="541" type="qcurve" smooth="yes"/>
      <point x="154" y="547"/>
      <point x="141" y="550"/>
      <point x="137" y="550" type="qcurve"/>
      <point x="130" y="550"/>
      <point x="124" y="542"/>
      <point x="124" y="530" type="qcurve"/>
      <point x="36" y="530" type="line"/>
      <point x="36" y="583"/>
      <point x="72" y="639"/>
      <point x="106" y="639" type="qcurve" smooth="yes"/>
      <point x="116" y="639"/>
      <point x="140" y="633"/>
      <point x="163" y="624" type="qcurve" smooth="yes"/>
      <point x="178" y="618"/>
      <point x="191" y="615"/>
      <point x="195" y="615" type="qcurve"/>
      <point x="202" y="615"/>
      <point x="208" y="623"/>
    </contour>
    <contour>
      <point x="166" y="530" type="move" name="_top"/>
    </contour>
  </outline>
</glyph>
<glyph name="hungarumlaut" format="1">
  <advance width="492.0"/>
  <unicode hex="02DD"/>
  <outline>
    <contour>
      <point x="30" y="530" type="line"/>
      <point x="99" y="635" type="line"/>
      <point x="252" y="635" type="line"/>
      <point x="156" y="530" type="line"/>
    </contour>
    <contour>
      <point x="201" y="530" type="line"/>
      <point x="269" y="635" type="line"/>
      <point x="423" y="635" type="line"/>
      <point x="327" y="530" type="line"/>
    </contour>
    <contour>
      <point x="218.0" y="530.0" type="move" name="_top"/>
    </contour>
  </outline>
</glyph>
<glyph name="uni0312" format="1">
  <advance width="217.0"/>
  <unicode hex="0312"/>
  <outline>
    <contour>
      <point x="43" y="530" type="line"/>
      <point x="57" y="614" type="line" smooth="yes"/>
      <point x="61" y="642"/>
      <point x="101" y="675"/>
      <point x="130" y="675" type="qcurve"/>
      <point x="177" y="675" type="line"/>
      <point x="177" y="530" type="line"/>
    </contour>
    <contour>
      <point x="109.0" y="530.0" type="move" name="_top"/>
    </contour>
  </outline>
</glyph>
<glyph name="uni0326" format="1">
  <advance width="217.0"/>
  <unicode hex="0326"/>
  <outline>
    <contour>
      <point x="179" y="-18" type="line"/>
      <point x="165" y="-102" type="line" smooth="yes"/>
      <point x="161" y="-130"/>
      <point x="121" y="-163"/>
      <point x="92" y="-163" type="qcurve"/>
      <point x="45" y="-163" type="line"/>
      <point x="45" y="-18" type="line"/>
    </contour>
    <contour>
      <point x="109" y="0" type="move" name="_bottom"/>
    </contour>
  </outline>
</glyph>
<glyph name="uni0394" format="1">
  <advance width="505.0"/>
  <unicode hex="0394"/>
  <outline>
    <contour>
      <point x="8" y="0" type="line"/>
      <point x="8" y="183" type="line"/>
      <point x="153" y="625" type="line"/>
      <point x="352" y="625" type="line"/>
      <point x="497" y="183" type="line"/>
      <point x="497" y="0" type="line"/>
    </contour>
    <contour>
      <point x="251" y="433" type="line"/>
      <point x="176" y="183" type="line"/>
      <point x="325" y="183" type="line"/>
    </contour>
  </outline>
</glyph>
<glyph name="uni03A9" format="1">
  <advance width="546.0"/>
  <unicode hex="03A9"/>
  <outline>
    <contour>
      <point x="27" y="0" type="line"/>
      <point x="27" y="160" type="line"/>
      <point x="110" y="160" type="line"/>
      <point x="110" y="179" type="line"/>
      <point x="60" y="209"/>
      <point x="6" y="316"/>
      <point x="6" y="385" type="qcurve"/>
      <point x="6" y="509"/>
      <point x="146" y="647"/>
      <point x="273" y="647" type="qcurve" smooth="yes"/>
      <point x="399" y="647"/>
      <point x="540" y="508"/>
      <point x="540" y="387" type="qcurve"/>
      <point x="540" y="318"/>
      <point x="486" y="209"/>
      <point x="436" y="179" type="qcurve"/>
      <point x="436" y="160" type="line"/>
      <point x="519" y="160" type="line"/>
      <point x="519" y="0" type="line"/>
      <point x="290" y="0" type="line"/>
      <point x="290" y="271" type="line"/>
      <point x="316" y="280"/>
      <point x="341" y="329"/>
      <point x="341" y="370" type="qcurve" smooth="yes"/>
      <point x="341" y="419"/>
      <point x="307" y="468"/>
      <point x="273" y="468" type="qcurve" smooth="yes"/>
      <point x="238" y="468"/>
      <point x="204" y="419"/>
      <point x="204" y="370" type="qcurve" smooth="yes"/>
      <point x="204" y="328"/>
      <point x="231" y="278"/>
      <point x="256" y="271" type="qcurve"/>
      <point x="256" y="0" type="line"/>
    </contour>
  </outline>
</glyph>
<glyph name="uni03BC" format="1">
  <advance width="438.0"/>
  <unicode hex="03BC"/>
  <outline>
    <contour>
      <point x="202" y="-7" type="qcurve"/>
      <point x="195" y="-7"/>
      <point x="182" y="-4"/>
      <point x="180" y="-2" type="qcurve"/>
      <point x="180" y="-47"/>
      <point x="196" y="-123"/>
      <point x="211" y="-152" type="qcurve"/>
      <point x="36" y="-152" type="line"/>
      <point x="24" y="-117"/>
      <point x="14" y="-31"/>
      <point x="14" y="60" type="qcurve"/>
      <point x="14" y="494" type="line"/>
      <point x="201" y="494" type="line"/>
      <point x="201" y="193" type="line" smooth="yes"/>
      <point x="201" y="178"/>
      <point x="208" y="167"/>
      <point x="216" y="167" type="qcurve"/>
      <point x="222" y="167"/>
      <point x="232" y="171"/>
      <point x="237" y="176" type="qcurve"/>
      <point x="237" y="494" type="line"/>
      <point x="424" y="494" type="line"/>
      <point x="424" y="0" type="line"/>
      <point x="263" y="0" type="line"/>
      <point x="259" y="35" type="line"/>
      <point x="250" y="15"/>
      <point x="221" y="-7"/>
    </contour>
  </outline>
</glyph>
<glyph name="pi" format="1">
  <advance width="468.0"/>
  <unicode hex="03C0"/>
  <outline>
    <contour>
      <point x="189" y="0" type="qcurve"/>
      <point x="3" y="0" type="line"/>
      <point x="34" y="107"/>
      <point x="57" y="243"/>
      <point x="58" y="307" type="qcurve"/>
      <point x="12" y="307" type="line"/>
      <point x="12" y="494" type="line"/>
      <point x="459" y="494" type="line"/>
      <point x="459" y="307" type="line"/>
      <point x="414" y="307" type="line"/>
      <point x="414" y="212" type="line" smooth="yes"/>
      <point x="414" y="193"/>
      <point x="420" y="180"/>
      <point x="428" y="180" type="qcurve"/>
      <point x="442" y="180" type="line"/>
      <point x="442" y="0" type="line"/>
      <point x="356" y="0" type="line" smooth="yes"/>
      <point x="302" y="0"/>
      <point x="245" y="66"/>
      <point x="245" y="128" type="qcurve"/>
      <point x="245" y="307" type="line"/>
      <point x="226" y="307" type="line"/>
      <point x="225" y="239"/>
      <point x="210" y="106"/>
    </contour>
  </outline>
</glyph>
<glyph name="uni1E9E" format="1">
  <advance width="523.0"/>
  <unicode hex="1E9E"/>
  <outline>
    <contour>
      <point x="246" y="635" type="qcurve"/>
      <point x="300" y="635"/>
      <point x="405" y="619"/>
      <point x="458" y="603" type="qcurve"/>
      <point x="426" y="369" type="line"/>
      <point x="447" y="360" type="line" smooth="yes"/>
      <point x="491" y="341"/>
      <point x="520" y="271"/>
      <point x="520" y="196" type="qcurve"/>
      <point x="520" y="88"/>
      <point x="445" y="-10"/>
      <point x="360" y="-10" type="qcurve"/>
      <point x="336" y="-10"/>
      <point x="291" y="-5"/>
      <point x="253" y="3" type="qcurve"/>
      <point x="253" y="170" type="line"/>
      <point x="272" y="166"/>
      <point x="306" y="163"/>
      <point x="324" y="163" type="qcurve"/>
      <point x="336" y="163"/>
      <point x="348" y="181"/>
      <point x="348" y="200" type="qcurve" smooth="yes"/>
      <point x="348" y="211"/>
      <point x="339" y="224"/>
      <point x="326" y="228" type="qcurve"/>
      <point x="243" y="252" type="line"/>
      <point x="263" y="463" type="line"/>
      <point x="258" y="465"/>
      <point x="245" y="466"/>
      <point x="238" y="466" type="qcurve" smooth="yes"/>
      <point x="223" y="466"/>
      <point x="208" y="444"/>
      <point x="208" y="423" type="qcurve"/>
      <point x="208" y="0" type="line"/>
      <point x="15" y="0" type="line"/>
      <point x="15" y="430" type="line" smooth="yes"/>
      <point x="15" y="534"/>
      <point x="129" y="635"/>
    </contour>
  </outline>
</glyph>
<glyph name="endash" format="1">
  <advance width="320.0"/>
  <unicode hex="2013"/>
  <outline>
    <contour>
      <point x="310" y="390" type="line"/>
      <point x="310" y="248" type="line"/>
      <point x="10" y="248" type="line"/>
      <point x="10" y="390" type="line"/>
    </contour>
  </outline>
</glyph>
<glyph name="emdash" format="1">
  <advance width="492.0"/>
  <unicode hex="2014"/>
  <outline>
    <contour>
      <point x="482" y="390" type="line"/>
      <point x="482" y="248" type="line"/>
      <point x="10" y="248" type="line"/>
      <point x="10" y="390" type="line"/>
    </contour>
  </outline>
</glyph>
<glyph name="quoteleft" format="1">
  <advance width="169.0"/>
  <unicode hex="2018"/>
  <outline>
    <contour>
      <point x="-2" y="373" type="line"/>
      <point x="27" y="565" type="line" smooth="yes"/>
      <point x="32" y="592"/>
      <point x="72" y="625"/>
      <point x="100" y="625" type="qcurve"/>
      <point x="159" y="625" type="line"/>
      <point x="159" y="373" type="line"/>
    </contour>
  </outline>
</glyph>
<glyph name="quoteright" format="1">
  <advance width="168.0"/>
  <unicode hex="2019"/>
  <outline>
    <contour>
      <point x="171" y="625" type="line"/>
      <point x="142" y="433" type="line" smooth="yes"/>
      <point x="137" y="406"/>
      <point x="97" y="373"/>
      <point x="69" y="373" type="qcurve"/>
      <point x="10" y="373" type="line"/>
      <point x="10" y="625" type="line"/>
    </contour>
  </outline>
</glyph>
<glyph name="dagger" format="1">
  <advance width="215.0"/>
  <unicode hex="2020"/>
  <outline>
    <contour>
      <point x="146" y="472" type="line"/>
      <point x="154" y="300" type="line"/>
      <point x="62" y="300" type="line"/>
      <point x="70" y="473" type="line"/>
      <point x="6" y="467" type="line"/>
      <point x="6" y="545" type="line"/>
      <point x="69" y="541" type="line"/>
      <point x="65" y="625" type="line"/>
      <point x="151" y="625" type="line"/>
      <point x="147" y="541" type="line"/>
      <point x="209" y="545" type="line"/>
      <point x="209" y="467" type="line"/>
    </contour>
  </outline>
</glyph>
<glyph name="daggerdbl" format="1">
  <advance width="222.0"/>
  <unicode hex="2021"/>
  <outline>
    <contour>
      <point x="212" y="376" type="line"/>
      <point x="212" y="299" type="line"/>
      <point x="150" y="303" type="line"/>
      <point x="154" y="219" type="line"/>
      <point x="69" y="219" type="line"/>
      <point x="73" y="304" type="line"/>
      <point x="10" y="299" type="line"/>
      <point x="10" y="376" type="line"/>
      <point x="75" y="371" type="line"/>
      <point x="75" y="474" type="line"/>
      <point x="10" y="468" type="line"/>
      <point x="10" y="545" type="line"/>
      <point x="73" y="541" type="line"/>
      <point x="69" y="625" type="line"/>
      <point x="154" y="625" type="line"/>
      <point x="150" y="541" type="line"/>
      <point x="212" y="545" type="line"/>
      <point x="212" y="468" type="line"/>
      <point x="149" y="473" type="line"/>
      <point x="149" y="371" type="line"/>
    </contour>
  </outline>
</glyph>
<glyph name="bullet" format="1">
  <advance width="243.0"/>
  <unicode hex="2022"/>
  <outline>
    <contour>
      <point x="215" y="203" type="line"/>
      <point x="28" y="203" type="line"/>
      <point x="28" y="431" type="line"/>
      <point x="215" y="431" type="line"/>
    </contour>
  </outline>
</glyph>
<glyph name="ellipsis" format="1">
  <advance width="462.0"/>
  <unicode hex="2026"/>
  <outline>
    <contour>
      <point x="288" y="0" type="line"/>
      <point x="176" y="0" type="line"/>
      <point x="176" y="141" type="line"/>
      <point x="288" y="141" type="line"/>
    </contour>
    <contour>
      <point x="122" y="0" type="line"/>
      <point x="9" y="0" type="line"/>
      <point x="9" y="141" type="line"/>
      <point x="122" y="141" type="line"/>
    </contour>
    <contour>
      <point x="453" y="0" type="line"/>
      <point x="341" y="0" type="line"/>
      <point x="341" y="141" type="line"/>
      <point x="453" y="141" type="line"/>
    </contour>
  </outline>
</glyph>
<glyph name="perthousand" format="1">
  <advance width="836.0"/>
  <unicode hex="2030"/>
  <outline>
    <contour>
      <point x="250" y="478" type="qcurve"/>
      <point x="250" y="393"/>
      <point x="193" y="318"/>
      <point x="128" y="318" type="qcurve"/>
      <point x="63" y="318"/>
      <point x="6" y="393"/>
      <point x="6" y="478" type="qcurve"/>
      <point x="6" y="560"/>
      <point x="64" y="633"/>
      <point x="128" y="633" type="qcurve"/>
      <point x="193" y="633"/>
      <point x="250" y="560"/>
    </contour>
    <contour>
      <point x="468" y="625" type="line"/>
      <point x="219" y="0" type="line"/>
      <point x="107" y="0" type="line"/>
      <point x="356" y="625" type="line"/>
    </contour>
    <contour>
      <point x="146" y="478" type="qcurve"/>
      <point x="146" y="513"/>
      <point x="139" y="537"/>
      <point x="128" y="537" type="qcurve"/>
      <point x="117" y="537"/>
      <point x="110" y="514"/>
      <point x="110" y="478" type="qcurve"/>
      <point x="110" y="442"/>
      <point x="117" y="419"/>
      <point x="128" y="419" type="qcurve"/>
      <point x="139" y="419"/>
      <point x="146" y="444"/>
    </contour>
    <contour>
      <point x="569" y="152" type="qcurve"/>
      <point x="569" y="67"/>
      <point x="512" y="-8"/>
      <point x="447" y="-8" type="qcurve"/>
      <point x="382" y="-8"/>
      <point x="325" y="67"/>
      <point x="325" y="152" type="qcurve"/>
      <point x="325" y="234"/>
      <point x="383" y="307"/>
      <point x="447" y="307" type="qcurve"/>
      <point x="512" y="307"/>
      <point x="569" y="234"/>
    </contour>
    <contour>
      <point x="830" y="152" type="qcurve"/>
      <point x="830" y="67"/>
      <point x="773" y="-8"/>
      <point x="708" y="-8" type="qcurve"/>
      <point x="643" y="-8"/>
      <point x="586" y="67"/>
      <point x="586" y="152" type="qcurve"/>
      <point x="586" y="234"/>
      <point x="644" y="307"/>
      <point x="708" y="307" type="qcurve"/>
      <point x="773" y="307"/>
      <point x="830" y="234"/>
    </contour>
    <contour>
      <point x="465" y="152" type="qcurve"/>
      <point x="465" y="187"/>
      <point x="458" y="211"/>
      <point x="447" y="211" type="qcurve"/>
      <point x="436" y="211"/>
      <point x="429" y="188"/>
      <point x="429" y="152" type="qcurve"/>
      <point x="429" y="116"/>
      <point x="436" y="93"/>
      <point x="447" y="93" type="qcurve"/>
      <point x="458" y="93"/>
      <point x="465" y="118"/>
    </contour>
    <contour>
      <point x="726" y="152" type="qcurve"/>
      <point x="726" y="187"/>
      <point x="719" y="211"/>
      <point x="708" y="211" type="qcurve"/>
      <point x="697" y="211"/>
      <point x="690" y="188"/>
      <point x="690" y="152" type="qcurve"/>
      <point x="690" y="116"/>
      <point x="697" y="93"/>
      <point x="708" y="93" type="qcurve"/>
      <point x="719" y="93"/>
      <point x="726" y="118"/>
    </contour>
  </outline>
</glyph>
<glyph name="guilsinglleft" format="1">
  <advance width="268.0"/>
  <unicode hex="2039"/>
  <outline>
    <contour>
      <point x="264" y="64" type="line"/>
      <point x="106" y="64" type="line"/>
      <point x="5" y="281" type="line"/>
      <point x="106" y="494" type="line"/>
      <point x="264" y="494" type="line"/>
      <point x="161" y="284" type="line"/>
    </contour>
  </outline>
</glyph>
<glyph name="guilsinglright" format="1">
  <advance width="268.0"/>
  <unicode hex="203A"/>
  <outline>
    <contour>
      <point x="263" y="281" type="line"/>
      <point x="162" y="64" type="line"/>
      <point x="4" y="64" type="line"/>
      <point x="107" y="284" type="line"/>
      <point x="4" y="494" type="line"/>
      <point x="162" y="494" type="line"/>
    </contour>
  </outline>
</glyph>
<glyph name="fraction" format="1">
  <advance width="160.0"/>
  <unicode hex="2044"/>
  <outline>
    <contour>
      <point x="261" y="625" type="line"/>
      <point x="12" y="0" type="line"/>
      <point x="-100" y="0" type="line"/>
      <point x="149" y="625" type="line"/>
    </contour>
  </outline>
</glyph>
<glyph name="uni2070" format="1">
  <advance width="280.0"/>
  <unicode hex="2070"/>
  <outline>
    <contour>
      <point x="272" y="447" type="qcurve"/>
      <point x="272" y="345"/>
      <point x="215" y="261"/>
      <point x="140" y="261" type="qcurve"/>
      <point x="62" y="261"/>
      <point x="8" y="338"/>
      <point x="8" y="447" type="qcurve"/>
      <point x="8" y="548"/>
      <point x="65" y="632"/>
      <point x="140" y="632" type="qcurve"/>
      <point x="218" y="632"/>
      <point x="272" y="556"/>
    </contour>
    <contour>
      <point x="166" y="447" type="qcurve"/>
      <point x="166" y="503"/>
      <point x="157" y="535"/>
      <point x="140" y="535" type="qcurve"/>
      <point x="123" y="535"/>
      <point x="113" y="503"/>
      <point x="113" y="447" type="qcurve"/>
      <point x="113" y="393"/>
      <point x="123" y="362"/>
      <point x="140" y="362" type="qcurve"/>
      <point x="157" y="362"/>
      <point x="166" y="393"/>
    </contour>
  </outline>
</glyph>
<glyph name="uni2074" format="1">
  <advance width="260.0"/>
  <unicode hex="2074"/>
  <outline>
    <contour>
      <point x="256" y="437" type="line"/>
      <point x="256" y="343" type="line"/>
      <point x="229" y="343" type="line"/>
      <point x="229" y="268" type="line"/>
      <point x="125" y="268" type="line"/>
      <point x="125" y="343" type="line"/>
      <point x="6" y="343" type="line"/>
      <point x="6" y="437" type="line"/>
      <point x="39" y="625" type="line"/>
      <point x="137" y="625" type="line"/>
      <point x="108" y="437" type="line"/>
      <point x="132" y="437" type="line"/>
      <point x="145" y="564" type="line"/>
      <point x="229" y="564" type="line"/>
      <point x="229" y="437" type="line"/>
    </contour>
  </outline>
</glyph>
<glyph name="uni2075" format="1">
  <advance width="224.0"/>
  <unicode hex="2075"/>
  <outline>
    <contour>
      <point x="220" y="382" type="qcurve"/>
      <point x="220" y="324"/>
      <point x="161" y="261"/>
      <point x="108" y="261" type="qcurve"/>
      <point x="77" y="261"/>
      <point x="22" y="268"/>
      <point x="9" y="273" type="qcurve"/>
      <point x="9" y="367" type="line"/>
      <point x="26" y="363"/>
      <point x="61" y="360"/>
      <point x="85" y="360" type="qcurve"/>
      <point x="102" y="360"/>
      <point x="115" y="371"/>
      <point x="115" y="385" type="qcurve"/>
      <point x="115" y="398"/>
      <point x="101" y="407"/>
      <point x="82" y="407" type="qcurve"/>
      <point x="64" y="407"/>
      <point x="33" y="405"/>
      <point x="19" y="403" type="qcurve"/>
      <point x="19" y="625" type="line"/>
      <point x="200" y="625" type="line"/>
      <point x="200" y="528" type="line"/>
      <point x="124" y="528" type="line"/>
      <point x="124" y="487" type="line"/>
      <point x="130" y="488"/>
      <point x="144" y="489"/>
      <point x="149" y="489" type="qcurve" smooth="yes"/>
      <point x="186" y="489"/>
      <point x="220" y="437"/>
    </contour>
  </outline>
</glyph>
<glyph name="uni2076" format="1">
  <advance width="249.0"/>
  <unicode hex="2076"/>
  <outline>
    <contour>
      <point x="133" y="261" type="qcurve" smooth="yes"/>
      <point x="63" y="261"/>
      <point x="8" y="339"/>
      <point x="8" y="437" type="qcurve"/>
      <point x="8" y="536"/>
      <point x="84" y="632"/>
      <point x="163" y="632" type="qcurve"/>
      <point x="179" y="632"/>
      <point x="213" y="628"/>
      <point x="221" y="626" type="qcurve"/>
      <point x="221" y="537" type="line"/>
      <point x="210" y="539"/>
      <point x="184" y="541"/>
      <point x="169" y="541" type="qcurve"/>
      <point x="140" y="541"/>
      <point x="116" y="519"/>
      <point x="112" y="491" type="qcurve"/>
      <point x="124" y="498"/>
      <point x="151" y="505"/>
      <point x="166" y="505" type="qcurve"/>
      <point x="207" y="505"/>
      <point x="246" y="449"/>
      <point x="246" y="391" type="qcurve"/>
      <point x="246" y="329"/>
      <point x="187" y="261"/>
    </contour>
    <contour>
      <point x="150" y="388" type="qcurve"/>
      <point x="150" y="407"/>
      <point x="142" y="422"/>
      <point x="130" y="422" type="qcurve"/>
      <point x="125" y="422"/>
      <point x="115" y="420"/>
      <point x="109" y="417" type="qcurve"/>
      <point x="110" y="378"/>
      <point x="118" y="353"/>
      <point x="131" y="353" type="qcurve"/>
      <point x="141" y="353"/>
      <point x="150" y="370"/>
    </contour>
  </outline>
</glyph>
<glyph name="uni2077" format="1">
  <advance width="223.0"/>
  <unicode hex="2077"/>
  <outline>
    <contour>
      <point x="218" y="625" type="line"/>
      <point x="218" y="528" type="line"/>
      <point x="117" y="268" type="line"/>
      <point x="-1" y="268" type="line"/>
      <point x="107" y="526" type="line"/>
      <point x="9" y="526" type="line"/>
      <point x="9" y="625" type="line"/>
    </contour>
  </outline>
</glyph>
<glyph name="uni2078" format="1">
  <advance width="252.0"/>
  <unicode hex="2078"/>
  <outline>
    <contour>
      <point x="245" y="365" type="qcurve"/>
      <point x="245" y="312"/>
      <point x="187" y="261"/>
      <point x="126" y="261" type="qcurve"/>
      <point x="63" y="261"/>
      <point x="7" y="310"/>
      <point x="7" y="366" type="qcurve"/>
      <point x="7" y="400"/>
      <point x="31" y="444"/>
      <point x="55" y="453" type="qcurve"/>
      <point x="33" y="464"/>
      <point x="12" y="503"/>
      <point x="12" y="536" type="qcurve"/>
      <point x="12" y="585"/>
      <point x="68" y="632"/>
      <point x="126" y="632" type="qcurve"/>
      <point x="187" y="632"/>
      <point x="240" y="587"/>
      <point x="240" y="535" type="qcurve"/>
      <point x="240" y="503"/>
      <point x="220" y="464"/>
      <point x="198" y="453" type="qcurve"/>
      <point x="221" y="444"/>
      <point x="245" y="399"/>
    </contour>
    <contour>
      <point x="149" y="519" type="qcurve"/>
      <point x="149" y="534"/>
      <point x="138" y="547"/>
      <point x="126" y="547" type="qcurve"/>
      <point x="113" y="547"/>
      <point x="103" y="534"/>
      <point x="103" y="519" type="qcurve"/>
      <point x="103" y="504"/>
      <point x="114" y="491"/>
      <point x="126" y="491" type="qcurve"/>
      <point x="138" y="491"/>
      <point x="149" y="504"/>
    </contour>
    <contour>
      <point x="150" y="380" type="qcurve"/>
      <point x="150" y="395"/>
      <point x="139" y="408"/>
      <point x="126" y="408" type="qcurve"/>
      <point x="114" y="408"/>
      <point x="103" y="395"/>
      <point x="103" y="380" type="qcurve"/>
      <point x="103" y="364"/>
      <point x="114" y="350"/>
      <point x="126" y="350" type="qcurve"/>
      <point x="139" y="350"/>
      <point x="150" y="364"/>
    </contour>
  </outline>
</glyph>
<glyph name="uni2079" format="1">
  <advance width="251.0"/>
  <unicode hex="2079"/>
  <outline>
    <contour>
      <point x="118" y="632" type="qcurve"/>
      <point x="188" y="632"/>
      <point x="243" y="553"/>
      <point x="243" y="456" type="qcurve"/>
      <point x="243" y="358"/>
      <point x="165" y="261"/>
      <point x="86" y="261" type="qcurve"/>
      <point x="71" y="261"/>
      <point x="37" y="265"/>
      <point x="29" y="267" type="qcurve"/>
      <point x="29" y="357" type="line"/>
      <point x="45" y="355"/>
      <point x="68" y="354"/>
      <point x="81" y="354" type="qcurve"/>
      <point x="109" y="354"/>
      <point x="133" y="375"/>
      <point x="137" y="402" type="qcurve"/>
      <point x="124" y="395"/>
      <point x="98" y="389"/>
      <point x="84" y="389" type="qcurve"/>
      <point x="43" y="389"/>
      <point x="3" y="445"/>
      <point x="3" y="502" type="qcurve"/>
      <point x="3" y="565"/>
      <point x="63" y="632"/>
    </contour>
    <contour>
      <point x="119" y="541" type="qcurve"/>
      <point x="109" y="541"/>
      <point x="99" y="523"/>
      <point x="99" y="505" type="qcurve"/>
      <point x="99" y="486"/>
      <point x="108" y="471"/>
      <point x="120" y="471" type="qcurve"/>
      <point x="124" y="471"/>
      <point x="134" y="474"/>
      <point x="140" y="477" type="qcurve"/>
      <point x="140" y="520"/>
      <point x="132" y="541"/>
    </contour>
  </outline>
</glyph>
